<ttFont>
          <CharString index="0">
            -20 hstem
            447 31 vstem
            717 461 rmoveto
            -69 callsubr
            -41 -78 -36 -69 -30 -64 -107 callgsubr
            return
          </CharString>
          <CharString index="1">
            -20 hstem
            24 49 vstem
            549 23 callgsubr
            -12 -72 callgsubr
            -27 hhcurveto
            -150 -185 -140 -154 -55 hvcurveto
            1 -8 -15 5 -6 hhcurveto
            -16 callgsubr
            -8 13 -34 7 hvcurveto
            -3 -18 -2 -18 -16 vvcurveto
            -53 callsubr
            vhcurveto
            -88 callsubr
            -71 -84 -39 -92 hhcurveto
            -93 -67 60 90 11 1 12 2 13 hvcurveto
            90 -55 callgsubr
            -5 -1 -3 22 callsubr
            -20 -76 -89 -1 -140 hhcurveto
            139 50 173 133 139 hhcurveto
            10 8 -1 -1 7 hvcurveto
            -16 -85 callgsubr
            -4 7 5 vvcurveto
            33 80 108 4 vhcurveto
            -57 callgsubr
            return
          </CharString>
          <CharString index="2">
            48 53 23 41 29 vvcurveto
            7 -2 4 -2 vhcurveto
            -31 -45 -38 -55 -108 -104 -53 -43 rlinecurve
            -33 hlineto
            -15 -11 -2 1 -9 hvcurveto
            -49 -28 4 6 -6 hvcurveto
            -3 -43 callgsubr
            hvcurveto
            -2 -2 rlineto
            -27 27 -20 32 vhcurveto
            12 30 2 12 hhcurveto
            -1 vlineto
            -77 -98 -73 -39 -51 -6 -16 5 -7 -6 callsubr
            hhcurveto
            4 -5 rlineto
            -14 16 20 -7 20 hhcurveto
            61 85 47 95 65 callgsubr
            5 18 117 19 20 hhcurveto
            return
          </CharString>
          <CharString index="3">
            -20 -58 callsubr
            hintmask 11111100
            -101 callgsubr
            hintmask 11111010
            -100 callsubr
            return
          </CharString>
          <CharString index="4">
            -10 -34 -4 -30 -23 vvcurveto
            -48 22 -32 35 16 7 4 -84 callgsubr
            18 35 36 11 40 22 47 hvcurveto
            13 24 rlineto
            1 1 53 callgsubr
            10 -31 16 -8 -52 callsubr
            -90 callsubr
            57 callgsubr
            -24 11 hvcurveto
            -1 2 -2 80 callsubr
            5 6 vhcurveto
            return
          </CharString>
          <CharString index="5">
            -20 hstem
            6 45 153 39 vstem
            321 255 rmoveto
            -88 callgsubr
            -83 callgsubr
            -79 callgsubr
            -3 -15 -34 -30 -65 vhcurveto
            -29 -64 -14 -46 -27 19 callsubr
            41 21 32 161 99 vhcurveto
            -94 callgsubr
            return
          </CharString>
          <CharString index="6">
            -20 -45 callsubr
            hintmask 11111000
            -97 callgsubr
            hintmask 11110100
            -103 callsubr
            return
          </CharString>
          <CharString index="7">
            28 -80 -76 callgsubr
            -27 callsubr
            vhcurveto
            -99 callsubr
            return
          </CharString>
          <CharString index="8">
            -5 -64 callgsubr
            6 4 -83 callsubr
            5 -7 hvcurveto
            28 27 26 16 27 4 rrcurveto
            -51 callgsubr
            return
          </CharString>
          <CharString index="9">
            rmoveto
            -12 -2 -11 -5 -13 vhcurveto
            51 -29 -72 35 -82 hhcurveto
            -63 callsubr
            9 -5 69 2 32 -8 rlinecurve
            60 -17 44 -42 9 -52 return
          </CharString>
          <CharString index="10">
            -20 hstem
            -183 22 418 48 vstem
            -100 callgsubr
            return
          </CharString>
          <CharString index="11">
            593 417 rmoveto
            9 -38 12 -26 -43 -44 -9 -75 -92 vhcurveto
            -89 -81 -48 -44 -40 -32 -31 -21 rlinecurve
            5 -1 79 callgsubr
            hhcurveto
            -5 -14 -18 -7 -1 2 -4 4 -8 hvcurveto
            30 -63 rlineto
            -120 66 90 -90 88 hhcurveto
            43 30 22 31 26 -16 27 -32 31 hvcurveto
            10 -10 -8 5 -3 hhcurveto
            54 callgsubr
            -1 hvcurveto
            1 50 -75 -24 vvcurveto
            -16 -8 -9 -19 -64 -129 96 165 -80 vhcurveto
            168 220 107 89 73 13 18 -7 3 hhcurveto
            7 3 3 4 hvcurveto
            -353 -19 rmoveto
            5 -23 12 -16 -17 -33 -72 -4 -2 vhcurveto
            -94 -165 -48 -123 -82 vvcurveto
            -53 19 -19 18 -43 callsubr
            vhcurveto
            7 -14 22 21 vvcurveto
            69 55 123 98 170 vhcurveto
            36 59 19 30 -1 vvcurveto
            return
          </CharString>
          <CharString index="12">
            -20 hstem
            29 34 258 41 vstem
            510 446 rmoveto
            4 -4 3 -8 vhcurveto
            -17 -1 -13 -4 -11 -10 -78 -71 rcurveline
            -161 -143 -102 -107 -43 -71 20 64 33 70 43 78 13 24 41 67 66 112 rrcurveto
            12 -30 8 -13 -19 -39 -78 -4 -2 vhcurveto
            -105 -176 -52 -131 -90 vvcurveto
            -43 16 -48 25 4 28 callgsubr
            vhcurveto
            0 -12 16 22 vvcurveto
            50 47 71 92 93 vhcurveto
            205 185 rlineto
            -46 -103 -40 -149 -79 vvcurveto
            -51 26 -42 36 39 27 39 76 21 vhcurveto
            1 3 1 3 2 vvcurveto
            4 -2 4 -2 -4 -3 -5 -8 -4 vhcurveto
            -70 -29 -22 -35 -18 hhcurveto
            -18 -8 25 48 92 49 142 98 194 hvcurveto
            return
          </CharString>
          <CharString index="13">
            rrcurveto
            -37 -46 -105 -89 2 vvcurveto
            -51 callsubr
            -20 callsubr
            7 callgsubr
            57 30 45 34 34 38 rrcurveto
            return
          </CharString>
          <CharString index="14">
            -63 callgsubr
            -18 -33 -44 hvcurveto
            -2 6 -1 7 6 vvcurveto
            39 21 28 28 25 return
          </CharString>
          <CharString index="15">
            -102 callsubr
            57 77 183 1 -18 hvcurveto
            return
          </CharString>
          <CharString index="16">
            64 -14 -40 33 -69 -116 -148 -26 -37 hhcurveto
            -4 -4 2 6 -7 hvcurveto
            -6 -5 -3 -5 -7 vvcurveto
            -16 14 -8 27 vhcurveto
            40 146 20 58 hhcurveto
            74 48 -11 -25 22 hvcurveto
            -4 -11 -268 -144 -113 -71 rrcurveto
            -77 -48 -95 -68 -22 vvcurveto
            0 0 -2 1 -5 vhcurveto
            -63 -18 14 3 -14 vvcurveto
            -16 6 -8 11 -1 -25 callgsubr
            12 237 58 200 127 64 -19 -39 -33 -28 -42 -58 -52 vhcurveto
            -1 28 callsubr
            vhcurveto
            -3 56 callgsubr
            7 9 5 9 15 vhcurveto
            48 31 25 39 45 vvcurveto
            return
          </CharString>
          <CharString index="17">
            -104 -74 -81 -99 -34 hhcurveto
            -7 -3 7 12 58 122 178 81 return
          </CharString>
          <CharString index="18">
            25 118 33 31 hhcurveto
            21 14 -5 -12 9 hvcurveto
            -1 -3 -46 -34 -92 -62 rrcurveto
            -91 -62 -46 -36 -11 vvcurveto
            -57 callgsubr
            -9 -13 -15 1 2 -1 rrcurveto
            -6 -8 -3 -12 -12 vvcurveto
            -5 1 -2 2 vhcurveto
            26 60 67 14 75 hhcurveto
            66 34 -12 -23 -12 -14 -28 2 2 hvcurveto
            38 callgsubr
            2 13 7 13 26 46 -25 24 -51 -67 -48 -3 -8 -29 vhcurveto
            168 119 rlineto
            38 27 20 15 4 vvcurveto
            return
          </CharString>
          <CharString index="19">
            6 -64 callsubr
            -3 -5 -6 -5 -9 -9 vhcurveto
            -77 return
          </CharString>
          <CharString index="20">
            4 -1 -18 callgsubr
            1 -38 callsubr
            50 -38 30 -28 11 -16 7 -3 rcurveline
            -60 callgsubr
            69 24 39 25 callgsubr
          </CharString>
          <CharString index="21">
            330 281 rmoveto
            14 -4 8 -6 -29 -78 -66 -67 -59 vhcurveto
            8 -11 -7 5 -4 hhcurveto
            -7 -27 -31 -10 0 7 -6 13 -11 hvcurveto
            -43 -56 -23 -31 -3 -7 7 21 32 75 58 127 rrcurveto
            -68 callsubr
            -23 callsubr
            return
          </CharString>
          <CharString index="22">
            -44 callgsubr
            hvcurveto
            -88 callsubr
            -73 -83 -39 -91 hhcurveto
            -93 -67 60 90 154 205 195 176 38 29 -10 -18 20 hvcurveto
            -26 -53 -14 -43 -30 vvcurveto
            -17 4 -9 8 1 -13 callsubr
            vhcurveto
            3 -4 9 3 vvcurveto
            25 20 39 39 53 vhcurveto
            40 54 19 25 -2 vvcurveto
            return
          </CharString>
          <CharString index="23">
            rmoveto
            6 -13 -1 -1 4 vhcurveto
            3 9 1 9 8 vvcurveto
            27 -12 14 -26 -55 -117 -156 -53 -24 16 -28 23 vhcurveto
            12 hlineto
            48 105 121 44 23 callsubr
            -1 hvcurveto
            11 5 6 5 7 vvcurveto
            -186 324 rmoveto
            -36 -2 -90 -106 -40 hhcurveto
            -12 -6 7 15 39 82 114 38 3 hvcurveto
            12 -18 9 -11 9 -7 rrcurveto
            return
          </CharString>
          <CharString index="24">
            59 callgsubr
            hvcurveto
            -2 -41 callgsubr
            hhcurveto
            -3 -7 2 return
          </CharString>
          <CharString index="25">
            3 -15 8 -13 hvcurveto
            -30 -32 -24 -57 -46 vvcurveto
            return
          </CharString>
          <CharString index="26">
            -48 132 37 2 -20 hstemhm
            hintmask 01000000
            215 168 rmoveto
            35 callsubr
            vvcurveto
            hintmask 10000000
            -1 -15 -18 -1 -23 hhcurveto
            -31 hlineto
            1 -9 -16 -2 -23 hhcurveto
            -47 -9 callsubr
            43 callgsubr
            5 hvcurveto
            80 12 rlineto
            43 7 20 9 25 callgsubr
          </CharString>
          <CharString index="27">
            vvcurveto
            -32 -15 -67 -31 -98 vhcurveto
            -13 -40 -7 -26 -13 vvcurveto
            -10 21 -7 11 return
          </CharString>
          <CharString index="28">
            -161 -74 -52 29 -27 56 46 58 51 102 70 return
          </CharString>
          <CharString index="29">
            hintmask 100010011001010110000000
            return
          </CharString>
          <CharString index="30">
            -45 callgsubr
            -12 28 17 -29 -80 callsubr
            return
          </CharString>
          <CharString index="31">
            -32 86 -21 -23 callgsubr
            -49 38 -30 28 -12 17 -6 2 rcurveline
            -69 callgsubr
            93 124 17 vhcurveto
            endchar
          </CharString>
          <CharString index="32">
            287 284 rmoveto
            7 -130 4 3 vhcurveto
            6 63 2 45 29 vvcurveto
            -1 15 rlineto
            -16 -3 -9 -6 -7 vvcurveto
            -50 -1 -45 -2 -41 vhcurveto
            -51 -40 -2 -3 -24 hvcurveto
            -3 -1 rlineto
            -7 4 14 -10 8 hhcurveto
            11 15 1 1 19 hvcurveto
            47 3 rlineto
            return
          </CharString>
          <CharString index="33">
            13 -15 6 -30 -19 -107 -135 -66 callsubr
            6 -10 13 11 6 3 9 vhcurveto
            return
          </CharString>
          <CharString index="34">
            4 -38 42 -11 -57 -90 -69 -54 -41 13 -27 45 -41 vhcurveto
            15 -13 6 -8 -4 -41 -115 -16 -1 vvcurveto
            -11 29 -15 39 38 47 32 30 vhcurveto
            31 -94 83 17 vvcurveto
            47 82 53 58 vhcurveto
            10 16 -5 2 hhcurveto
            4 1 2 5 hvcurveto
            return
          </CharString>
          <CharString index="35">
            3 -1 vhcurveto
            1 1 -22 -20 -8 hhcurveto
            return
          </CharString>
          <CharString index="36">
            5 14 -4 6 hhcurveto
            7 3 6 9 return
          </CharString>
          <CharString index="37">
            rmoveto
            -54 callsubr
            -37 13 -18 25 15 55 28 17 2 -2 2 -2 vhcurveto
            1 -37 -31 -11 hhcurveto
            -9 -4 9 16 49 46 133 41 71 hvcurveto
            endchar
          </CharString>
          <CharString index="38">
            10 -27 10 -18 -20 -45 -99 -8 -5 vhcurveto
            return
          </CharString>
          <CharString index="39">
            52 118 26 64 10 vvcurveto
            30 -27 21 -43 -61 callsubr
            18 78 callsubr
            return
          </CharString>
          <CharString index="40">
            694 341 rmoveto
            76 -116 43 -163 vhcurveto
            -13 hlineto
            -161 -1 -240 -54 -71 vvcurveto
            -11 5 -5 11 5 27 callgsubr
            8 vhcurveto
            74 106 138 36 171 hhcurveto
            130 88 -32 -52 hvcurveto
            return
          </CharString>
          <CharString index="41">
            -273 -191 vhcurveto
            -83 -122 -4 -2 -43 vvcurveto
            -19 return
          </CharString>
          <CharString index="42">
            35 -36 16 -35 -61 callsubr
            19 78 callsubr
            13 5 -7 -14 -18 return
          </CharString>
          <CharString index="43">
            27 callgsubr
            5 vvcurveto
            5 -1 3 return
          </CharString>
          <CharString index="44">
            -22 -23 -4 -7 -22 hvcurveto
            -3 -2 return
          </CharString>
          <CharString index="45">
            -53 16 -27 32 23 12 6 10 57 callsubr
            -3 vhcurveto
            -3 -8 -5 -5 hhcurveto
            -17 -7 18 38 return
          </CharString>
          <CharString index="46">
            -30 -15 -5 -10 42 callgsubr
            5 vhcurveto
            7 return
          </CharString>
          <CharString index="47">
            -124 92 -7 -6 -3 -4 -9 -16 -8 2 79 -47 vhcurveto
            38 return
          </CharString>
          <CharString index="48">
            vstem
            200 411 rmoveto
            3 0 1 -17 callgsubr
            -8 9 12 -4 15 hhcurveto
            21 15 20 42 10 hvcurveto
            3 19 rlineto
            2 6 0 64 callsubr
            return
          </CharString>
          <CharString index="49">
            hstemhm
            -33 callsubr
            -35 35 return
          </CharString>
          <CharString index="50">
            -19 callsubr
            -52 -29 21 -5 13 callgsubr
            9 -3 hvcurveto
            5 -3 callgsubr
          </CharString>
          <CharString index="51">
            1 callsubr
            -9 20 -7 -15 vvcurveto
            return
          </CharString>
          <CharString index="52">
            6 13 vvcurveto
            37 121 160 189 -28 callsubr
            return
          </CharString>
          <CharString index="53">
            10 -2 -11 4 -25 hhcurveto
            -25 -5 -28 -8 -3 hvcurveto
            -40 -91 -20 -74 -54 vvcurveto
            return
          </CharString>
          <CharString index="54">
            -101 70 -61 104 -44 callgsubr
            return
          </CharString>
          <CharString index="55">
            -48 callsubr
            vhcurveto
            return
          </CharString>
          <CharString index="56">
            -1 0 0 return
          </CharString>
          <CharString index="57">
            27 -12 13 -26 -57 -115 -157 -51 -25 16 -28 23 vhcurveto
            12 hlineto
            49 0 callsubr
            52 1 60 18 70 33 return
          </CharString>
          <CharString index="58">
            218 -76 25 186 -20 callgsubr
            return
          </CharString>
          <CharString index="59">
            -2 -1 -13 callgsubr
            return
          </CharString>
          <CharString index="60">
            -65 callsubr
            -9 -28 -14 -41 hvcurveto
            -73 -169 return
          </CharString>
          <CharString index="61">
            -34 callsubr
            -72 -11 vvcurveto
            -6 2 -2 return
          </CharString>
          <CharString index="62">
            hstemhm
            6 237 -42 42 return
          </CharString>
          <CharString index="63">
            43 callsubr
            3 3 vvcurveto
            return
          </CharString>
          <CharString index="64">
            1 44 callsubr
            return
          </CharString>
          <CharString index="65">
            0 -38 callsubr
            return
          </CharString>
          <CharString index="66">
            3 2 3 7 vhcurveto
            -9 hmoveto
            -6 callgsubr
            -5 1 -2 3 13 callsubr
            -3 52 callgsubr
            return
          </CharString>
          <CharString index="67">
            7 -16 -17 -9 -1 -5 -2 23 -2 -1 1 vhcurveto
            -122 -89 rlineto
            -61 -48 -30 -33 -19 vvcurveto
            -10 10 -20 8 vhcurveto
            16 return
          </CharString>
          <CharString index="68">
            -40 -7 -34 -28 vvcurveto
            -47 10 -23 19 4 3 7 callgsubr
            2 -10 7 8 vvcurveto
            22 34 111 11 22 vhcurveto
            6 hlineto
            return
          </CharString>
          <CharString index="69">
            -19 callgsubr
            vhcurveto
            return
          </CharString>
          <CharString index="70">
            -11 -39 -6 -28 -21 vvcurveto
            -34 callgsubr
            8 20 30 46 50 71 rrcurveto
            return
          </CharString>
          <CharString index="71">
            156 141 rmoveto
            14 -17 12 -14 -19 -10 -8 -14 -18 11 -8 21 12 16 10 12 vhcurveto
            -30 -147 rmoveto
            return
          </CharString>
          <CharString index="72">
            21 callgsubr
            -91 hmoveto
            -67 callgsubr
            -13 return
          </CharString>
          <CharString index="73">
            28 -19 -18 callsubr
            return
          </CharString>
          <CharString index="74">
            2 40 3 185 return
          </CharString>
          <CharString index="75">
            0 -10 -55 callsubr
            2 5 4 vvcurveto
            return
          </CharString>
          <CharString index="76">
            -76 callgsubr
            48 46 119 98 11 vhcurveto
            71 callgsubr
          </CharString>
          <CharString index="77">
            12 callgsubr
            -6 35 callgsubr
            3 22 21 17 15 43 -21 17 hhcurveto
            32 18 return
          </CharString>
          <CharString index="78">
            6 9 6 14 5 hvcurveto
            12 14 callsubr
            -91 hmoveto
            -67 callgsubr
            return
          </CharString>
          <CharString index="79">
            219 vhcurveto
            107 124 rlineto
            4 5 return
          </CharString>
          <CharString index="80">
            37 18 41 35 41 return
          </CharString>
          <CharString index="81">
            1 0 1 return
          </CharString>
          <CharString index="82">
            rlinecurve
            -5 2 rlineto
            -8 67 callsubr
            4 5 29 21 42 52 vhcurveto
            16 -17 return
          </CharString>
          <CharString index="83">
            vlineto
            -59 callgsubr
            20 -3 vlineto
            -78 callsubr
            return
          </CharString>
          <CharString index="84">
            13 6 -7 -15 -57 -139 -331 2 6 hvcurveto
            return
          </CharString>
          <CharString index="85">
            319 -75 26 501 -20 return
          </CharString>
          <CharString index="86">
            102 -22 -21 292 24 return
          </CharString>
          <CharString index="87">
            28 callgsubr
            1 return
          </CharString>
          <CharString index="88">
            rmoveto
            -2 5 -19 -2 50 callsubr
            return
          </CharString>
          <CharString index="89">
            21 -2 callgsubr
            return
          </CharString>
          <CharString index="90">
            hintmask 000100011001010110000000
            return
          </CharString>
          <CharString index="91">
            1 23 callsubr
            return
          </CharString>
          <CharString index="92">
            0 1 0 return
          </CharString>
          <CharString index="93">
            74 -47 20 -2 rrcurveto
            endchar
          </CharString>
          <CharString index="94">
            1 1 1 return
          </CharString>
          <CharString index="95">
            -31 20 -23 30 12 5 3 5 vhcurveto
            5 -26 -5 36 23 52 74 -8 vvcurveto
            return
          </CharString>
          <CharString index="96">
            45 callsubr
            -2 1 rlineto
            -15 -42 37 callsubr
            9 -14 7 7 8 6 14 return
          </CharString>
          <CharString index="97">
            226 97 vhcurveto
            44 103 22 84 67 vvcurveto
            16 -1 14 -3 12 vhcurveto
            endchar
          </CharString>
          <CharString index="98">
            hlineto
            -13 -6 -6 -12 -11 15 -7 30 5 return
          </CharString>
          <CharString index="99">
            -41 23 126 165 return
          </CharString>
          <CharString index="100">
            -14 -45 16 -13 hhcurveto
            -35 return
          </CharString>
          <CharString index="101">
            37 callgsubr
            -1 return
          </CharString>
          <CharString index="102">
            vvcurveto
            44 callgsubr
            return
          </CharString>
          <CharString index="103">
            vhcurveto
            16 -17 -14 callsubr
          </CharString>
          <CharString index="104">
            111 41 callsubr
            return
          </CharString>
          <CharString index="105">
            82 17 callgsubr
            return
          </CharString>
          <CharString index="106">
            vvcurveto
            -48 16 -24 20 vhcurveto
            35 callsubr
            hhcurveto
            9 -14 21 20 vvcurveto
            return
          </CharString>
          <CharString index="107">
            104 120 45 23 callsubr
            -1 hvcurveto
            return
          </CharString>
          <CharString index="108">
            -7 46 callgsubr
            return
          </CharString>
          <CharString index="109">
            -21 113 -20 return
          </CharString>
          <CharString index="110">
            4 2 3 return
          </CharString>
          <CharString index="111">
            vhcurveto
            8 8 4 5 4 vvcurveto
            2 -1 0 -1 vhcurveto
            -8 -4 rlineto
            return
          </CharString>
          <CharString index="112">
            vhcurveto
            5 5 3 7 25 callgsubr
          </CharString>
          <CharString index="113">
            12 16 11 11 vhcurveto
            endchar
          </CharString>
          <CharString index="114">
            -3 1 rlineto
            return
          </CharString>
          <CharString index="115">
            21 -21 227 -215 -21 503 24 hstemhm
            670 24 return
          </CharString>
          <CharString index="116">
            -18 rlinecurve
            42 -51 -29 21 -5 hhcurveto
            -5 81 callgsubr
            -11 92 return
          </CharString>
          <CharString index="117">
            1 2 vvcurveto
            -59 callgsubr
            3 return
          </CharString>
          <CharString index="118">
            55 callgsubr
            5 2 3 rlinecurve
            return
          </CharString>
          <CharString index="119">
            3 callgsubr
            1 vhcurveto
            -1 -15 return
          </CharString>
          <CharString index="120">
            1 1 2 5 5 -1 2 -1 return
          </CharString>
          <CharString index="121">
            30 55 callsubr
            5 2 3 rlinecurve
            return
          </CharString>
          <CharString index="122">
            20 17 15 43 -20 17 hhcurveto
            32 return
          </CharString>
          <CharString index="123">
            rmoveto
            -4 8 -43 32 -32 return
          </CharString>
          <CharString index="124">
            79 -68 52 497 -20 return
          </CharString>
          <CharString index="125">
            rmoveto
            51 callsubr
            return
          </CharString>
          <CharString index="126">
            vvcurveto
            -37 callgsubr
            return
          </CharString>
          <CharString index="127">
            -15 callsubr
            0 return
          </CharString>
          <CharString index="128">
            6 63 callsubr
            return
          </CharString>
          <CharString index="129">
            -1 24 callgsubr
            return
          </CharString>
          <CharString index="130">
            1 0 2 return
          </CharString>
          <CharString index="131">
            4 2 2 return
          </CharString>
          <CharString index="132">
            4 hvcurveto
            endchar
          </CharString>
          <CharString index="133">
            -56 34 callgsubr
            58 callsubr
            -1 10 return
          </CharString>
          <CharString index="134">
            5 2 2 return
          </CharString>
          <CharString index="135">
            -1 -1 0 return
          </CharString>
          <CharString index="136">
            rmoveto
            9 -4 3 -6 41 callgsubr
            -3 2 return
          </CharString>
          <CharString index="137">
            hhcurveto
            -5 -3 1 1 hvcurveto
            2 10 1 8 9 vvcurveto
            return
          </CharString>
          <CharString index="138">
            -3 6 -1 26 35 54 6 -3 7 -7 3 hvcurveto
            return
          </CharString>
          <CharString index="139">
            16 callgsubr
            1 return
          </CharString>
          <CharString index="140">
            2 -7 callgsubr
            return
          </CharString>
          <CharString index="141">
            78 callgsubr
            vhcurveto
            return
          </CharString>
          <CharString index="142">
            -26 callsubr
            1 return
          </CharString>
          <CharString index="143">
            vvcurveto
            -5 2 -2 return
          </CharString>
          <CharString index="144">
            -27 -16 -8 return
          </CharString>
          <CharString index="145">
            -4 -2 -3 return
          </CharString>
          <CharString index="146">
            6 9 7 13 5 hvcurveto
            12 30 5 6 4 return
          </CharString>
          <CharString index="147">
            4 4 vhcurveto
            55 callsubr
            7 25 callgsubr
          </CharString>
          <CharString index="148">
            -27 -21 329 -20 return
          </CharString>
          <CharString index="149">
            -8 20 41 return
          </CharString>
          <CharString index="150">
            1 2 1 return
          </CharString>
          <CharString index="151">
            1 1 0 return
          </CharString>
          <CharString index="152">
            vlineto
            -1 vlineto
            return
          </CharString>
          <CharString index="153">
            27 -29 54 return
          </CharString>
          <CharString index="154">
            9 -26 8 -12 -18 -32 -71 -5 -3 vhcurveto
            return
          </CharString>
          <CharString index="155">
            -89 -21 42 17 161 30 -30 201 return
          </CharString>
          <CharString index="156">
            51 73 callsubr
            return
          </CharString>
          <CharString index="157">
            -73 -46 -18 -18 rlinecurve
            42 return
          </CharString>
          <CharString index="158">
            15 -16 11 -15 return
          </CharString>
          <CharString index="159">
            rlineto
            -15 callsubr
            return
          </CharString>
          <CharString index="160">
            -3 2 -2 4 return
          </CharString>
          <CharString index="161">
            28 callsubr
            -2 return
          </CharString>
          <CharString index="162">
            5 5 4 return
          </CharString>
          <CharString index="163">
            -1 -2 0 return
          </CharString>
          <CharString index="164">
            2 -2 3 return
          </CharString>
          <CharString index="165">
            11 -1 11 return
          </CharString>
          <CharString index="166">
            19 17 15 16 rrcurveto
            -58 -120 -29 return
          </CharString>
          <CharString index="167">
            rmoveto
            1 45 callsubr
            -2 1 rlineto
            -15 return
          </CharString>
          <CharString index="168">
            52 102 rlineto
            26 51 13 34 14 vvcurveto
            return
          </CharString>
          <CharString index="169">
            hhcurveto
            25 115 7 6 hvcurveto
            endchar
          </CharString>
          <CharString index="170">
            14 6 hvcurveto
            return
          </CharString>
          <CharString index="171">
            4 1 vvcurveto
            return
          </CharString>
          <CharString index="172">
            1 -1 1 return
          </CharString>
          <CharString index="173">
            2 2 2 return
          </CharString>
          <CharString index="174">
            -2 -94 -72 -12 36 callsubr
            return
          </CharString>
          <CharString index="175">
            -7 25 -39 49 -69 vhcurveto
            -48 -61 return
          </CharString>
          <CharString index="176">
            397 -156 -21 194 34 return
          </CharString>
          <CharString index="177">
            50 35 32 26 29 hhcurveto
            endchar
          </CharString>
          <CharString index="178">
            vhcurveto
            43 callsubr
            2 vvcurveto
            endchar
          </CharString>
          <CharString index="179">
            hhcurveto
            4 3 2 3 hvcurveto
            endchar
          </CharString>
          <CharString index="180">
            vhcurveto
            16 -17 74 -47 return
          </CharString>
          <CharString index="181">
            36 55 36 2 -20 return
          </CharString>
          <CharString index="182">
            -26 callsubr
            2 return
          </CharString>
          <CharString index="183">
            2 2 1 2 return
          </CharString>
          <CharString index="184">
            -1 -1 rrcurveto
            return
          </CharString>
          <CharString index="185">
            7 9 hhcurveto
            return
          </CharString>
          <CharString index="186">
            -1 vvcurveto
            -3 return
          </CharString>
          <CharString index="187">
            1 6 3 return
          </CharString>
        <CharString name=".notdef">
          -87 endchar
        </CharString>
        <CharString name="A">
          -98 -21 91 22 115 39 333 -107 callsubr
          endchar
        </CharString>
        <CharString name="AE">
          663 -76 25 23 22 115 39 -13 -20 callgsubr
          hstemhm
          480 56 hintmask 11101110
          1012 23 callgsubr
          -12 4 -23 -18 -5 -24 -18 -6 vhcurveto
          5 -9 -16 3 -26 hhcurveto
          -75 -76 -28 -56 -75 hvcurveto
          23 40 15 24 8 10 rrcurveto
          -69 callsubr
          -38 -71 -33 -67 -28 -58 rrcurveto
          -5 -15 5 -6 hhcurveto
          -3 -1 81 callgsubr
          1 -5 3 -10 hvcurveto
          -46 -5 -34 -3 -21 -1 104 110 rcurveline
          -105 callsubr
          -5 -16 -3 -17 -16 vvcurveto
          -92 85 -73 96 97 114 43 87 88 vhcurveto
          5 -64 callsubr
          -4 -4 -6 -5 -9 -8 vhcurveto
          -77 -73 -83 -39 -92 hhcurveto
          -95 -66 63 87 hvcurveto
          hintmask 11011110
          11 2 12 2 13 vhcurveto
          89 -55 callgsubr
          -4 -2 -2 22 callsubr
          -19 -75 -90 -2 -138 hhcurveto
          155 72 142 117 146 hhcurveto
          9 9 -1 -1 6 hvcurveto
          -16 -85 callgsubr
          -3 7 5 vvcurveto
          33 79 108 4 vhcurveto
          -57 callgsubr
          endchar
        </CharString>
        <CharString name="Aacute">
          -52 callgsubr
          69 -21 106 -107 callsubr
          51 142 49 callgsubr
          -3 2 -3 4 4 109 66 4 5 5 callsubr
        </CharString>
        <CharString name="Acircumflex">
          -52 callgsubr
          74 -21 101 -107 callsubr
          65 63 16 callsubr
          27 -19 22 -25 callsubr
          74 -47 20 -2 rrcurveto
          endchar
        </CharString>
        <CharString name="Adieresis">
          -52 callgsubr
          91 -21 70 -107 callsubr
          51 139 60 callsubr
          -42 37 callsubr
          9 -13 7 51 callgsubr
          12 30 5 6 -38 callgsubr
          -43 37 callsubr
          73 callgsubr
          6 14 7 hvcurveto
          13 30 5 6 3 21 callgsubr
          endchar
        </CharString>
        <CharString name="Agrave">
          -52 callgsubr
          71 -21 111 -107 callsubr
          -23 61 rmoveto
          10 -125 90 -5 -8 -2 -4 -8 -17 -4 1 76 -45 vhcurveto
          -23 36 22 -11 4 hhcurveto
          3 callsubr
          25 callsubr
        </CharString>
        <CharString name="Aring">
          -48 callgsubr
          427 -20 hstem
          447 31 127 99 vstem
          717 461 rmoveto
          10 -13 6 -27 4 vhcurveto
          18 15 9 18 22 vvcurveto
          27 -10 12 -22 -35 -32 -50 -31 -20 10 -10 21 6 6 1 2 7 vhcurveto
          -79 -133 -38 -80 -43 -91 -107 callgsubr
          -30 74 rmoveto
          -28 -20 -28 -24 -7 -4 4 11 21 23 27 1 6 vhcurveto
          -8 3 rlineto
          6 9 7 3 6 hhcurveto
          12 5 -8 -17 hvcurveto
          endchar
        </CharString>
        <CharString name="Atilde">
          -52 callgsubr
          113 -21 46 -107 callsubr
          77 135 18 callgsubr
          -11 -10 -11 -5 -11 -30 callsubr
          33 67 callgsubr
        </CharString>
        <CharString name="B">
          258 -110 -21 67 36 485 21 hstem
          60 30 377 37 18 58 vstem
          580 380 rmoveto
          65 -67 33 -134 -102 -135 -25 -50 -125 vhcurveto
          -5 -2 -2 -4 -8 vvcurveto
          -16 6 -8 11 2 75 callsubr
          vhcurveto
          87 257 4 4 110 hhcurveto
          70 49 -26 -39 -80 -90 -65 -145 -39 hvcurveto
          -32 -5 rlineto
          -14 -4 -7 -7 -9 vvcurveto
          -8 4 -4 6 -1 vhcurveto
          7 17 20 4 26 hhcurveto
          76 84 -39 -48 -48 -91 -74 -123 -24 -19 5 10 -15 hvcurveto
          -6 2 rlineto
          54 callsubr
          -31 77 -20 53 100 87 59 81 69 -67 45 -102 8 hvcurveto
          135 33 110 78 71 vvcurveto
          -273 18 rmoveto
          9 -28 10 -17 -19 -35 -76 -3 -3 vhcurveto
          -97 -164 -48 -125 -86 vvcurveto
          -48 19 -42 23 24 callsubr
          3 -1 -25 callgsubr
          -3 -15 34 21 101 72 153 144 209 vhcurveto
          1 35 callsubr
          vvcurveto
          endchar
        </CharString>
        <CharString name="C">
          241 -76 25 543 -20 hstem
          24 49 vstem
          629 479 rmoveto
          -29 callgsubr
          -101 70 -61 104 -85 callsubr
          endchar
        </CharString>
        <CharString name="Ccedilla">
          285 -277 213 -12 25 543 -20 hstemhm
          24 49 62 27 12 31 hintmask 01111100
          205 -202 rmoveto
          23 -43 55 6 vvcurveto
          21 6 14 12 8 vhcurveto
          -1 6 6 0 6 hhcurveto
          -85 callsubr
          -29 callgsubr
          -87 51 -59 84 -13 hvcurveto
          -16 -12 -8 -22 -23 -18 39 -52 -11 66 callgsubr
          -15 -17 -5 vhcurveto
          -56 -7 rlineto
          -4 -3 -2 -2 -2 vvcurveto
          hintmask 10111100
          -5 2 -3 4 62 50 32 43 vhcurveto
          endchar
        </CharString>
        <CharString name="D">
          422 -87 -21 51 24 483 -87 callgsubr
          -369 129 rmoveto
          47 callsubr
          -94 -165 -46 -123 -82 -1 callsubr
          68 55 124 98 170 vhcurveto
          37 59 17 30 -1 vvcurveto
          endchar
        </CharString>
        <CharString name="DEL">
          -272 endchar
        </CharString>
        <CharString name="E">
          218 -76 25 186 40 272 24 34 -106 callsubr
          endchar
        </CharString>
        <CharString name="Eacute">
          -49 callsubr
          73 -21 106 -106 callsubr
          38 139 49 callgsubr
          42 callgsubr
          4 4 110 66 4 4 5 callsubr
        </CharString>
        <CharString name="Ecircumflex">
          -49 callsubr
          72 -21 101 -106 callsubr
          42 55 rmoveto
          -5 7 -42 32 -33 -34 callsubr
          -71 -12 vvcurveto
          -5 2 -3 5 5 29 22 42 51 vhcurveto
          16 -18 -14 callsubr
        </CharString>
        <CharString name="Edieresis">
          -49 callsubr
          72 -21 70 -106 callsubr
          7 113 60 callsubr
          -41 -26 -16 -9 8 -13 8 6 9 7 14 5 hvcurveto
          12 30 5 5 -38 callgsubr
          -42 -26 -16 -9 8 -13 7 7 6 7 14 7 hvcurveto
          13 30 5 5 3 21 callgsubr
          endchar
        </CharString>
        <CharString name="Egrave">
          -49 callsubr
          82 -21 112 -106 callsubr
          -17 65 rmoveto
          9 -60 callsubr
          -23 21 -9 3 19 callgsubr
          25 callsubr
        </CharString>
        <CharString name="Eth">
          422 -87 -21 51 24 369 36 2 -20 96 -87 callgsubr
          -438 -146 rmoveto
          3 vlineto
          -1 -15 -18 -1 -22 hhcurveto
          -28 hlineto
          36 82 116 202 -10 vvcurveto
          47 callsubr
          -47 -82 -36 -72 -23 -62 rrcurveto
          -54 -9 callsubr
          4 0 2 4 hvcurveto
          3 hlineto
          -15 -48 -7 -39 -33 -1 callsubr
          35 13 49 28 63 vhcurveto
          34 5 rlineto
          43 7 20 8 8 vvcurveto
          endchar
        </CharString>
        <CharString name="Euro">
          184 -36 41 -41 237 39 56 101 40 hstemhm
          41 22 hintmask 10111000
          467 102 rmoveto
          1 3 0 2 1 vvcurveto
          1 56 callsubr
          -3 hhcurveto
          -42 -47 -143 -62 -57 hhcurveto
          -106 -46 23 59 15 3 19 7 21 hvcurveto
          hintmask 01111000
          109 13 82 20 57 26 rrcurveto
          2 -43 callsubr
          vvcurveto
          2 -3 1 -3 vhcurveto
          56 callsubr
          -1 hhcurveto
          -203 -9 rlineto
          -10 -7 0 1 -1 hvcurveto
          13 23 10 14 5 5 161 13 0 4 103 43 rrcurveto
          2 1 56 callgsubr
          vvcurveto
          3 -5 0 -5 vhcurveto
          0 -112 -12 11 2 vhcurveto
          -111 hlineto
          -1 1 53 callgsubr
          56 55 88 43 60 hhcurveto
          35 19 -8 -17 hvcurveto
          -2 0 -1 -2 vvcurveto
          -19 callgsubr
          0 2 55 callsubr
          36 -31 27 -33 -87 -87 -49 -97 -87 vhcurveto
          -2 -2 -11 -1 -20 -3 -14 2 -3 hhcurveto
          -6 -2 -2 -5 -13 10 -13 20 -17 hvcurveto
          -11 -23 -6 -14 -3 -6 rrcurveto
          -11 -14 1 1 -16 hvcurveto
          3 -16 1 -12 -9 -3 0 -2 -2 vvcurveto
          -9 4 6 -4 6 hhcurveto
          20 callsubr
          4 2 -3 -4 -114 50 -57 98 107 92 46 92 79 vhcurveto
          endchar
        </CharString>
        <CharString name="F">
          204 -114 -21 270 40 326 -20 hstem
          465 43 vstem
          508 399 rmoveto
          67 -38 35 -76 -97 -270 -80 -74 -19 4 -9 10 2 56 callgsubr
          2 vhcurveto
          80 82 170 83 89 hhcurveto
          52 25 -23 -46 -30 -10 -39 -22 -48 hvcurveto
          -54 -110 rlineto
          -8 -73 -67 -5 -64 hhcurveto
          -44 -31 8 0 0 -26 callsubr
          -16 callgsubr
          -34 19 -11 25 61 117 28 -4 -13 hvcurveto
          15 2 21 5 27 5 rrcurveto
          -60 -120 -29 -82 -43 vvcurveto
          -26 9 -30 11 23 callsubr
          3 vhcurveto
          7 -5 21 9 vvcurveto
          57 38 87 76 122 vhcurveto
          51 10 31 3 8 vvcurveto
          4 -3 1 -6 -3 -10 -1 -3 -17 vhcurveto
          -35 -7 rlineto
          85 134 4 12 60 vvcurveto
          endchar
        </CharString>
        <CharString name="G">
          334 -246 195 -25 25 196 41 312 -20 hstemhm
          24 38 hintmask 01111000
          623 488 rmoveto
          6 -10 4 -18 -28 -19 -44 -9 -6 vhcurveto
          12 -26 -31 6 -38 hhcurveto
          -222 -201 -211 -166 -103 71 -59 103 98 95 49 97 92 hvcurveto
          -56 -139 -56 -93 -51 -45 rrcurveto
          -13 -10 -52 -14 -6 vvcurveto
          hintmask 10111000
          -6 6 -3 12 78 134 191 242 95 vhcurveto
          22 4 11 3 5 vvcurveto
          4 -3 1 -5 vhcurveto
          -57 callgsubr
          -1 -11 -1 -19 -3 vhcurveto
          7 -12 -10 6 -9 hhcurveto
          -5 -5 -7 -13 -4 hvcurveto
          -5 -50 -52 -1 -72 hhcurveto
          2 -36 -15 4 -8 hhcurveto
          -41 callgsubr
          -3 -27 18 -16 14 25 66 10 21 107 hvcurveto
          -10 -29 -3 -5 -10 -14 -21 -23 rlinecurve
          -103 -90 -83 -53 -78 hhcurveto
          -99 -67 55 89 154 204 201 186 29 28 -6 -13 25 hvcurveto
          -18 -37 -10 -38 -39 vvcurveto
          -20 4 -10 11 4 1 3 2 vhcurveto
          -3 3 2 21 70 80 2 3 rlinecurve
          3 2 0 3 1 vvcurveto
          2 -15 15 -17 11 vhcurveto
          23 26 32 26 5 vvcurveto
          -47 -87 rmoveto
          -22 -34 -17 -26 -14 -18 7 23 14 30 21 35 rrcurveto
          endchar
        </CharString>
        <CharString name="H">
          275 -132 -21 612 -20 hstem
          87 29 318 25 vstem
          661 413 rmoveto
          8 -24 9 -15 -17 -77 -126 -101 -51 vhcurveto
          -45 -7 -36 -4 -23 -1 -165 -8 rcurveline
          26 56 33 62 40 68 48 77 rcurveline
          8 -5 5 -25 -17 -9 -2 -5 -5 vhcurveto
          -61 -105 -36 -71 -41 -95 rrcurveto
          -3 -20 -41 0 -63 -5 -12 5 -2 hhcurveto
          -16 callgsubr
          -32 15 -15 46 18 22 2 2 29 hvcurveto
          -35 -91 -17 -72 -53 vvcurveto
          -46 11 -23 25 3 2 1 1 vhcurveto
          6 -12 10 32 vvcurveto
          52 24 80 49 108 vhcurveto
          111 118 27 12 50 hvcurveto
          -23 -48 -11 -41 -39 vvcurveto
          -40 21 -30 31 12 34 11 7 76 callgsubr
          vhcurveto
          -6 -19 -5 -9 hhcurveto
          -24 -12 15 30 67 48 95 102 136 hvcurveto
          34 47 17 24 1 1 rrcurveto
          endchar
        </CharString>
        <CharString name="I">
          79 -68 52 497 -104 callgsubr
          endchar
        </CharString>
        <CharString name="Iacute">
          17 callsubr
          87 -21 105 -104 callgsubr
          93 172 rmoveto
          9 -3 3 -7 41 callgsubr
          -3 3 -2 4 4 109 65 4 5 5 callsubr
        </CharString>
        <CharString name="Icircumflex">
          17 callsubr
          69 -21 102 -104 callgsubr
          87 72 rmoveto
          -5 7 -42 32 -32 28 -20 22 -30 callgsubr
          20 -3 rrcurveto
          endchar
        </CharString>
        <CharString name="Idieresis">
          17 callsubr
          90 -21 70 -104 callgsubr
          57 151 60 callsubr
          -42 20 callgsubr
          8 -29 callsubr
          -13 -43 20 callgsubr
          7 7 7 21 callsubr
          13 14 callsubr
          endchar
        </CharString>
        <CharString name="Igrave">
          17 callsubr
          79 -21 112 -104 callgsubr
          27 82 -46 callgsubr
        </CharString>
        <CharString name="J">
          364 -125 -21 618 -20 hstem
          97 22 532 46 vstem
          697 357 rmoveto
          76 -58 39 -114 -160 -356 -179 -100 -17 19 -31 17 3 23 callsubr
          23 callsubr
          -1 vhcurveto
          -16 10 -8 13 13 vvcurveto
          51 154 100 131 58 vhcurveto
          40 93 75 22 64 hhcurveto
          73 37 -26 -51 -117 -178 -216 -177 -121 hvcurveto
          -35 -51 -46 -19 -40 hhcurveto
          -26 -14 14 27 85 170 118 252 133 hvcurveto
          10 5 5 5 3 vvcurveto
          -26 callsubr
          -2 -1 -2 22 callsubr
          -90 -30 -91 -44 -90 -59 rrcurveto
          -120 -78 -59 -71 -65 vvcurveto
          -34 36 -21 44 168 352 305 192 vhcurveto
          endchar
        </CharString>
        <CharString name="K">
          183 -128 27 539 -20 hstem
          7 25 vstem
          -96 callsubr
          endchar
        </CharString>
        <CharString name="Kcommaaccent">
          183 -191 -21 84 27 2 -20 557 -20 hstemhm
          7 25 hintmask 11011000
          -96 callsubr
          -87 -522 rmoveto
          hintmask 10111000
          -12 callgsubr
          2 vhcurveto
          -2 1 0 3 36 25 63 callgsubr
        </CharString>
        <CharString name="L">
          196 -98 -21 121 28 498 -20 hstem
          382 32 vstem
          457 -39 rmoveto
          46 -49 23 -100 -61 -70 -8 -16 -77 vhcurveto
          27 111 98 196 102 146 rrcurveto
          22 16 15 13 11 hhcurveto
          9 4 -7 -13 -45 -45 -80 -111 -143 hvcurveto
          -37 -47 -18 -24 -3 vvcurveto
          0 1 -1 2 -1 vhcurveto
          10 34 48 4 2 hvcurveto
          106 124 88 130 45 vvcurveto
          24 -43 23 -30 -78 -171 -352 -176 -22 vhcurveto
          -68 -15 -1 1 -39 vvcurveto
          -8 3 -5 6 1 18 7 11 36 vhcurveto
          -46 2 14 -20 23 hhcurveto
          2 -15 callsubr
          hvcurveto
          9 -15 32 31 vvcurveto
          28 93 75 15 57 hhcurveto
          82 42 -16 -31 -18 -32 -35 3 3 hvcurveto
          -2 3 callgsubr
          vhcurveto
          27 17 54 67 callgsubr
        </CharString>
        <CharString name="M">
          422 -101 -21 603 -20 hstem
          21 31 359 43 85 41 vstem
          712 380 rmoveto
          5 -5 2 -10 -95 -63 -280 -82 -55 23 -42 38 39 30 39 76 19 vhcurveto
          1 3 0 3 2 vvcurveto
          4 -2 4 -2 -3 -3 -5 -8 -4 vhcurveto
          -70 -30 -23 -35 -16 hhcurveto
          -18 -8 26 52 102 47 101 83 153 hvcurveto
          2 -26 callsubr
          3 vvcurveto
          -71 -22 rmoveto
          2 -1 1 -2 -22 -74 -89 -6 -4 vhcurveto
          -80 -82 -59 -59 -38 -35 rrcurveto
          62 126 31 89 51 vvcurveto
          41 -17 20 -36 -73 -85 -68 -135 -97 vhcurveto
          35 70 74 121 34 56 rrcurveto
          12 -30 8 -13 -21 -38 -80 -5 -2 vhcurveto
          -109 -188 -55 -140 -95 vvcurveto
          -48 21 -42 20 4 28 callgsubr
          4 -6 5 -1 2 vhcurveto
          -5 15 -3 15 17 vvcurveto
          96 62 95 18 26 vhcurveto
          78 122 101 104 78 1 rrcurveto
          14 8 -8 -20 -35 -26 -69 -50 -101 hvcurveto
          -51 -101 -26 -50 1 -1 rrcurveto
          -10 11 -4 21 12 8 3 7 5 vhcurveto
          19 40 rlineto
          81 70 225 248 0 vvcurveto
          endchar
        </CharString>
        <CharString name="N">
          201 -73 -21 575 -95 callsubr
          endchar
        </CharString>
        <CharString name="Ntilde">
          201 -73 -21 575 -20 72 -21 45 -95 callsubr
          -4 112 18 callgsubr
          -10 -10 -11 -6 -11 12 callgsubr
          -5 35 callgsubr
          3 22 10 callgsubr
        </CharString>
        <CharString name="O">
          319 -75 26 501 -103 callgsubr
          endchar
        </CharString>
        <CharString name="OE">
          713 -75 24 -9 -21 216 -20 callgsubr
          hstemhm
          22 55 hintmask 01111100
          1038 23 callgsubr
          -11 -72 callgsubr
          -26 hhcurveto
          -102 -115 -61 -89 -84 hvcurveto
          4 9 1 10 10 vvcurveto
          -78 callgsubr
          vhcurveto
          hintmask 10111100
          -89 65 -66 88 136 113 48 95 90 vhcurveto
          -91 8 69 -53 97 hhcurveto
          -44 callgsubr
          hvcurveto
          6 27 callgsubr
          5 vvcurveto
          5 -2 3 -2 -5 -6 -5 -9 -9 vhcurveto
          -77 -72 -83 -39 -93 hhcurveto
          -95 -64 65 85 11 1 12 2 13 hvcurveto
          93 2 239 29 27 -5 callsubr
          -6 vhcurveto
          -21 -76 -93 -2 -143 hhcurveto
          141 51 172 131 140 hhcurveto
          9 9 -1 -1 5 hvcurveto
          -15 -85 callgsubr
          -3 7 5 vvcurveto
          33 79 108 3 vhcurveto
          -57 callgsubr
          -435 -150 -98 callsubr
          -28 -45 2 -11 -9 -24 rrcurveto
          1 -6 -17 5 -5 hhcurveto
          -16 callgsubr
          -7 12 -35 8 hvcurveto
          -9 -47 -8 -8 -27 -23 rrcurveto
          -73 -81 -85 -36 -86 -82 callgsubr
          79 51 80 callgsubr
          endchar
        </CharString>
        <CharString name="Oacute">
          -22 callsubr
          77 -21 106 -103 callgsubr
          35 240 rmoveto
          8 -3 4 -7 -6 -117 -88 -8 53 callsubr
          5 109 65 5 4 vhcurveto
          6 6 callgsubr
        </CharString>
        <CharString name="Ocircumflex">
          -22 callsubr
          75 -21 101 -103 callgsubr
          12 154 16 callsubr
          -46 callsubr
          4 6 28 21 42 52 -4 callsubr
        </CharString>
        <CharString name="Odieresis">
          -22 callsubr
          77 -21 70 -105 callgsubr
          78 54 -37 -57 -2 hvcurveto
          4 215 60 callsubr
          -42 -26 -17 -8 8 -13 8 39 callsubr
          -35 callsubr
          -43 -26 -17 -8 8 -13 7 7 7 7 13 6 hvcurveto
          13 30 5 6 4 21 callgsubr
          endchar
        </CharString>
        <CharString name="Ograve">
          -22 callsubr
          65 -21 112 -103 callgsubr
          -41 146 rmoveto
          8 -66 callgsubr
          67 callgsubr
        </CharString>
        <CharString name="Oslash">
          319 -113 -21 59 26 525 -20 hstem
          22 55 20 26 vstem
          627 350 rmoveto
          47 -29 31 -57 15 vhcurveto
          4 5 2 5 4 vvcurveto
          12 -15 7 -29 -4 -9 -8 -16 -15 vhcurveto
          -2 hlineto
          -200 -251 -186 -186 -67 28 -46 56 -27 hvcurveto
          -5 -15 -4 -13 -12 vvcurveto
          -19 6 -10 13 12 6 4 8 vhcurveto
          1 -11 7 12 vvcurveto
          8 2 8 6 12 vhcurveto
          -4 13 15 -2 16 hhcurveto
          128 89 34 97 65 callgsubr
          73 65 35 65 63 vvcurveto
          12 -1 12 -3 9 vhcurveto
          15 31 6 23 14 66 callgsubr
          rmoveto
          -12 -2 -11 -5 -13 vhcurveto
          -20 36 -36 26 -51 14 41 48 rcurveline
          47 -14 26 -36 -38 vvcurveto
          -36 -115 rmoveto
          -160 -17 -198 -116 -129 hhcurveto
          -30 -26 4 9 -18 hvcurveto
          93 128 96 119 133 150 55 -21 33 -34 7 -49 -94 callsubr
          -105 209 rmoveto
          -10 -11 -12 -15 -15 -18 rrcurveto
          -12 hlineto
          -63 callsubr
          rlineto
          -8 15 29 2 11 4 5 1 4 hhcurveto
          -108 -136 -143 -198 -35 -62 rrcurveto
          -32 25 -16 37 49 vvcurveto
          178 210 164 175 5 vhcurveto
          endchar
        </CharString>
        <CharString name="Otilde">
          -22 callsubr
          92 -21 46 -103 callgsubr
          17 203 rmoveto
          3 -3 -15 callgsubr
          -11 -9 -11 -5 -12 -7 callsubr
          -24 -34 -5 35 callgsubr
          3 21 15 callsubr
          19 33 25 callsubr
        </CharString>
        <CharString name="P">
          353 -82 -21 250 28 256 34 hstem
          158 30 480 21 vstem
          689 324 rmoveto
          89 -102 52 -169 -132 -124 -27 -55 -116 vhcurveto
          -27 -13 -14 -14 -15 vvcurveto
          -19 6 -9 10 1 3 0 2 2 vhcurveto
          89 65 126 38 160 13 rrcurveto
          -1 vlineto
          -140 -163 -104 -204 -116 vvcurveto
          -30 9 -15 19 3 36 callgsubr
          3 -2 6 3 vvcurveto
          50 56 140 42 59 vhcurveto
          -13 36 38 -7 36 hhcurveto
          128 165 84 93 hvcurveto
          -21 25 rmoveto
          -85 -200 -89 -122 -24 -17 2 4 -13 vhcurveto
          10 27 42 50 73 vhcurveto
          50 71 26 37 -1 vvcurveto
          4 -10 4 -16 10 vhcurveto
          165 84 -28 -54 hvcurveto
          endchar
        </CharString>
        <CharString name="Q">
          328 -229 43 -43 239 -92 39 -39 153 284 104 -24 24 hstemhm
          585 39 hintmask 01001010
          776 -166 rmoveto
          87 -75 89 -145 -7 -4 0 -2 4 98 -34 39 -23 vhcurveto
          49 -30 24 -32 -33 vvcurveto
          hintmask 10010110
          -31 -20 -15 -40 -83 -65 30 119 -166 vhcurveto
          135 71 108 133 102 vvcurveto
          95 -109 95 -101 -130 -134 -76 -100 -88 vhcurveto
          -21 -24 -9 -16 -6 vvcurveto
          -3 57 callsubr
          vhcurveto
          104 56 200 99 132 hhcurveto
          97 63 -48 -89 -113 -107 -132 -136 -62 hvcurveto
          54 -76 -58 26 -41 hhcurveto
          -21 -51 -15 -21 -19 callgsubr
          2 hvcurveto
          12 14 21 7 24 hhcurveto
          43 56 -23 -47 65 hvcurveto
          hintmask 10101010
          -16 -41 -38 -9 -37 hhcurveto
          -86 -44 36 73 102 202 187 102 18 13 -2 -4 7 hvcurveto
          12 -2 -16 6 -29 hhcurveto
          -155 -156 -144 -142 -97 68 -66 101 39 45 11 24 49 hvcurveto
          86 -66 54 -40 21 -13 rrcurveto
          -42 69 62 -21 54 hhcurveto
          46 23 21 42 hvcurveto
          endchar
        </CharString>
        <CharString name="R">
          311 -58 8 callsubr
          hintmask 00111000
          -67 callsubr
          hintmask 01011000
          -80 -191 -103 -139 -48 -3 14 26 -14 vhcurveto
          31 39 41 51 56 57 46 46 rcurveline
          -20 callsubr
          8 -17 8 -8 hvcurveto
          -3 -13 callgsubr
          hhcurveto
          -58 -28 -57 -56 -56 -84 rrcurveto
          8 -3 -5 4 -8 hhcurveto
          -17 -9 -7 -12 -6 5 -11 11 -20 hvcurveto
          -47 -81 -24 -72 -58 vvcurveto
          -39 8 -19 13 4 1 7 callgsubr
          -8 5 -4 9 11 vvcurveto
          43 27 69 53 90 vhcurveto
          -131 83 90 -96 48 hhcurveto
          37 27 32 36 9 -3 6 -7 5 hvcurveto
          -8 -42 rlineto
          hintmask 10011000
          -35 callgsubr
          endchar
        </CharString>
        <CharString name="Rcommaaccent">
          311 -179 2 callsubr
          49 8 callsubr
          hintmask 11001110
          -67 callsubr
          hintmask 11010110
          -80 -191 -103 -139 -48 -3 14 26 -14 vhcurveto
          31 39 41 51 56 57 46 46 rcurveline
          -20 callsubr
          8 -17 8 -8 hvcurveto
          -3 -13 callgsubr
          hhcurveto
          -58 -28 -57 -56 -56 -84 rrcurveto
          8 -3 -5 4 -8 hhcurveto
          -17 -9 -7 -12 -6 5 -11 11 -20 hvcurveto
          -47 -81 -24 -72 -58 vvcurveto
          -39 8 -19 13 4 1 7 callgsubr
          -8 5 -4 9 11 vvcurveto
          43 27 69 53 90 vhcurveto
          -131 83 90 -96 48 hhcurveto
          37 27 32 36 9 -3 6 -7 5 hvcurveto
          -8 -42 rlineto
          hintmask 11100110
          -35 callgsubr
          -416 -454 rmoveto
          -77 callgsubr
        </CharString>
        <CharString name="S">
          46 -56 45 503 -20 hstem
          89 24 143 31 vstem
          9 callgsubr
          -89 callgsubr
          endchar
        </CharString>
        <CharString name="Scaron">
          46 -56 45 406 -21 101 -20 37 -20 hstemhm
          89 24 143 31 hintmask 11101100
          9 callgsubr
          hintmask 11011100
          -89 callgsubr
          -16 186 rmoveto
          -3 6 -19 -3 -73 -46 -18 9 callsubr
          -71 10 -4 hvcurveto
          4 4 19 21 33 27 42 32 rlinecurve
          endchar
        </CharString>
        <CharString name="T">
          226 -64 -21 468 32 -32 142 -57 37 hstemhm
          230 26 418 30 hintmask 10101100
          704 422 rmoveto
          46 -77 57 -50 -9 -4 -1 -4 0 18 -8 36 -13 vhcurveto
          38 -12 18 -15 -18 vvcurveto
          hintmask 11011100
          -26 -30 -13 -59 -148 -258 67 20 -78 vhcurveto
          2 -11 -11 1 -9 hhcurveto
          -38 -20 -19 -39 -62 122 -62 77 17 7 3 7 3 -2 1 -5 hvcurveto
          -3 -11 -1 -5 hhcurveto
          -50 -128 58 53 14 14 7 26 hvcurveto
          62 1 77 -19 74 -15 169 -34 rcurveline
          64 -13 57 -3 50 -2 rrcurveto
          4 hlineto
          51 25 12 27 hvcurveto
          -209 -48 rmoveto
          11 -7 4 -16 -91 -151 -308 -93 -39 21 -28 36 8 67 19 18 1 34 callsubr
          0 -8 -4 -17 -10 vhcurveto
          -9 -18 -15 -5 -15 hhcurveto
          -19 -10 9 19 100 58 112 113 126 hvcurveto
          63 63 rlineto
          3 6 2 3 4 vvcurveto
          endchar
        </CharString>
        <CharString name="Thorn">
          61 callgsubr
          311 -14 callgsubr
          64 47 hintmask 1111110111111000
          -34 36 rmoveto
          -25 -65 -50 -141 -42 vvcurveto
          -25 23 -30 25 vhcurveto
          hintmask 1111111001111000
          9 27 10 10 -26 callsubr
          -2 hvcurveto
          1 callgsubr
          41 67 175 26 70 hvcurveto
          -9 14 15 -5 17 hhcurveto
          90 123 162 99 45 -23 23 -46 -27 -24 -8 -15 -22 hvcurveto
          6 -2 rlineto
          26 52 13 33 14 vvcurveto
          hintmask 1111110111111000
          -47 callsubr
          2 -1 26 callgsubr
          -6 1 vhcurveto
          223 262 rmoveto
          15 6 -11 -20 47 callgsubr
          hvcurveto
          62 callgsubr
          70 callsubr
        </CharString>
        <CharString name="U">
          109 -213 -21 695 -106 callgsubr
          endchar
        </CharString>
        <CharString name="Uacute">
          -2 callsubr
          22 -21 106 -106 callgsubr
          -104 95 rmoveto
          8 -3 4 -6 -7 -116 -88 -8 53 callsubr
          4 110 65 5 4 vhcurveto
          5 6 callgsubr
        </CharString>
        <CharString name="Ucircumflex">
          -2 callsubr
          24 -21 101 -106 callgsubr
          -96 13 16 callsubr
          28 -20 21 22 callgsubr
          -8 -2 -95 -71 -12 vvcurveto
          -6 3 -2 4 5 29 22 41 49 callsubr
          21 -2 rrcurveto
          endchar
        </CharString>
        <CharString name="Udieresis">
          -2 callsubr
          41 -21 71 -106 callgsubr
          -94 89 rmoveto
          2 vlineto
          -2 vlineto
          -2 2 rlineto
          -15 -42 -27 -16 -9 9 -13 7 7 8 7 63 callsubr
          11 70 callgsubr
          -91 hmoveto
          2 40 callgsubr
          73 callgsubr
          7 14 7 hvcurveto
          12 70 callgsubr
          endchar
        </CharString>
        <CharString name="Ugrave">
          -2 callsubr
          28 -21 112 -106 callgsubr
          -153 19 rmoveto
          8 -124 92 -6 -7 -3 -4 -8 -16 -8 2 80 -47 vhcurveto
          37 -23 22 -10 3 -1 rrcurveto
          3 callsubr
          25 callsubr
        </CharString>
        <CharString name="V">
          229 -48 -21 529 23 hstem
          305 37 vstem
          791 440 rmoveto
          28 -32 15 -35 -111 -129 -121 -299 -203 vhcurveto
          38 122 23 76 70 vvcurveto
          98 -34 48 -68 -63 -89 -81 -101 -58 vhcurveto
          -3 -5 -1 -5 -3 vvcurveto
          -2 65 callsubr
          13 31 51 8 4 vhcurveto
          65 56 76 57 43 hhcurveto
          36 18 -32 -62 hvcurveto
          -1 -68 -19 -104 -43 -135 -32 -102 rcurveline
          -10 24 -11 12 16 57 113 0 vhcurveto
          122 80 239 297 106 hhcurveto
          15 11 -5 -12 8 hvcurveto
          11 -18 rlineto
          56 callgsubr
          67 callgsubr
        </CharString>
        <CharString name="W">
          480 -104 25 538 -20 hstem
          11 29 444 42 160 39 vstem
          725 228 rmoveto
          92 -28 61 -48 -19 -9 -4 -6 -19 callgsubr
          2 -1 vhcurveto
          40 -13 22 -48 -80 vvcurveto
          -95 -50 -163 -65 -30 -15 64 129 29 -1 30 4 31 vhcurveto
          2 23 rlineto
          10 1 8 5 vvcurveto
          8 -4 4 -9 -10 -25 -21 -147 -135 vhcurveto
          -218 -202 -31 -3 -45 hhcurveto
          -22 -9 11 25 57 51 101 107 121 hvcurveto
          89 101 68 61 85 44 rrcurveto
          4 2 28 callgsubr
          vvcurveto
          8 -5 3 -13 -110 -306 -314 -162 -46 30 -41 41 70 72 56 183 152 vhcurveto
          61 73 40 46 19 19 rrcurveto
          -8 -59 -4 -52 -42 vvcurveto
          -113 26 -55 56 94 65 131 145 vhcurveto
          endchar
        </CharString>
        <CharString name="X">
          211 -88 -21 598 -20 hstem
          580 462 rmoveto
          12 -18 15 -10 -10 -94 -79 -161 -179 vhcurveto
          82 -34 -35 117 -18 hhcurveto
          -22 -10 -13 -25 -38 2 -19 3 -1 hvcurveto
          3 2 rlineto
          2 -1 1 2 vvcurveto
          15 5 11 5 vhcurveto
          -25 callgsubr
          1 vhcurveto
          30 -72 20 -54 13 -38 -47 -33 -163 -200 -17 -47 rrcurveto
          -4 -10 -2 -12 -13 vvcurveto
          -7 1 -3 2 2 3 4 8 5 vhcurveto
          64 100 79 91 94 82 rrcurveto
          -114 44 38 -99 51 hhcurveto
          51 37 41 62 6 -1 7 -3 8 hvcurveto
          -117 -43 -8 9 -12 hhcurveto
          -11 -41 46 72 -28 hvcurveto
          -41 109 rlineto
          64 56 235 200 -5 vvcurveto
          endchar
        </CharString>
        <CharString name="Y">
          15 callgsubr
          27 -102 callgsubr
          endchar
        </CharString>
        <CharString name="Yacute">
          15 callgsubr
          21 -21 27 -20 99 -102 callgsubr
          31 340 rmoveto
          9 -3 3 -7 41 callgsubr
          -4 3 -2 4 4 109 65 5 5 vhcurveto
          5 6 callgsubr
        </CharString>
        <CharString name="Ydieresis">
          15 callgsubr
          27 -20 59 -21 70 -102 callgsubr
          36 359 rmoveto
          2 vlineto
          -54 callgsubr
          -14 -42 -27 -15 -9 9 -14 7 7 8 8 12 5 hvcurveto
          13 30 4 6 4 27 callsubr
          rlinecurve
          -90 hmoveto
          2 45 callsubr
          -4 1 rlineto
          -15 -41 -29 -13 -9 9 -14 7 39 callsubr
          5 3 2 rlinecurve
          endchar
        </CharString>
        <CharString name="Z">
          69 callsubr
          356 39 hstem
          -62 callgsubr
          -91 callsubr
          endchar
        </CharString>
        <CharString name="Zcaron">
          69 callsubr
          324 -21 53 39 10 -20 hstemhm
          hintmask 11101000
          -62 callgsubr
          hintmask 11110000
          -91 callsubr
          -138 644 rmoveto
          -2 5 -20 -2 -72 -46 -19 9 callsubr
          -72 10 -3 hvcurveto
          4 3 20 22 32 26 43 33 rlinecurve
          endchar
        </CharString>
        <CharString name="_0141">
          -272 endchar
        </CharString>
        <CharString name="a">
          10 -22 -21 292 24 -45 callsubr
          hintmask 11100000
          312 220 64 callgsubr
          20 -47 vhcurveto
          -10 hlineto
          -76 -131 -176 -76 -71 callgsubr
          hvcurveto
          19 27 8 13 1 vvcurveto
          hintmask 11010000
          -103 callsubr
          endchar
        </CharString>
        <CharString name="aacute">
          -21 callsubr
          65 -21 105 -101 callsubr
          37 191 rmoveto
          8 -3 3 -6 -7 -117 -87 -7 42 callgsubr
          5 5 106 64 6 6 vhcurveto
          6 6 callgsubr
        </CharString>
        <CharString name="acircumflex">
          -21 callsubr
          43 -21 102 -101 callsubr
          41 86 rmoveto
          -3 7 -43 33 -32 27 -19 22 rlinecurve
          -5 2 rlineto
          -9 -2 -93 -73 -11 36 callsubr
          3 6 29 21 42 52 vhcurveto
          16 -16 73 -48 20 -3 rrcurveto
          endchar
        </CharString>
        <CharString name="acute">
          -105 178 -21 106 -20 hstem
          162 251 29 callsubr
          -3 4 5 109 66 40 callsubr
        </CharString>
        <CharString name="adieresis">
          -21 callsubr
          48 -21 70 -101 callsubr
          30 149 rmoveto
          -67 callgsubr
          -15 -42 -29 -14 -8 10 -13 7 -29 callsubr
          -15 -41 20 callgsubr
          8 6 9 6 14 5 hvcurveto
          12 30 5 5 3 5 3 3 rlinecurve
          endchar
        </CharString>
        <CharString name="ae">
          202 -25 -21 154 165 -24 24 hstemhm
          6 241 -46 46 169 29 hintmask 11010100
          465 120 rmoveto
          3 -1 2 -3 vhcurveto
          0 -79 -84 -27 -22 vhcurveto
          -25 -30 -25 -12 -23 hhcurveto
          -20 -10 12 27 59 57 92 64 52 -32 callgsubr
          8 hhcurveto
          6 3 -4 -8 -54 -38 -40 -77 -24 hvcurveto
          -2 -3 -3 -1 79 callsubr
          4 -1 7 57 81 59 53 30 -31 23 -31 -18 -25 -13 -28 -31 vhcurveto
          -2 4 rlineto
          25 -14 -28 12 -42 hhcurveto
          -95 callgsubr
          hintmask 10101100
          -10 -34 -4 -30 -23 vvcurveto
          -45 19 -35 38 vhcurveto
          1 hlineto
          -2 10 10 -2 13 hhcurveto
          45 57 51 102 69 hvcurveto
          2 2 0 3 3 vvcurveto
          -169 99 rmoveto
          -8 -8 -9 -10 -7 -10 rrcurveto
          5 -10 -6 3 -5 hhcurveto
          -48 callsubr
          hvcurveto
          -90 callsubr
          21 15 -10 -20 9 hvcurveto
          endchar
        </CharString>
        <CharString name="agrave">
          -21 callsubr
          64 -21 112 -101 callsubr
          6 107 rmoveto
          11 -124 90 -7 -7 -3 -5 -8 -16 -6 2 78 -47 vhcurveto
          37 -23 21 -9 4 19 callgsubr
          25 callsubr
        </CharString>
        <CharString name="ampersand">
          173 -21 196 -196 256 200 -20 hstemhm
          17 30 111 214 -17 115 hintmask 01111000
          475 419 rmoveto
          11 -5 5 -13 -13 -21 -17 -34 -31 vhcurveto
          -126 -108 -70 -42 -12 7 -7 15 -4 hvcurveto
          28 -4 rlineto
          -110 -23 -81 -70 -78 vvcurveto
          -45 25 -52 71 -7 vhcurveto
          -53 30 37 -25 41 hhcurveto
          15 23 7 9 hvcurveto
          -1 1 -2 0 0 vvcurveto
          -3 -6 -6 -1 -8 hhcurveto
          -39 -44 31 30 -22 hvcurveto
          8 17 -2 1 hhcurveto
          108 107 62 81 29 -15 23 -31 18 hvcurveto
          77 36 rlineto
          hintmask 10110100
          45 23 22 24 22 vvcurveto
          16 -8 8 -17 vhcurveto
          0 -6 -1 -5 -2 11 0 -5 vvcurveto
          -11 -98 -82 -51 -13 vhcurveto
          1 -10 -10 1 -9 hhcurveto
          -78 -44 -39 -25 -5 1 -3 1 -1 hvcurveto
          23 6 60 36 41 hhcurveto
          7 4 -2 -2 1 hvcurveto
          -81 -46 -89 -41 -66 vvcurveto
          -11 1 -10 4 -12 vhcurveto
          -40 15 -19 24 37 vvcurveto
          hintmask 01110100
          85 128 89 101 vhcurveto
          0 5 0 8 -1 vhcurveto
          13 hlineto
          2 7 -2 4 hhcurveto
          3 2 4 7 11 -11 7 -21 hvcurveto
          -64 -7 rlineto
          -5 -3 -1 -3 hhcurveto
          -16 -8 5 8 14 75 89 122 7 hvcurveto
          -20 -26 -11 -23 -19 vvcurveto
          -18 6 -11 10 -2 vhcurveto
          5 24 -8 5 81 82 19 18 6 12 1 1 rrcurveto
          -129 -293 rmoveto
          -72 -110 -75 -89 -10 -9 1 2 -7 vhcurveto
          7 vlineto
          48 151 131 31 19 24 -23 -19 vhcurveto
          endchar
        </CharString>
        <CharString name="apple">
          178 50 161 -138 138 -138 154 -20 78 -62 62 -62 104 -104 121 -20 111 hstemhm
          19 154 -71 71 -71 85 -13 39 -14 35 -19 42 -3 22 6 23 2 23 -8 42 -78 callsubr
          317 50 rmoveto
          32 63 69 63 20 hvcurveto
          hintmask 000100011001010101000000
          -45 18 -23 33 52 vvcurveto
          44 19 32 36 21 vhcurveto
          35 -21 -31 18 -40 -28 -17 -23 -51 -26 -33 22 -30 hhcurveto
          -63 -60 -57 -102 hvcurveto
          -78 callsubr
          -107 75 -118 55 vhcurveto
          hintmask 010010011001010110000000
          31 13 23 39 hhcurveto
          -78 callsubr
          37 15 -23 33 hhcurveto
          -82 377 rmoveto
          51 44 52 56 12 1 4 -10 -47 -42 -72 -34 -7 1 -6 2 -5 hvcurveto
          -130 -96 rmoveto
          -4 hlineto
          -5 3 -2 55 callsubr
          2 4 4 -2 1 -4 1 vhcurveto
          -4 hlineto
          -2 23 callsubr
          0 vvcurveto
          2 0 0 2 3 1 0 -2 1 vhcurveto
          4 hlineto
          hintmask 100000100101010110000000
          3 -1 -3 2 -4 hhcurveto
          -5 -2 -2 -3 53 callsubr
          hvcurveto
          2 -1 rlineto
          2 -2 1 0 -1 vvcurveto
          -6 callgsubr
          -16 callgsubr
          -2 -1 1 3 -1 vhcurveto
          28 hmoveto
          5 -2 3 -5 -5 -2 11 callgsubr
          2 -2 5 3 3 2 2 1 vhcurveto
          -5 hlineto
          -6 callgsubr
          0 -13 callgsubr
          -3 0 1 3 -1 vhcurveto
          4 5 rmoveto
          -3 0 0 -2 hvcurveto
          5 hlineto
          2 0 0 -2 vhcurveto
          23 -5 rmoveto
          6 -2 2 -5 56 callsubr
          -2 -1 vhcurveto
          2 -3 -20 4 7 vlineto
          -78 callsubr
          -1 2 -1 1 27 callsubr
          5 vhcurveto
          -5 hmoveto
          4 0 1 -3 -2 22 callsubr
          -6 callgsubr
          -3 1 -1 2 43 callgsubr
          3 vhcurveto
          6 5 rmoveto
          2 -9 -42 callgsubr
          -2 1 -1 3 vhcurveto
          -6 callgsubr
          1 3 rlineto
          -1 hlineto
          0 -1 1 0 vhcurveto
          8 2 3 -2 4 -3 -4 -2 vlineto
          23 -8 rmoveto
          5 -2 3 -5 -4 -3 11 callgsubr
          3 -2 5 3 66 callsubr
          1 vhcurveto
          -4 hlineto
          -6 callgsubr
          0 -13 callgsubr
          -2 -2 1 3 vhcurveto
          3 5 rmoveto
          54 callsubr
          -1 hvcurveto
          6 hlineto
          2 -1 0 -2 vhcurveto
          30 -2 rmoveto
          4 34 callsubr
          hintmask 100010010010101110000000
          -3 -2 0 -2 hvcurveto
          2 54 callsubr
          hhcurveto
          -48 callsubr
          hvcurveto
          2 vlineto
          -78 callsubr
          -5 -14 5 9 hlineto
          2 1 0 3 vhcurveto
          -11 vlineto
          hintmask 100010010010101110000000
          4 9 hlineto
          2 0 0 5 vhcurveto
          -11 4 vlineto
          -78 callsubr
          17 6 rmoveto
          6 79 callgsubr
          -3 -2 0 -2 -1 vhcurveto
          6 vlineto
          hintmask 100010011000101110000000
          -3 -18 hlineto
          3 1 rlineto
          -1 1 2 -1 3 hhcurveto
          -6 callgsubr
          3 2 2 5 hvcurveto
          -8 -4 rmoveto
          3 58 callgsubr
          4 78 callgsubr
          -2 -1 -1 -4 -3 1 -1 2 hvcurveto
          23 4 rmoveto
          2 0 0 1 -5 callsubr
          -5 -4 -2 11 callgsubr
          2 -2 4 5 66 callsubr
          vhcurveto
          -3 hlineto
          hintmask 100001001000101110000000
          -13 callgsubr
          -2 hhcurveto
          -2 -1 1 3 hvcurveto
          3 5 rmoveto
          -2 -1 0 -2 hvcurveto
          7 hlineto
          2 -1 0 -3 vhcurveto
          18 3 rmoveto
          -3 -1 0 -3 -1 hvcurveto
          3 -4 -14 4 6 vlineto
          3 1 2 3 vhcurveto
          1 hlineto
          -57 callgsubr
          9 2 rmoveto
          6 -13 -42 callgsubr
          3 18 hlineto
          hintmask 100010011001001110000000
          -3 hlineto
          -13 callgsubr
          -2 vhcurveto
          -3 hlineto
          24 -2 rmoveto
          3 2 rlineto
          1 -2 1 -4 -5 -2 -3 -6 -7 2 -3 5 27 callsubr
          5 4 -2 2 -4 -1 -3 -1 0 3 1 76 callsubr
          0 -2 vhcurveto
          -6 -8 rmoveto
          -6 callgsubr
          -3 0 -1 3 43 callgsubr
          3 3 0 0 -3 -3 0 0 -3 vhcurveto
          12 -9 rmoveto
          -13 callsubr
          2 hvcurveto
          -2 3 4 -3 hlineto
          -41 callgsubr
          -3 vhcurveto
          24 17 rmoveto
          -3 -10 -4 -6 vvcurveto
          13 3 -9 hlineto
          35 callsubr
          3 hvcurveto
          2 1 rlineto
          2 3 28 callgsubr
          -5 callsubr
          -3 -5 -2 -2 -4 -1 vhcurveto
          4 hlineto
          56 callgsubr
          4 1 1 -1 -2 vhcurveto
          18 -4 rmoveto
          7 79 callgsubr
          -6 -2 -2 -7 vhcurveto
          -78 callsubr
          -7 2 -3 6 -41 callsubr
          24 hmoveto
          7 79 callgsubr
          vhcurveto
          hintmask 100010011001010101000000
          -5 -3 -2 -7 hvcurveto
          -78 callsubr
          -7 3 -3 5 -41 callsubr
          17 9 rmoveto
          -3 -3 -2 -4 -3 2 -3 3 4 0 0 2 1 hvcurveto
          -5 -1 -1 -3 28 callsubr
          2 vhcurveto
          -4 hlineto
          -17 callsubr
          -3 1 57 callsubr
          hhcurveto
          5 2 4 7 6 -2 2 -5 hvcurveto
          -9 vmoveto
          3 1 28 callgsubr
          -1 2 -3 -13 callgsubr
          -2 38 callgsubr
          1 hvcurveto
          -174 -55 rmoveto
          5 -13 4 19 -4 hlineto
          -2 -13 callgsubr
          vhcurveto
          -3 hlineto
          24 -3 rmoveto
          -3 -10 75 callgsubr
          3 hlineto
          hintmask 000100010010101110000000
          -9 hlineto
          75 callsubr
          2 hvcurveto
          3 1 rlineto
          76 callsubr
          2 vvcurveto
          3 -2 3 -5 -3 -2 -3 -4 -1 vhcurveto
          4 hlineto
          56 callgsubr
          2 3 1 -1 -2 vhcurveto
          7 1 rmoveto
          -4 4 4 vlineto
          -4 -11 rmoveto
          -3 4 3 vlineto
          4 10 rmoveto
          hintmask 000100011001001110000000
          5 -13 3 19 -3 hlineto
          -2 0 -1 -2 vhcurveto
          -3 hlineto
          27 -7 rmoveto
          7 -2 3 -4 38 callsubr
          -7 -7 2 -3 4 3 callsubr
          7 vhcurveto
          -9 hmoveto
          -5 1 -2 2 13 callsubr
          -2 52 callgsubr
          28 -2 rmoveto
          27 callsubr
          4 3 -2 3 -5 hvcurveto
          -8 -19 4 7 hlineto
          6 6 74 callgsubr
          vhcurveto
          -4 -6 4 hlineto
          2 0 1 2 hvcurveto
          20 6 rmoveto
          -3 -16 -3 16 rlineto
          -7 -19 4 16 hlineto
          5 -16 rlineto
          3 hlineto
          4 16 rlineto
          -3 vlineto
          -13 3 19 vlineto
          -179 -65 rmoveto
          -3 -10 75 callgsubr
          -42 callgsubr
          4 -8 vlineto
          1 0 0 3 1 vhcurveto
          2 1 rlineto
          2 2 1 -9 callgsubr
          -4 -5 -1 -3 -5 -1 vhcurveto
          4 32 callsubr
          2 3 1 1 -1 -2 vhcurveto
          -59 callgsubr
          6 7 rmoveto
          -17 callsubr
          -20 14 vlineto
          -78 callsubr
          4 -10 vlineto
          -59 callgsubr
          16 vlineto
          15 -14 rmoveto
          -4 hlineto
          -5 1 2 -2 5 hhcurveto
          24 callsubr
          6 -4 callgsubr
          hvcurveto
          -1 hlineto
          -2 0 0 -1 hhcurveto
          -78 callsubr
          1 4 rlineto
          8 hlineto
          -59 callgsubr
          4 -11 vlineto
          -1 -11 rlineto
          3 hlineto
          -25 callgsubr
          1 vhcurveto
          3 hlineto
          2 0 0 -2 -2 0 -3 -2 -3 -1 2 2 hvcurveto
          21 7 29 callgsubr
          hintmask 100010011001010110000000
          4 -9 vlineto
          1 56 callgsubr
          1 vhcurveto
          1 1 rlineto
          3 2 1 -9 callgsubr
          -4 -5 -2 -3 -5 vhcurveto
          4 16 callgsubr
          0 2 3 2 0 -1 -2 vhcurveto
          19 3 rmoveto
          -59 callgsubr
          4 -14 -5 11 vlineto
          -17 callsubr
          -6 -3 -2 -5 -7 vvcurveto
          5 -42 callgsubr
          7 2 5 4 4 vhcurveto
          3 -3 rmoveto
          4 hlineto
          -17 callsubr
          -13 5 -24 callsubr
          -2 -3 54 callgsubr
          rrcurveto
          -2 hlineto
          -59 callgsubr
          21 4 rmoveto
          -5 -2 -3 -5 -3 57 callsubr
          3 35 callsubr
          hvcurveto
          -41 callgsubr
          -3 -1 hhcurveto
          -78 callsubr
          -2 -1 0 2 hvcurveto
          -4 1 rlineto
          -4 57 callsubr
          6 2 5 6 vhcurveto
          -59 callgsubr
          6 -2 4 -4 vhcurveto
          -11 vmoveto
          1 28 callgsubr
          hvcurveto
          -78 callsubr
          2 -19 callgsubr
          -41 callgsubr
          -2 38 callgsubr
          3 vhcurveto
          21 7 rmoveto
          -59 callgsubr
          4 -13 -5 9 vlineto
          -17 callsubr
          -4 -3 -3 -5 -7 vvcurveto
          3 -42 callgsubr
          7 3 55 callsubr
          vhcurveto
          5 -9 rmoveto
          -3 hlineto
          -6 57 callsubr
          6 2 2 5 3 -1 -15 callgsubr
          1 1 1 10 callsubr
          -2 3 -5 -3 -2 -3 -4 vhcurveto
          3 32 callsubr
          58 callgsubr
          0 -1 56 callsubr
          0 -4 -1 vhcurveto
          -2 vlineto
          4 1 -1 -16 callgsubr
          -41 callgsubr
          3 2 hvcurveto
          21 6 29 callgsubr
          hintmask 100010011000101110000000
          4 -9 vlineto
          44 callsubr
          3 1 vhcurveto
          1 1 rlineto
          2 2 2 -9 callgsubr
          -6 -3 -2 -3 -5 vhcurveto
          3 32 callsubr
          2 2 3 0 -1 -2 vhcurveto
          5 -7 rmoveto
          2 1 43 callsubr
          vhcurveto
          -1 1 -1 10 callsubr
          2 3 4 4 2 -3 -3 -52 callsubr
          2 -19 callgsubr
          -2 vvcurveto
          -5 -2 -2 -5 -5 -2 2 5 vhcurveto
          4 hmoveto
          38 callgsubr
          2 vhcurveto
          hintmask 100010011001001110000000
          3 0 66 callsubr
          0 1 -3 -2 -1 -1 -2 hvcurveto
          8 vmoveto
          -2 23 callsubr
          2 23 callsubr
          1 -1 1 -6 callsubr
          -1 vhcurveto
          13 -1 rmoveto
          4 hlineto
          -17 callsubr
          -13 4 -24 callsubr
          -1 -3 54 callgsubr
          rrcurveto
          -2 hlineto
          27 -7 rmoveto
          -59 callgsubr
          7 -2 4 -5 -5 -2 -4 -7 -7 2 -3 5 30 callgsubr
          0 3 4 vhcurveto
          -78 callsubr
          5 0 2 -3 -2 52 callgsubr
          25 hmoveto
          -59 callgsubr
          7 -2 4 -5 -4 -3 -4 -7 -7 3 -3 4 30 callgsubr
          1 3 4 vhcurveto
          -78 callsubr
          5 -1 2 -3 -2 52 callgsubr
          15 -2 rmoveto
          -3 hlineto
          -6 2 -2 4 24 callsubr
          5 3 -5 callgsubr
          2 1 0 10 callsubr
          -2 3 -4 38 callsubr
          -4 vhcurveto
          3 32 callsubr
          1 28 callgsubr
          -1 -1 -2 -2 0 -3 -1 vhcurveto
          -2 vlineto
          3 2 -1 -2 -2 -16 callgsubr
          -1 3 2 hvcurveto
          12 6 rmoveto
          5 hlineto
          -17 callsubr
          -13 3 -24 callsubr
          -3 0 0 -2 -1 vhcurveto
          -3 hlineto
          -59 callgsubr
          18 4 rmoveto
          -4 hlineto
          -17 callsubr
          6 -20 rlineto
          3 hlineto
          4 15 3 -15 rlineto
          3 hlineto
          -59 callgsubr
          5 20 rlineto
          -4 hlineto
          -3 -14 -3 14 rlineto
          -3 hlineto
          -4 -14 -1 3 rlineto
          endchar
        </CharString>
        <CharString name="aring">
          -21 callsubr
          -10 110 -45 callsubr
          -25 100 hintmask 11010000
          -97 callgsubr
          hintmask 11001000
          -103 callsubr
          hintmask 10100100
          6 114 rmoveto
          26 -11 13 -21 -25 -43 -36 -45 -19 10 -10 20 36 34 35 36 vhcurveto
          -18 -1 rmoveto
          -25 -19 -30 -24 -8 -3 4 11 21 23 26 1 5 vhcurveto
          -9 5 rlineto
          6 10 7 3 6 hhcurveto
          10 6 -8 -18 hvcurveto
          endchar
        </CharString>
        <CharString name="asciicircum">
          -68 callgsubr
        </CharString>
        <CharString name="asciitilde">
          -44 288 -21 45 -20 21 -20 hstemhm
          hintmask 10100000
          202 310 rmoveto
          2 34 callsubr
          -12 -9 -9 -5 -13 hhcurveto
          hintmask 11000000
          -14 -45 16 -13 hhcurveto
          -34 -25 -32 -5 35 callgsubr
          4 21 19 16 14 46 -20 14 hhcurveto
          31 19 33 67 callgsubr
        </CharString>
        <CharString name="asterisk">
          -7 153 -21 212 -20 hstem
          245 242 rmoveto
          3 -6 2 -12 vhcurveto
          -60 hlineto
          37 26 19 17 9 vvcurveto
          2 -3 2 -2 -2 -22 -14 -29 -42 vhcurveto
          6 33 4 20 10 vvcurveto
          15 -3 6 -4 -3 -3 -8 -17 -5 vhcurveto
          -12 -56 -39 48 rlineto
          7 -5 -6 3 -4 hhcurveto
          -4 -1 -6 0 -8 13 -22 27 -36 hvcurveto
          -66 -2 rlineto
          -12 -1 -6 -3 -6 vvcurveto
          -6 27 -3 52 vhcurveto
          -50 -37 rlineto
          -6 -4 -3 -4 -6 vvcurveto
          -3 2 -1 4 6 21 13 28 38 vhcurveto
          -7 -39 -4 -20 -2 vvcurveto
          -11 2 -4 5 7 11 24 50 10 vhcurveto
          -39 35 21 -18 8 hhcurveto
          76 callsubr
          4 -17 24 -32 41 hvcurveto
          55 2 27 4 9 vvcurveto
          endchar
        </CharString>
        <CharString name="at">
          363 8 -21 408 22 -22 117 hstemhm
          11 40 77 238 -43 43 hintmask 10111000
          618 412 rmoveto
          61 -57 39 -96 -200 -254 -186 -196 -94 64 -44 100 179 251 141 171 7 -7 35 1 -3 vhcurveto
          0 3 9 7 16 vhcurveto
          6 17 3 15 12 vvcurveto
          -22 -9 rmoveto
          -11 -2 -10 -4 -11 vhcurveto
          -2 -2 rlineto
          -1 -10 14 -5 hhcurveto
          -7 -9 -22 -31 hvcurveto
          -4 1 -4 -3 vvcurveto
          -77 -112 rlineto
          -54 -37 -32 -26 -19 hhcurveto
          -18 -8 14 29 41 15 52 31 56 hvcurveto
          11 -30 13 -9 -2 -1 0 -1 vhcurveto
          -105 -76 -79 -97 -35 hhcurveto
          -7 -3 6 12 57 122 180 82 57 callgsubr
          -25 10 hvcurveto
          -1 1 65 callsubr
          hhcurveto
          7 2 4 7 hvcurveto
          hintmask 11011000
          34 -43 17 -45 vhcurveto
          -10 hlineto
          -77 -131 -175 -75 -27 25 -32 28 31 45 42 84 54 hvcurveto
          17 27 8 14 2 1 rrcurveto
          hintmask 11010100
          -10 -34 -5 -30 -24 vvcurveto
          -46 22 -33 35 48 57 61 115 71 vhcurveto
          1 2 0 -2 -44 -48 -62 -56 -50 hvcurveto
          -79 -89 -95 -40 -101 hhcurveto
          -79 -40 35 70 177 222 207 192 81 50 80 callgsubr
          endchar
        </CharString>
        <CharString name="atilde">
          -21 callsubr
          60 -21 44 -20 21 -20 -45 callsubr
          hintmask 11101100
          -97 callgsubr
          hintmask 11101010
          -103 callsubr
          25 134 rmoveto
          2 34 callsubr
          -11 -8 -10 -5 -13 hhcurveto
          hintmask 11110100
          -14 -44 15 -14 hhcurveto
          -34 -25 -31 -6 hvcurveto
          1 -3 rlineto
          3 22 20 16 15 46 -21 13 hhcurveto
          30 20 36 3 hvcurveto
          endchar
        </CharString>
        <CharString name="b">
          24 -64 34 274 250 -21 21 hstemhm
          41 22 122 56 4 47 hintmask 10111100
          292 197 rmoveto
          45 -23 22 -46 -27 -24 -7 -15 -22 vhcurveto
          61 callsubr
          -65 callsubr
          -8 -28 -15 -41 hvcurveto
          -73 -168 rlineto
          -33 -76 -15 -58 -33 vvcurveto
          -21 7 -25 16 3 3 7 callgsubr
          1 -7 14 9 vvcurveto
          hintmask 11011100
          64 101 162 60 15 6 -11 -20 -103 -94 -140 -91 -18 -21 7 16 -22 vhcurveto
          -1 54 callsubr
          vvcurveto
          -2 76 callgsubr
          vhcurveto
          -32 20 28 -17 32 hhcurveto
          90 123 161 100 hvcurveto
          endchar
        </CharString>
        <CharString name="backslash">
          143 -99 -21 632 -20 hstem
          394 -90 rmoveto
          97 -108 205 -163 205 vhcurveto
          85 -64 -11 10 -30 hhcurveto
          -6 -3 -2 -3 -2 hvcurveto
          211 -216 158 -257 -142 vvcurveto
          -2 0 -3 -2 -2 vhcurveto
          13 7 9 16 hvcurveto
          endchar
        </CharString>
        <CharString name="bar">
          -107 -88 -21 554 -20 hstem
          90 29 vstem
          119 380 rmoveto
          42 -10 23 -20 -9 -4 -2 -6 1 -25 callgsubr
          vhcurveto
          0 14 -31 -102 vvcurveto
          -97 -8 -97 -17 -93 vhcurveto
          -9 -51 -12 -40 -5 -30 1 -1 rcurveline
          23 4 14 41 21 192 rrcurveto
          14 120 7 83 44 vvcurveto
          endchar
        </CharString>
        <CharString name="braceleft">
          -29 -103 -21 580 -20 hstemhm
          60 49 -21 46 hintmask 11010000
          303 448 rmoveto
          5 -2 -2 3 -5 hhcurveto
          -134 -23 -76 -111 -13 hvcurveto
          -12 -61 -23 -21 -74 -6 -9 -13 rcurveline
          54 28 -21 -39 hvcurveto
          hintmask 11100000
          -30 -28 -101 -30 vvcurveto
          -44 37 -22 75 2 6 1 3 6 vhcurveto
          -6 7 -51 8 rlineto
          -13 7 -7 14 23 vvcurveto
          hintmask 11010000
          30 25 101 30 vvcurveto
          28 -23 23 -46 17 vhcurveto
          105 25 9 100 19 88 rrcurveto
          40 15 31 19 49 hhcurveto
          endchar
        </CharString>
        <CharString name="braceright">
          48 -97 -21 579 -20 hstemhm
          193 47 -22 48 hintmask 11100000
          320 174 rmoveto
          -54 1 -26 19 40 vvcurveto
          hintmask 11010000
          30 26 101 30 vvcurveto
          45 -37 21 -75 -2 -5 -1 -3 -7 vhcurveto
          7 -7 50 -8 rlineto
          14 -7 7 -14 -23 vvcurveto
          hintmask 11100000
          -30 -25 -101 -29 vvcurveto
          -30 22 -22 46 -16 vhcurveto
          -105 -26 -9 -101 -19 -87 rrcurveto
          -39 -15 -31 -19 -49 hhcurveto
          -9 -4 rlineto
          -4 2 3 -3 3 hhcurveto
          135 22 74 113 13 hvcurveto
          12 59 20 20 78 9 rrcurveto
          endchar
        </CharString>
        <CharString name="bracketleft">
          169 -24 -21 536 23 hstem
          6 59 vstem
          432 498 rmoveto
          11 -25 5 -52 -40 -28 -5 -10 -14 vhcurveto
          -48 -34 -58 -79 -64 -124 rrcurveto
          -64 -123 -33 -93 -59 vvcurveto
          -18 43 -9 84 46 23 4 7 6 -7 2 -15 vhcurveto
          -12 -32 -3 -13 hhcurveto
          -37 -21 14 28 93 196 342 64 33 hvcurveto
          3 7 14 2 20 13 30 -3 12 hhcurveto
          3 4 0 1 3 hvcurveto
          endchar
        </CharString>
        <CharString name="bracketright">
          147 -42 24 530 -20 hstem
          380 59 vstem
          439 484 rmoveto
          20 -43 8 -84 -46 -23 -3 -7 -7 8 -3 14 vhcurveto
          13 31 4 13 hhcurveto
          39 19 -15 -28 -45 -27 -72 -54 -101 hvcurveto
          -68 -123 -76 -108 -34 -17 rrcurveto
          -4 -8 -12 -1 -22 -12 -30 3 -11 hhcurveto
          -5 -3 0 -1 -4 hvcurveto
          -10 vlineto
          -11 26 -5 50 42 27 4 10 13 vhcurveto
          48 35 57 79 64 123 rrcurveto
          66 125 32 92 58 vvcurveto
          endchar
        </CharString>
        <CharString name="breve">
          -133 265 -21 77 -20 hstem
          174 318 74 callgsubr
          vhcurveto
          5 -48 -56 -31 hhcurveto
          -37 -22 44 -1 1 hvcurveto
          -4 -2 -2 -6 -28 29 -23 30 33 27 20 44 20 hvcurveto
          1 2 0 1 2 vvcurveto
          endchar
        </CharString>
        <CharString name="brokenbar">
          -272 endchar
        </CharString>
        <CharString name="bullet">
          132 4 -21 331 -20 hstem
          367 152 rmoveto
          87 -75 75 -88 -88 -75 -72 -90 -91 72 -73 91 90 73 75 89 vhcurveto
          endchar
        </CharString>
        <CharString name="c">
          -30 -41 23 291 -20 hstem
          -5 41 vstem
          -99 callgsubr
          -15 -4 -17 -28 callgsubr
          23 -38 23 -25 -79 -98 -79 callsubr
          hvcurveto
          -44 callsubr
          endchar
        </CharString>
        <CharString name="caron">
          7 252 -21 102 -20 hstem
          275 477 -57 callsubr
        </CharString>
        <CharString name="ccedilla">
          -30 -238 212 -15 23 291 -20 hstemhm
          -5 41 -36 27 13 31 hintmask 01110100
          -99 callgsubr
          -15 -4 -17 -28 callgsubr
          23 -38 23 -25 -79 -98 -79 callsubr
          hvcurveto
          -44 callsubr
          -185 -283 rmoveto
          hintmask 10101100
          23 -44 53 9 vvcurveto
          27 12 17 23 3 vhcurveto
          4 -1 -3 1 -6 hhcurveto
          -32 -20 -31 -34 hvcurveto
          -16 40 -54 -10 -65 -88 23 -16 vvcurveto
          -6 2 -3 4 58 55 29 46 vhcurveto
          endchar
        </CharString>
        <CharString name="cedilla">
          -103 -238 212 hstem
          60 27 11 33 vstem
          131 -163 rmoveto
          22 -44 53 10 vvcurveto
          27 11 17 23 3 vhcurveto
          4 -3 1 -6 -32 -20 -31 -34 vhcurveto
          -16 38 -53 -11 -63 -86 21 -16 vvcurveto
          -6 2 -3 4 57 56 29 46 vhcurveto
          endchar
        </CharString>
        <CharString name="cent">
          38 -89 -21 67 -21 23 23 291 -20 85 -20 181 -20 hstem
          29 42 -19 26 1 24 vstem
          317 309 rmoveto
          -26 callgsubr
          -76 -83 -23 -26 vhcurveto
          -24 -30 -27 -13 -22 hhcurveto
          -20 -11 13 27 56 56 93 65 54 hvcurveto
          15 18 13 78 callsubr
          5 3 -4 -7 -15 -4 -18 -28 callgsubr
          13 -7 9 -15 10 hvcurveto
          -1 hlineto
          43 17 35 77 31 hhcurveto
          6 3 -2 0 hvcurveto
          3 28 callgsubr
          6 -7 7 -8 -46 -31 -74 -30 -19 hvcurveto
          -12 -18 rlineto
          1 -4 -4 0 -5 hhcurveto
          -79 -98 -161 -73 -40 16 -25 31 -10 hvcurveto
          -28 -56 -28 -69 0 vvcurveto
          -6 -16 -4 -14 -12 vvcurveto
          -23 9 -11 11 5 3 1 3 vhcurveto
          5 -10 -3 18 vvcurveto
          26 30 54 54 92 vhcurveto
          2 hlineto
          46 58 52 101 70 hvcurveto
          1 3 1 3 2 vvcurveto
          endchar
        </CharString>
        <CharString name="circumflex">
          -68 callgsubr
        </CharString>
        <CharString name="colon">
          -102 -28 48 99 48 hstem
          -36 callsubr
          15 -16 11 -15 -19 -10 -7 -14 -17 11 -10 21 6 callsubr
        </CharString>
        <CharString name="comma">
          -125 -72 -1 callgsubr
          126 -6 rmoveto
          -77 callgsubr
        </CharString>
        <CharString name="commaaccent">
          -87 131 -1 callgsubr
          125 198 rmoveto
          -12 callgsubr
          3 vhcurveto
          -3 1 0 3 37 24 63 callgsubr
        </CharString>
        <CharString name="copyright">
          208 -1 78 229 61 hstem
          19 39 351 40 vstem
          449 247 rmoveto
          66 -67 54 -73 -121 -169 -140 -115 -76 43 -37 85 141 161 121 127 vhcurveto
          -40 -5 rmoveto
          -117 -125 -111 -122 -69 -35 32 66 110 134 130 110 64 43 -46 -64 vhcurveto
          -54 40 rmoveto
          21 -13 9 -24 -97 -123 -118 -86 -32 22 -16 42 46 106 40 32 vhcurveto
          -3 3 rlineto
          -38 -64 -40 -20 -37 hhcurveto
          -20 -11 9 20 88 108 112 68 18 8 -10 -17 -1 -1 -5 -3 -12 hvcurveto
          4 -3 rlineto
          9 1 5 7 16 vvcurveto
          endchar
        </CharString>
        <CharString name="currency">
          105 276 -21 35 23 130 23 29 -20 hstem
          90 34 125 36 vstem
          258 446 rmoveto
          13 -16 -19 7 -24 hhcurveto
          -21 -21 -6 -11 -17 hvcurveto
          -47 46 rlineto
          -25 callgsubr
          -1 -3 -9 -26 -12 -4 1 -2 1 -1 vhcurveto
          28 -27 rlineto
          -12 -17 -8 -17 -21 vvcurveto
          -13 3 -12 5 -10 vhcurveto
          -46 -33 rlineto
          -4 -3 -4 -23 -12 vvcurveto
          -4 1 -3 0 vhcurveto
          20 callsubr
          vhcurveto
          74 53 rlineto
          -11 15 19 -7 21 hhcurveto
          21 20 6 10 17 hvcurveto
          53 -51 rlineto
          0 -25 callgsubr
          2 8 28 12 3 0 65 callsubr
          vhcurveto
          -33 31 rlineto
          14 16 9 21 21 vvcurveto
          11 -4 11 -4 8 vhcurveto
          43 31 rlineto
          5 3 3 23 12 vvcurveto
          4 -1 3 -1 vhcurveto
          -57 callgsubr
          -77 -116 rmoveto
          -36 -3 -32 -30 -34 hhcurveto
          -32 -24 26 31 40 33 33 38 31 23 -25 -32 hvcurveto
          -2 0 -3 -2 vvcurveto
          endchar
        </CharString>
        <CharString name="d">
          33 -67 22 295 25 193 22 hstem
          -1 33 155 29 vstem
          394 443 rmoveto
          31 -24 16 -45 -30 -15 -6 -10 -3 2 -3 5 vhcurveto
          7 18 78 callsubr
          14 6 -6 -10 -1 -91 -224 -14 -28 hvcurveto
          -143 -100 -80 -70 -15 hhcurveto
          -7 -2 6 9 51 126 191 49 hvcurveto
          6 10 -11 4 hhcurveto
          6 3 4 5 15 -33 12 -16 -73 -115 -162 -79 -27 33 -43 28 46 71 109 85 42 hvcurveto
          -21 -71 -11 -50 -32 vvcurveto
          -47 15 -25 30 8 29 10 11 0 0 1 -3 vhcurveto
          -5 -18 -11 -7 hhcurveto
          -13 -7 14 27 45 17 62 36 79 hvcurveto
          5 12 30 60 53 108 rrcurveto
          24 49 13 30 13 vvcurveto
          endchar
        </CharString>
        <CharString name="dagger">
          20 -2 -21 295 23 152 -20 hstem
          -75 callsubr
          -4 -60 -19 -241 10 vvcurveto
          -3 1 -1 2 9 20 168 128 11 vhcurveto
          72 callgsubr
        </CharString>
        <CharString name="daggerdbl">
          9 -88 -21 241 74 callsubr
          204 -20 hstemhm
          104 29 hintmask 11011100
          -75 callsubr
          hintmask 11101100
          -1 -16 -1 -18 -2 -20 rrcurveto
          -49 -45 -2 -3 -24 hvcurveto
          -2 -1 rlineto
          -6 3 14 -11 9 hhcurveto
          10 15 1 1 20 hvcurveto
          48 3 -11 -121 rlineto
          -4 -64 -3 -33 79 callsubr
          1 -1 2 8 15 122 102 10 vhcurveto
          2 26 26 0 25 15 15 0 13 hhcurveto
          5 3 3 2 5 -118 5 -8 hvcurveto
          5 55 rlineto
          72 callgsubr
        </CharString>
        <CharString name="degree">
          -59 214 129 hstem
          49 130 vstem
          179 279 rmoveto
          35 -30 29 -36 -35 -29 -29 -35 -35 29 -30 35 36 30 30 35 vhcurveto
          -17 hmoveto
          -27 -22 -21 -27 -25 -23 21 27 27 23 21 25 27 22 -21 -27 vhcurveto
          endchar
        </CharString>
        <CharString name="dieresis">
          -75 247 -21 70 -20 hstem
          174 295 rmoveto
          -80 callgsubr
          endchar
        </CharString>
        <CharString name="divide">
          34 52 48 32 36 35 48 hstem
          202 226 rmoveto
          13 -17 12 -15 -18 -11 -7 -15 -17 11 -9 21 12 17 11 12 vhcurveto
          98 -58 -47 callgsubr
          -133 -93 rmoveto
          14 -16 11 -15 -19 -10 -7 -14 -18 11 -9 21 12 16 11 12 vhcurveto
          endchar
        </CharString>
        <CharString name="dollar">
          46 36 -21 530 -20 hstem
          289 430 rmoveto
          5 -3 7 -7 8 vhcurveto
          -17 17 rlineto
          1 -4 -4 0 -5 hhcurveto
          -7 -9 0 -2 -7 hvcurveto
          9 24 5 18 13 vvcurveto
          16 -4 8 -6 vhcurveto
          0 -13 callgsubr
          -2 1 -4 -3 vvcurveto
          -16 -13 -26 -28 -34 vhcurveto
          -97 -25 -48 -37 -49 vvcurveto
          -27 18 -32 36 -39 vhcurveto
          36 -36 18 -22 -7 vvcurveto
          -23 -48 -19 -49 -22 -19 4 9 -17 vhcurveto
          -1 -4 13 -19 19 -12 27 -6 rlinecurve
          -1 vlineto
          -15 -28 -7 -22 -17 vvcurveto
          -17 3 -9 7 35 callsubr
          1 vhcurveto
          2 -3 5 3 vvcurveto
          16 16 28 30 36 vhcurveto
          13 hlineto
          36 35 23 27 19 -19 31 -37 39 hvcurveto
          -38 40 -18 28 16 vvcurveto
          53 115 49 78 4 12 -2 -3 -5 -19 -17 -37 -27 vhcurveto
          -3 vlineto
          8 68 32 18 hvcurveto
          endchar
        </CharString>
        <CharString name="dotaccent">
          -141 354 -21 70 -20 hstem
          102 402 rmoveto
          -1 1 rlineto
          -54 callgsubr
          -13 -43 -28 -15 -8 8 -13 8 7 7 21 callsubr
          13 30 rlineto
          endchar
        </CharString>
        <CharString name="dotlessi">
          -118 39 callgsubr
          146 251 -70 callsubr
        </CharString>
        <CharString name="e">
          -39 -8 callsubr
          hstem
          -5 41 169 29 vstem
          -99 callgsubr
          -54 -38 -75 callgsubr
          6 58 80 60 52 30 -30 23 -31 -81 -97 -79 callsubr
          vhcurveto
          -44 callsubr
          endchar
        </CharString>
        <CharString name="eacute">
          -9 -8 callsubr
          47 -21 106 -20 hstem
          -5 41 169 29 vstem
          -99 callgsubr
          -54 -38 -75 callgsubr
          6 58 80 60 52 30 -30 23 -31 -81 -97 -79 callsubr
          vhcurveto
          -44 callsubr
          71 272 rmoveto
          9 -2 4 -6 -5 -119 -89 -6 -4 3 -2 4 5 108 65 5 5 vhcurveto
          5 6 2 5 25 callgsubr
        </CharString>
        <CharString name="ecircumflex">
          -9 -8 callsubr
          35 -21 101 -20 hstem
          -5 41 169 29 vstem
          -99 callgsubr
          -54 -38 -75 callgsubr
          6 58 80 60 52 30 -30 23 -31 -81 -97 -79 callsubr
          vhcurveto
          -44 callsubr
          47 178 rmoveto
          -3 8 -44 32 -31 27 -20 22 rlinecurve
          -5 1 rlineto
          -10 -1 -92 -74 -10 vvcurveto
          -5 3 -3 3 6 29 21 43 50 vhcurveto
          -18 19 71 -48 21 hhcurveto
          endchar
        </CharString>
        <CharString name="edieresis">
          -9 -8 callsubr
          47 -21 70 -20 hstem
          -5 41 169 29 vstem
          -99 callgsubr
          -54 -38 -75 callgsubr
          6 58 80 60 52 30 -30 23 -31 -81 -97 -79 callsubr
          vhcurveto
          -44 callsubr
          33 247 rmoveto
          2 -11 callsubr
          5 hvcurveto
          12 11 callsubr
          -91 hmoveto
          2 vlineto
          -54 callgsubr
          -13 -43 37 callsubr
          9 -14 6 8 6 21 callsubr
          13 11 callsubr
          endchar
        </CharString>
        <CharString name="egrave">
          -9 -8 callsubr
          48 -1 callgsubr
          -5 41 169 29 vstem
          -99 callgsubr
          -54 -38 -75 callgsubr
          6 58 80 60 52 30 -30 23 -31 -81 -97 -79 callsubr
          vhcurveto
          -44 callsubr
          -5 191 rmoveto
          9 -125 93 -6 -7 -3 -6 -7 -18 -8 5 80 -48 vhcurveto
          -24 38 21 -9 3 72 callsubr
        </CharString>
        <CharString name="eight">
          186 -43 44 446 -20 hstem
          106 30 vstem
          486 438 rmoveto
          6 -1 3 -5 vhcurveto
          -2 hlineto
          -17 -42 -32 -40 -48 -39 -130 -90 rcurveline
          -39 -27 -19 -15 -1 2 rrcurveto
          -4 -52 40 6 26 66 39 133 44 hvcurveto
          64 21 16 -11 9 vvcurveto
          15 -36 12 -24 vhcurveto
          -2 hlineto
          -92 -6 -155 -67 -62 vvcurveto
          -23 38 -53 19 -12 vhcurveto
          -88 -67 rlineto
          -36 -33 -20 -29 -26 vvcurveto
          -35 73 -27 55 2 63 -5 46 49 vhcurveto
          23 20 11 22 21 vvcurveto
          29 -25 37 -52 47 vhcurveto
          161 116 rlineto
          71 59 36 48 41 vvcurveto
          -235 -346 rmoveto
          -27 -36 -27 -74 -28 vhcurveto
          -6 -16 -11 -3 -3 -3 0 1 -2 -2 -3 -4 -3 -3 5 1 -6 hhcurveto
          -2 -5 -9 -2 -14 hhcurveto
          -1 -4 3 4 -9 hvcurveto
          31 11 20 81 64 vhcurveto
          29 24 17 10 4 1 rrcurveto
          16 41 -50 -10 hvcurveto
          endchar
        </CharString>
        <CharString name="ellipsis">
          147 -39 -21 81 -20 hstem
          402 9 rmoveto
          9 -10 3 -22 -25 -20 -27 callgsubr
          68 -4 vvcurveto
          -136 hmoveto
          9 -10 3 -23 -25 -19 -32 -34 -7 4 -3 5 1 67 70 -6 vhcurveto
          -141 hmoveto
          -56 callgsubr
        </CharString>
        <CharString name="emdash">
          184 128 40 3 -20 hstemhm
          hintmask 10000000
          458 168 rmoveto
          hintmask 01000000
          3 vlineto
          -1 -15 -36 -1 -59 hhcurveto
          hintmask 10000000
          -315 -1 rlineto
          -6 -13 -21 -7 -8 29 -4 58 hvcurveto
          150 -9 12 37 hhcurveto
          138 13 41 6 9 vvcurveto
          endchar
        </CharString>
        <CharString name="endash">
          34 132 36 3 -20 hstemhm
          hintmask 10000000
          300 168 rmoveto
          hintmask 01000000
          -22 callgsubr
          hintmask 10000000
          -53 callgsubr
          endchar
        </CharString>
        <CharString name="equal">
          34 132 74 callsubr
          hstemhm
          hintmask 11000000
          323 259 rmoveto
          hintmask 10100000
          2 vlineto
          -1 -15 -24 0 -33 hhcurveto
          hintmask 11000000
          -193 -1 rlineto
          -13 -5 -7 -12 -11 38 -6 78 40 127 21 15 hvcurveto
          -23 -91 -47 callgsubr
          endchar
        </CharString>
        <CharString name="eth">
          -39 -14 -21 167 37 2 -20 134 28 hstem
          -33 callsubr
          -35 35 vstem
          229 404 rmoveto
          -2 3 -13 -8 -15 -11 -20 -9 rlinecurve
          -17 -9 rlineto
          22 -16 -21 18 -24 4 callgsubr
          34 16 21 30 36 hhcurveto
          16 17 -14 -19 15 hvcurveto
          -56 -31 rlineto
          -7 -5 -4 -4 -6 vvcurveto
          -7 4 -9 12 7 12 4 8 16 vhcurveto
          32 23 rlineto
          16 -28 11 -30 -14 vvcurveto
          -50 callgsubr
          -8 23 -13 43 -21 36 10 8 rcurveline
          31 25 14 15 7 1 0 0 1 vvcurveto
          -34 -234 -31 callsubr
        </CharString>
        <CharString name="exclam">
          -77 -39 -21 470 -20 hstem
          302 395 rmoveto
          6 -35 9 -19 -31 -116 -298 -39 -8 2 -4 3 10 73 151 10 7 vhcurveto
          46 81 35 56 24 32 rrcurveto
          -16 callsubr
          1 vvcurveto
          -177 -386 rmoveto
          -56 callgsubr
        </CharString>
        <CharString name="exclamdown">
          -49 -186 -21 469 -20 hstem
          211 252 rmoveto
          8 -3 2 -6 -1 -67 -69 6 -9 10 -4 23 26 18 32 34 vhcurveto
          -53 -117 rmoveto
          7 -2 4 -3 -11 -74 -152 -9 -5 vhcurveto
          -47 -83 -37 -56 -21 -32 rrcurveto
          -10 38 -5 15 32 115 296 40 vhcurveto
          endchar
        </CharString>
        <CharString name="f">
          -51 -334 31 820 -20 hstem
          317 33 vstem
          350 471 rmoveto
          28 -27 18 -30 -64 -33 -63 -148 -47 vhcurveto
          -46 -17 4 7 -15 -9 -35 9 -7 hhcurveto
          -4 -1 -3 -6 -28 15 -19 33 -9 hvcurveto
          -46 -129 -14 -53 -32 -80 rrcurveto
          -169 -69 -71 -83 -70 hhcurveto
          -50 -33 25 51 -15 hvcurveto
          7 -2 -3 4 -2 hhcurveto
          -2 -1 -3 -3 -75 64 -37 51 119 93 127 320 94 hvcurveto
          23 68 9 33 1 vvcurveto
          31 7 136 47 0 vvcurveto
          4 -1 0 -2 vhcurveto
          -23 -80 -3 -24 hhcurveto
          -8 -5 4 6 8 38 106 10 19 hvcurveto
          58 29 23 28 22 hhcurveto
          10 5 -10 -20 -13 -2 -14 -6 -13 hvcurveto
          -3 3 -3 7 21 10 17 31 vhcurveto
          endchar
        </CharString>
        <CharString name="five">
          78 -68 23 279 33 61 52 10 -20 hstemhm
          302 28 hintmask 11011000
          381 388 rmoveto
          1 34 callsubr
          hintmask 11101000
          -32 -42 -10 -49 hhcurveto
          -40 -21 1 6 -40 hvcurveto
          hintmask 11011000
          2 -11 -7 1 -6 hhcurveto
          -12 -35 -75 -119 -63 hvcurveto
          -9 21 -24 7 11 7 21 13 24 vhcurveto
          23 44 40 14 41 hhcurveto
          59 29 -17 -32 -93 -207 -137 -114 -59 -36 27 48 -27 hvcurveto
          -5 -1 -4 -6 -53 74 -35 90 126 187 99 140 62 -50 34 -73 -33 -38 -5 -13 -41 hvcurveto
          59 88 rlineto
          hintmask 11101000
          -6 12 16 -3 22 hhcurveto
          72 57 16 32 38 hvcurveto
          8 7 2 64 callsubr
          endchar
        </CharString>
        <CharString name="florin">
          -16 -229 -21 737 -20 hstem
          -101 33 217 31 vstem
          379 450 rmoveto
          16 -18 21 -15 -46 -177 -221 -213 -126 vhcurveto
          -65 -110 -33 -71 -32 vvcurveto
          -56 26 -29 54 80 121 175 85 62 -36 43 -62 vhcurveto
          126 169 70 71 62 55 33 26 rcurveline
          24 callsubr
          3 4 vvcurveto
          -230 -448 rmoveto
          -71 -110 -158 -61 -32 -14 17 34 48 32 83 55 82 vhcurveto
          38 26 19 19 11 hhcurveto
          49 25 -30 -62 hvcurveto
          endchar
        </CharString>
        <CharString name="four">
          104 -56 -21 221 38 -38 252 hstemhm
          hintmask 10100000
          395 359 rmoveto
          21 -32 16 -23 -13 -7 -2 -6 -2 vhcurveto
          1 -2 16 -10 -6 vvcurveto
          -12 -10 -30 -21 -49 vhcurveto
          hintmask 11000000
          -43 -97 rlineto
          -7 -8 0 -7 hhcurveto
          -59 -62 -8 -15 -65 hvcurveto
          166 134 85 60 12 vvcurveto
          16 -11 8 -20 -22 -10 -2 -5 -1 28 -4 -2 2 vhcurveto
          -153 -112 rlineto
          -75 -60 -38 -41 -25 vvcurveto
          -12 14 -24 10 -1 16 4 10 37 vhcurveto
          73 18 51 6 29 1 rrcurveto
          5 6 0 -1 4 hvcurveto
          -15 -49 -7 -43 -35 vvcurveto
          -59 11 -29 24 5 3 7 callgsubr
          3 -11 10 9 vvcurveto
          26 41 138 14 30 vhcurveto
          8 hlineto
          23 12 -4 -7 hvcurveto
          -7 -14 -23 -7 vvcurveto
          -3 1 -2 3 12 17 22 13 23 -32 19 -21 4 vhcurveto
          44 94 rlineto
          21 46 11 30 14 vvcurveto
          endchar
        </CharString>
        <CharString name="fraction">
          88 125 -21 609 -20 hstem
          -132 26 vstem
          468 503 rmoveto
          12 -15 7 -30 -20 -107 -136 -66 callsubr
          7 -10 12 11 7 4 8 vhcurveto
          0 -11 7 12 vvcurveto
          38 121 159 189 220 vhcurveto
          107 124 rlineto
          4 4 3 5 5 vvcurveto
          endchar
        </CharString>
        <CharString name="g">
          -39 -477 42 354 26 -26 63 299 28 hstemhm
          3 39 -39 95 96 33 -33 85 hintmask 11010101
          287 190 rmoveto
          26 -24 18 -48 9 vhcurveto
          45 -28 -25 21 -23 hhcurveto
          -44 -15 -19 -78 hvcurveto
          -51 -50 -26 -48 -47 vvcurveto
          -44 36 -53 43 23 23 12 24 26 vhcurveto
          8 -14 3 -36 -7 -20 rrcurveto
          6 -24 -29 3 -34 hhcurveto
          -219 -271 -137 -154 -86 72 -55 91 211 205 185 210 24 hvcurveto
          39 -12 47 -31 -30 vvcurveto
          -6 -3 -8 -5 -7 vhcurveto
          -4 1 1 -2 3 hhcurveto
          9 3 9 17 31 -41 40 -55 23 hvcurveto
          5 32 -10 44 -9 18 rrcurveto
          hintmask 10110110
          39 49 19 56 64 vvcurveto
          8 0 5 -1 8 vhcurveto
          32 16 -11 -19 -9 -10 -7 0 hvcurveto
          -3 2 -1 3 9 9 16 12 vhcurveto
          -119 58 rmoveto
          -3 -2 0 -3 hhcurveto
          -21 -20 -8 -14 -21 hvcurveto
          1 vlineto
          36 10 18 18 20 13 -12 -21 9 vhcurveto
          26 -87 rmoveto
          -41 -12 -39 -24 -35 vhcurveto
          -30 63 rlineto
          -15 32 -8 19 5 vvcurveto
          11 65 30 15 5 vhcurveto
          5 -12 4 -16 -22 vvcurveto
          -46 -130 rmoveto
          -32 -20 -21 -17 -25 hhcurveto
          hintmask 11011001
          -27 -13 18 34 39 28 55 26 27 hvcurveto
          58 -241 rmoveto
          -182 -45 -186 -177 -189 hhcurveto
          -85 -50 40 69 109 226 146 263 25 22 -1 -4 19 hvcurveto
          endchar
        </CharString>
        <CharString name="germandbls">
          166 -138 -21 332 30 -30 268 hstemhm
          350 50 0 38 hintmask 10101000
          438 343 rmoveto
          59 -45 39 -65 -132 -54 -161 -150 -53 vhcurveto
          -178 -68 -62 -91 -56 hhcurveto
          -5 -3 -2 -5 -1 hvcurveto
          -4 2 6 -3 7 hhcurveto
          39 40 33 68 46 hvcurveto
          -4 41 -6 0 189 136 69 89 49 -45 41 -79 13 vhcurveto
          81 2 81 61 81 vvcurveto
          -38 -4 rmoveto
          hintmask 11010000
          -81 -74 -55 -95 -10 -8 0 3 -8 vhcurveto
          -11 -4 -11 -19 -13 vvcurveto
          -4 0 -3 7 vhcurveto
          18 39 10 22 hhcurveto
          56 25 -20 -41 -76 -121 -81 -135 -12 -15 2 2 -20 hvcurveto
          134 267 24 88 8 8 rrcurveto
          67 30 38 34 43 hhcurveto
          47 29 -37 -47 hvcurveto
          endchar
        </CharString>
        <CharString name="grave">
          -105 223 -21 112 -20 hstem
          156 214 rmoveto
          8 -124 92 -6 -7 -3 -4 -9 -16 -7 3 79 -48 vhcurveto
          37 -22 22 -10 3 -1 rrcurveto
          24 callsubr
          67 callgsubr
        </CharString>
        <CharString name="greater">
          -76 callsubr
        </CharString>
        <CharString name="greaterequal">
          -32 19 24 -23 callgsubr
          -48 38 -19 15 -13 16 -11 14 rlinecurve
          -6 2 rlineto
          -69 callgsubr
          13 16 59 41 vhcurveto
          26 39 13 21 6 vvcurveto
          15 -179 -10 callgsubr
          6 -6 8 62 callsubr
        </CharString>
        <CharString name="guillemotleft">
          74 306 -20 hstem
          299 301 rmoveto
          4 -2 -18 callgsubr
          2 -38 callsubr
          49 -38 30 -28 12 -16 6 -3 rcurveline
          20 callsubr
          3 callsubr
          6 6 -24 34 -48 61 vhcurveto
          49 69 25 39 7 vvcurveto
          -127 hmoveto
          -87 callsubr
        </CharString>
        <CharString name="guillemotright">
          74 306 -20 hstem
          64 301 rmoveto
          68 callsubr
          -25 -34 -6 vvcurveto
          -6 1 -3 5 vhcurveto
          1 0 0 1 hhcurveto
          6 3 12 16 30 28 49 38 rlinecurve
          1 1 58 callgsubr
          vvcurveto
          19 -96 121 -6 -5 22 callsubr
          126 hmoveto
          68 callsubr
          -24 -34 -6 vvcurveto
          -6 1 -3 4 vhcurveto
          1 0 0 1 hhcurveto
          6 3 12 16 30 28 49 38 rlinecurve
          1 43 callsubr
          3 vvcurveto
          19 -97 121 -6 -4 -2 24 callgsubr
          endchar
        </CharString>
        <CharString name="guilsinglleft">
          -74 callgsubr
        </CharString>
        <CharString name="guilsinglright">
          -76 callsubr
        </CharString>
        <CharString name="h">
          -11 -98 callgsubr
          endchar
        </CharString>
        <CharString name="hbar">
          -272 -98 callgsubr
          252 323 rmoveto
          13 -105 7 -22 -57 -28 -22 -12 -5 7 -2 14 -1 35 3 7 72 vhcurveto
          60 5 25 -4 10 vvcurveto
          endchar
        </CharString>
        <CharString name="hungarumlaut">
          -59 178 -21 106 -20 hstem
          76 474 rmoveto
          2 -2 -3 1 -3 hhcurveto
          -4 -11 1 -84 -22 2 31 callsubr
          92 hmoveto
          2 -2 -3 1 -3 hhcurveto
          -4 -10 1 -84 -22 1 31 callsubr
          endchar
        </CharString>
        <CharString name="hyphen">
          -81 callsubr
        </CharString>
        <CharString name="i">
          -118 -29 -21 315 54 96 -20 hstem
          15 44 -59 callsubr
          -54 -160 -70 callsubr
        </CharString>
        <CharString name="iacute">
          77 callgsubr
          186 -96 callgsubr
          97 284 rmoveto
          10 -3 5 -8 -9 -144 -108 -9 -5 4 -2 5 3 136 80 5 5 vhcurveto
          8 7 3 7 10 vvcurveto
          endchar
        </CharString>
        <CharString name="icircumflex">
          77 callgsubr
          61 -21 101 -96 callgsubr
          46 163 rmoveto
          -5 8 -42 32 -32 28 -20 21 -30 callgsubr
          21 -2 rrcurveto
          endchar
        </CharString>
        <CharString name="idieresis">
          77 callgsubr
          88 -21 69 -96 callgsubr
          35 248 rmoveto
          7 callsubr
          -15 -42 37 callsubr
          10 -13 6 -8 callgsubr
          4 4 2 4 rlinecurve
          -91 hmoveto
          7 callsubr
          -15 -42 -26 -17 -8 9 -13 7 -8 callgsubr
          3 4 3 4 rlinecurve
          endchar
        </CharString>
        <CharString name="igrave">
          77 callgsubr
          89 -21 112 -96 callgsubr
          -23 192 rmoveto
          10 -123 91 -7 -8 -2 -5 -8 -17 -4 2 76 -46 vhcurveto
          36 -23 22 -9 4 -1 rrcurveto
          24 callsubr
          25 callsubr
        </CharString>
        <CharString name="ij">
          40 -453 -21 445 -21 315 54 75 -20 41 -20 hstem
          -201 22 194 44 171 56 -59 callsubr
          123 -22 -81 callgsubr
          -217 -459 -155 -25 -12 16 32 88 114 122 223 195 4 callsubr
          -18 -29 -36 -25 -15 hhcurveto
          -10 -11 5 26 49 46 133 41 71 hvcurveto
          -54 callsubr
          -28 28 -29 25 -6 vhcurveto
          -169 -130 -100 -136 -86 vvcurveto
          -44 18 -20 48 101 157 185 -10 callsubr
        </CharString>
        <CharString name="infinity">
          277 89 21 -8 30 173 31 hstem
          16 47 214 35 172 47 vstem
          32 176 rmoveto
          -34 33 -31 35 39 45 29 66 66 vhcurveto
          -68 4 27 -23 66 hhcurveto
          90 110 81 93 42 -28 23 -55 -71 -56 -44 -38 -51 hvcurveto
          46 -24 22 -47 -89 -94 -74 -90 vhcurveto
          47 16 rmoveto
          59 69 59 54 44 7 -35 -35 vhcurveto
          -4 -4 -76 -89 -57 hhcurveto
          -22 -15 13 32 hvcurveto
          210 52 rmoveto
          61 60 50 28 54 hhcurveto
          31 16 -13 -27 -54 -71 -95 -81 -49 -12 34 38 10 1 8 1 10 hvcurveto
          endchar
        </CharString>
        <CharString name="j">
          -114 -453 -21 868 -20 hstem
          -355 22 409 56 vstem
          169 389 -81 callgsubr
          -231 -490 -155 -25 -12 16 32 81 114 138 223 186 4 callsubr
          -178 -111 -183 -197 -107 vvcurveto
          -44 18 -20 48 101 171 216 -10 callsubr
        </CharString>
        <CharString name="k">
          5 -94 -21 591 21 hstemhm
          15 50 callgsubr
          hintmask 11010000
          -86 callsubr
          hintmask 11100000
          -37 callsubr
          hintmask 11001000
          -73 callgsubr
          endchar
        </CharString>
        <CharString name="kcommaaccent">
          5 -141 -21 68 -21 66 -20 545 21 hstemhm
          15 50 callgsubr
          hintmask 11110100
          -86 callsubr
          hintmask 11111000
          -37 callsubr
          hintmask 11110010
          -73 callgsubr
          -125 -334 18 callsubr
          -15 -8 -8 60 callgsubr
          -35 3 -7 callgsubr
          36 25 55 26 vhcurveto
          endchar
        </CharString>
        <CharString name="kgreenlandic">
          85 -94 -21 553 -20 58 21 hstemhm
          7 25 -17 50 callgsubr
          hintmask 11110010
          41 -25 rmoveto
          3 -1 4 3 vvcurveto
          59 51 89 55 121 vhcurveto
          -68 callsubr
          hintmask 11110100
          -23 callsubr
          hintmask 11101000
          -11 -39 -6 -28 -21 vvcurveto
          hintmask 11110010
          -34 callgsubr
          398 378 rmoveto
          6 -26 11 -17 -30 -28 -9 -57 -62 vhcurveto
          -105 -105 -13 -19 -20 -15 rrcurveto
          3 -1 -1 1 -2 hhcurveto
          -5 -20 -21 -5 -1 12 -35 15 -32 hvcurveto
          -112 50 80 -37 42 hhcurveto
          28 20 17 24 15 -25 63 -21 hvcurveto
          0 0 -1 -1 vhcurveto
          0 33 -59 -18 vvcurveto
          -13 -5 -8 -13 -39 -88 72 134 -55 vhcurveto
          68 74 161 133 33 8 12 -7 2 hhcurveto
          5 2 4 3 hvcurveto
          endchar
        </CharString>
        <CharString name="l">
          -100 -23 -21 571 -86 callgsubr
          endchar
        </CharString>
        <CharString name="ldot">
          12 -23 -21 198 48 325 -86 callgsubr
          -23 -308 18 callsubr
          -20 -9 -8 -13 -18 10 -9 22 6 callsubr
        </CharString>
        <CharString name="less">
          -74 callgsubr
        </CharString>
        <CharString name="lessequal">
          -32 19 24 263 -20 hstem
          172 301 rmoveto
          4 59 callgsubr
          -11 -14 -16 -58 -38 vhcurveto
          -26 -39 -14 -22 -5 vvcurveto
          78 callgsubr
          1 -1 vhcurveto
          48 -38 20 -15 12 -16 11 -13 rlinecurve
          7 -3 rlineto
          -60 callgsubr
          71 24 38 6 vvcurveto
          28 -269 -10 callgsubr
          5 -6 9 62 callsubr
        </CharString>
        <CharString name="logicalnot">
          492 39 callgsubr
          734 277 rmoveto
          17 -173 7 -177 -139 -155 -19 -4 -27 vhcurveto
          -19 -3 -12 -21 -11 vvcurveto
          -6 2 -4 6 3 5 2 4 7 vhcurveto
          18 25 130 8 114 hhcurveto
          85 108 -4 -11 127 hvcurveto
          -42 -59 -20 -47 -35 vvcurveto
          -26 15 -10 30 -3 vhcurveto
          12 21 4 4 hvcurveto
          5 -27 -2 19 vvcurveto
          35 54 91 47 51 vhcurveto
          endchar
        </CharString>
        <CharString name="lslash">
          -100 -23 -21 176 36 3 -20 376 -20 hstemhm
          20 38 205 24 hintmask 11011100
          187 150 rmoveto
          2 vlineto
          hintmask 10111100
          -10 -19 -1 -23 hhcurveto
          -63 -1 3 11 rlineto
          14 callgsubr
          23 -38 23 -28 -52 -99 -214 -163 -36 vhcurveto
          -40 hlineto
          -10 -4 -4 -9 -7 17 -4 32 -2 hvcurveto
          -7 -31 -2 -28 -24 vvcurveto
          -62 callsubr
          26 2 30 6 35 hvcurveto
          32 89 17 9 hvcurveto
          76 334 -61 callgsubr
          endchar
        </CharString>
        <CharString name="m">
          177 -21 228 -223 -21 273 37 -37 58 hstemhm
          85 54 102 47 78 41 hintmask 01101110
          447 198 rmoveto
          hintmask 10101110
          6 -6 3 -14 -18 -13 -3 -5 -8 vhcurveto
          0 -131 -140 -6 -8 vhcurveto
          25 74 12 53 33 vvcurveto
          41 -15 21 -31 vhcurveto
          -38 1 -30 -31 -35 -58 -23 -39 rcurveline
          16 45 7 31 17 vvcurveto
          hintmask 01011110
          -77 callsubr
          5 38 99 60 34 vhcurveto
          73 42 31 36 27 hhcurveto
          8 5 -7 -14 hvcurveto
          -61 -46 -152 -11 vvcurveto
          hintmask 10101110
          -8 12 -4 22 6 19 21 40 28 vhcurveto
          52 73 17 25 16 19 13 13 rlinecurve
          -10 -49 -4 -37 -26 vvcurveto
          -60 17 -30 35 11 5 9 17 9 -1 7 -2 5 vhcurveto
          -4 -14 -3 -8 0 vvcurveto
          -12 -5 14 28 38 15 56 25 69 hvcurveto
          -57 callgsubr
          endchar
        </CharString>
        <CharString name="macron">
          -16 433 -21 40 -20 hstemhm
          hintmask 10000000
          233 433 rmoveto
          hintmask 01000000
          13 -106 6 -21 -57 -29 -21 -12 vhcurveto
          hintmask 10000000
          -5 8 -2 14 -1 35 3 6 72 vhcurveto
          60 6 25 -5 11 vvcurveto
          endchar
        </CharString>
        <CharString name="mu">
          39 -251 -21 245 -21 315 23 -9 -20 hstemhm
          -25 34 -3 45 153 39 51 47 hintmask 11101011
          -39 -69 rmoveto
          -23 -66 -5 -34 -43 vvcurveto
          -25 23 -30 25 8 28 10 10 1 -5 callgsubr
          1 callgsubr
          47 19 69 42 92 hvcurveto
          -8 9 11 -6 12 hhcurveto
          41 21 32 161 99 hvcurveto
          -94 callgsubr
          hvcurveto
          57 78 2 callgsubr
          -88 callgsubr
          hintmask 11100111
          -83 callgsubr
          hintmask 11011011
          -79 callgsubr
          -9 -58 -104 -75 -216 vhcurveto
          endchar
        </CharString>
        <CharString name="multiply">
          12 -88 -21 396 -20 hstem
          291 237 rmoveto
          8 -4 4 -9 -3 -94 -76 -16 -16 vhcurveto
          112 -16 2 -20 -26 hhcurveto
          -25 -14 -2 -4 -7 21 10 14 -53 hvcurveto
          10 -56 -13 -9 -89 -82 -8 -15 rlinecurve
          -3 3 -2 3 19 86 89 4 3 vhcurveto
          -66 15 13 -25 32 hhcurveto
          15 48 15 10 76 callgsubr
          hvcurveto
          -2 -17 -7 -9 hhcurveto
          -30 -19 30 61 -10 hvcurveto
          91 70 25 19 3 2 rrcurveto
          2 66 callsubr
          3 vvcurveto
          endchar
        </CharString>
        <CharString name="n">
          33 -27 -21 342 -92 callgsubr
          endchar
        </CharString>
        <CharString name="nine">
          33 -87 -21 276 31 181 22 hstemhm
          0 29 -29 266 -146 34 hintmask 11110100
          312 280 rmoveto
          11 -27 19 -9 vhcurveto
          -2 -103 -111 -111 hhcurveto
          -20 -11 6 14 59 125 102 55 hvcurveto
          33 -17 -59 22 hhcurveto
          hintmask 11101000
          13 6 7 17 27 -49 30 -22 -71 -124 -90 -65 -42 42 -37 40 32 50 24 48 66 hvcurveto
          hintmask 11110100
          -51 -68 -59 -139 -65 vvcurveto
          -47 17 -23 34 13 9 2 7 2 vhcurveto
          2 -1 -1 2 -5 -3 -11 -2 -3 hhcurveto
          -12 -5 9 20 37 27 68 52 96 hvcurveto
          54 97 25 46 -2 vvcurveto
          endchar
        </CharString>
        <CharString name="notequal">
          -10 -8 -21 59 92 49 -20 hstem
          228 33 rmoveto
          8 -45 5 -58 vhcurveto
          -14 hlineto
          48 61 rlineto
          33 36 -2 5 2 -20 4 -39 4 hvcurveto
          24 30 10 16 2 vvcurveto
          2 -1 1 -2 -7 -16 -17 -32 -25 vhcurveto
          1 -18 -16 1 -14 hhcurveto
          -26 -20 -2 -5 -16 hvcurveto
          -6 9 -12 6 vhcurveto
          18 56 6 8 hhcurveto
          -48 -61 rlineto
          -1 -30 -16 -3 -3 hhcurveto
          -1 vlineto
          -5 9 -13 6 1 5 0 1 10 vhcurveto
          -18 -24 -11 -14 -2 -5 rrcurveto
          -2 2 -1 3 8 15 16 32 25 vhcurveto
          43 4 90 3 2 vvcurveto
          endchar
        </CharString>
        <CharString name="ntilde">
          33 -27 -21 342 -20 69 -21 22 -21 46 -92 callgsubr
          85 127 rmoveto
          2 -1 0 -4 vhcurveto
          -11 -7 -11 -5 -13 -14 -44 16 -13 hhcurveto
          -36 -23 -33 -5 hvcurveto
          1 -3 rlineto
          3 20 21 18 14 46 -21 13 hhcurveto
          31 20 33 6 hvcurveto
          endchar
        </CharString>
        <CharString name="numbersign">
          324 2 165 -35 35 131 36 128 -20 hstemhm
          hintmask 01110000
          586 327 rmoveto
          4 -7 3 -16 vhcurveto
          -26 -83 -4 -20 hhcurveto
          20 50 9 37 27 vvcurveto
          12 -2 5 -5 -8 -20 -44 -88 -34 vhcurveto
          -17 hlineto
          -29 -43 1 1 -55 hvcurveto
          17 45 9 37 29 vvcurveto
          14 -2 6 -5 -5 -6 -12 -21 -8 vhcurveto
          -35 -98 rlineto
          -60 -39 2 -20 hhcurveto
          -24 -13 -6 -11 -19 29 1 115 hvcurveto
          -18 -53 -16 -44 -13 -33 -125 -1 rcurveline
          -25 -12 -6 -10 -20 27 1 121 hvcurveto
          -24 -58 rlineto
          -12 -27 -5 -19 -11 vvcurveto
          hintmask 10110000
          -10 3 -5 6 10 13 18 39 16 vhcurveto
          hintmask 01110000
          26 73 149 1 rlineto
          -24 -70 -13 -40 -6 vvcurveto
          hintmask 10110000
          -10 2 -5 5 11 13 18 39 16 vhcurveto
          27 74 68 2 rlineto
          19 72 12 13 6 -13 2 -24 hvcurveto
          -110 hlineto
          51 131 rlineto
          70 hlineto
          21 71 17 11 hvcurveto
          -203 -29 rmoveto
          -21 -58 -16 -43 -10 -29 rrcurveto
          -148 hlineto
          51 130 rlineto
          endchar
        </CharString>
        <CharString name="o">
          -21 callgsubr
          -58 callsubr
          hintmask 11110000
          -101 callgsubr
          hintmask 11101000
          -100 callsubr
          endchar
        </CharString>
        <CharString name="oacute">
          -21 callgsubr
          52 -21 105 -104 callsubr
          106 267 29 callsubr
          -2 4 5 109 65 40 callsubr
        </CharString>
        <CharString name="ocircumflex">
          -21 callgsubr
          40 -21 101 -104 callsubr
          95 172 16 callsubr
          28 -19 21 -25 callsubr
          73 -47 21 -2 rrcurveto
          endchar
        </CharString>
        <CharString name="odieresis">
          -21 callgsubr
          54 -21 70 -104 callsubr
          80 245 60 callsubr
          -42 37 callsubr
          9 -13 7 -8 callgsubr
          3 5 2 3 rlinecurve
          -91 hmoveto
          -67 callgsubr
          -13 -43 37 callsubr
          73 callgsubr
          21 callsubr
          13 11 callsubr
          endchar
        </CharString>
        <CharString name="oe">
          158 -41 23 4 -21 143 165 12 28 hstemhm
          -33 callsubr
          -63 42 -14 35 148 29 hintmask 0111110010000000
          428 120 rmoveto
          3 79 callgsubr
          -2 -76 -84 -22 -27 vhcurveto
          hintmask 1011101010000000
          -25 -30 -27 -12 -21 hhcurveto
          -21 -10 12 27 57 55 93 66 53 -32 callgsubr
          8 hhcurveto
          5 4 -4 -8 -54 -39 -75 callgsubr
          7 57 81 60 52 30 -30 23 -31 vhcurveto
          hintmask 0111110010000000
          -38 -46 -44 -41 -32 hvcurveto
          62 -3 -35 63 -64 -91 callgsubr
          35 29 13 25 23 vhcurveto
          hintmask 1011100110000000
          -33 10 28 -16 45 hhcurveto
          46 57 51 102 70 hvcurveto
          -44 callsubr
          -233 50 rmoveto
          -41 -21 -34 -5 -31 vhcurveto
          -4 -9 rlineto
          -48 -25 -27 -25 -30 hhcurveto
          -27 -14 18 34 -27 callsubr
          hvcurveto
          -99 callsubr
          hintmask 0111101010000000
          -28 80 -93 callsubr
          18 -11 -24 8 vhcurveto
          endchar
        </CharString>
        <CharString name="ogonek">
          -95 -141 21 99 -20 hstem
          29 23 vstem
          152 -109 rmoveto
          4 -3 2 -6 vhcurveto
          0 -43 -17 -13 -23 -12 11 20 20 9 22 17 24 vhcurveto
          -2 2 rlineto
          -19 -2 -28 -58 -28 vvcurveto
          -22 13 -10 28 20 62 20 12 vhcurveto
          endchar
        </CharString>
        <CharString name="ograve">
          -21 callgsubr
          58 -21 112 -104 callsubr
          33 191 -46 callgsubr
        </CharString>
        <CharString name="one">
          32 callgsubr
          371 rmoveto
          11 -38 12 -11 -7 -19 -20 -39 5 callgsubr
          -2 vhcurveto
          22 18 59 callsubr
          -89 -57 vvcurveto
          -39 13 -42 20 3 36 callgsubr
          7 -7 19 10 vvcurveto
          68 94 214 62 86 71 callsubr
        </CharString>
        <CharString name="onehalf">
          411 -89 -21 68 17 10 43 177 18 64 20 192 69 callgsubr
          hintmask 1111111010000000
          646 259 rmoveto
          32 -21 16 -43 -69 -127 -42 -36 -10 20 -26 10 2 1 0 4 vhcurveto
          2 -6 3 5 vvcurveto
          33 140 47 38 14 6 -5 -7 -5 -2 -4 -3 -6 vhcurveto
          -50 -90 -99 -87 -148 -83 rrcurveto
          -21 5 4 -8 6 hhcurveto
          -1 20 1 4 43 hvcurveto
          7 56 43 2 30 77 -35 -23 11 hhcurveto
          7 3 9 16 27 -32 14 -65 -33 -32 -4 -6 -33 hvcurveto
          167 87 96 114 40 vvcurveto
          -481 282 8 callgsubr
          hintmask 1111111100000000
          -1 -2 -25 callgsubr
          vvcurveto
          hintmask 1111111010000000
          -39 callgsubr
          hintmask 1111111100000000
          -70 callgsubr
          hintmask 1111111010000000
          -32 callsubr
          endchar
        </CharString>
        <CharString name="onequarter">
          435 48 callsubr
          -106 18 276 69 callgsubr
          hintmask 1110111010000000
          165 541 8 callgsubr
          hintmask 1110111100000000
          -1 -2 -25 callgsubr
          vvcurveto
          hintmask 1110111010000000
          -39 callgsubr
          hintmask 1110111100000000
          -70 callgsubr
          hintmask 1110111010000000
          -32 callsubr
          183 -198 rmoveto
          hintmask 1101011100000000
          -11 callgsubr
          -17 -40 vhcurveto
          hintmask 1110111100000000
          -35 0 callgsubr
          71 52 11 vvcurveto
          12 -9 -40 callsubr
          40 108 16 17 hhcurveto
          4 4 0 -1 4 hvcurveto
          -12 -39 callsubr
          19 9 -49 callgsubr
        </CharString>
        <CharString name="onesuperior">
          32 callgsubr
          698 rmoveto
          11 -38 12 -11 -7 -19 -19 -40 5 callgsubr
          -1 vhcurveto
          22 17 59 callsubr
          -88 -57 vvcurveto
          -40 13 -41 20 3 36 callgsubr
          6 -7 19 10 vvcurveto
          69 94 214 62 85 71 callsubr
        </CharString>
        <CharString name="ordfeminine">
          10 429 -21 292 23 -45 callsubr
          hintmask 11100000
          312 671 64 callgsubr
          19 -47 vhcurveto
          -10 hlineto
          -76 -131 -175 -76 -37 callgsubr
          32 43 43 83 54 hvcurveto
          19 28 8 13 1 vvcurveto
          hintmask 11010000
          -10 -34 -4 -30 -24 vvcurveto
          -47 22 -32 35 16 7 3 -84 callgsubr
          19 35 35 11 41 22 47 hvcurveto
          13 23 rlineto
          -16 callsubr
          0 vvcurveto
          9 -31 16 -8 -52 callsubr
          -104 -74 -81 -98 -34 hhcurveto
          -7 -3 6 12 59 122 178 81 57 callgsubr
          -25 11 hvcurveto
          -1 2 -1 80 callsubr
          4 7 vhcurveto
          endchar
        </CharString>
        <CharString name="ordmasculine">
          -39 422 -21 321 28 -58 callsubr
          hintmask 11110000
          263 660 rmoveto
          8 -15 8 -32 5 vhcurveto
          46 -15 -29 23 -44 hhcurveto
          -46 -37 -35 -47 -13 -82 callsubr
          -57 34 callgsubr
          12 -1 11 -1 9 vhcurveto
          5 14 -3 6 hhcurveto
          27 callgsubr
          10 hvcurveto
          -96 27 -63 callgsubr
          -19 -33 -44 hvcurveto
          -2 7 -1 6 7 vvcurveto
          38 21 29 28 25 17 -12 -23 9 vhcurveto
          hintmask 11101000
          28 -81 rmoveto
          -74 -56 -114 -56 -27 -14 18 35 37 18 41 35 40 vhcurveto
          -4 -64 callgsubr
          5 5 -83 callsubr
          4 -7 hvcurveto
          28 28 26 16 27 3 rrcurveto
          6 -11 3 -13 -18 vvcurveto
          endchar
        </CharString>
        <CharString name="oslash">
          -39 -137 -21 443 28 84 -20 hstemhm
          2 25 -25 39 3 186 -35 68 hintmask 11110100
          269 380 rmoveto
          11 -9 6 -17 -4 -20 -35 -69 -34 vhcurveto
          14 -16 -19 6 -22 hhcurveto
          -46 -38 -35 -46 -14 3 -15 9 -13 hvcurveto
          -31 -31 -23 -59 -45 vvcurveto
          -38 13 -26 27 -13 vhcurveto
          -21 -46 -9 -35 -24 vvcurveto
          -17 4 -9 8 6 3 4 6 vhcurveto
          2 -6 5 11 vvcurveto
          19 10 32 23 46 vhcurveto
          -1 6 9 -1 7 hhcurveto
          88 60 101 109 58 callsubr
          -2 10 hvcurveto
          6 13 -4 5 hhcurveto
          hintmask 11101010
          8 4 6 9 23 -34 -26 -21 43 hvcurveto
          57 105 rlineto
          2 4 2 4 4 vvcurveto
          -103 -127 rmoveto
          -1 -3 -21 -1 -31 -17 -43 -33 rlinecurve
          -3 6 0 7 6 vvcurveto
          37 19 30 28 25 17 -10 -22 10 vhcurveto
          29 -83 rmoveto
          -73 -56 -115 -57 -5 -5 2 2 -6 vhcurveto
          9 16 28 59 34 69 43 81 rlinecurve
          2 75 callsubr
          hvcurveto
          7 -11 3 -14 -17 vvcurveto
          -59 21 rmoveto
          -40 -76 -7 -31 -27 -59 -12 -25 rcurveline
          -6 8 -3 12 14 vvcurveto
          -27 callsubr
          vhcurveto
          -1 2 2 0 3 hhcurveto
          4 3 2 6 76 callgsubr
          3 hvcurveto
          9 10 11 9 11 7 rrcurveto
          endchar
        </CharString>
        <CharString name="otilde">
          -21 callgsubr
          63 -21 46 -104 callsubr
          82 228 18 callgsubr
          -11 -10 -10 -5 -12 -30 callsubr
          34 25 callsubr
        </CharString>
        <CharString name="p">
          67 -251 -21 241 25 273 23 hstem
          -25 34 285 47 vstem
          341 214 rmoveto
          37 -16 18 -32 -39 -46 -35 -72 -52 vhcurveto
          18 41 11 27 13 vvcurveto
          31 -23 16 -46 -29 -15 -6 -10 -5 2 -2 4 vhcurveto
          8 18 8 8 hhcurveto
          14 7 -6 -10 -9 -30 -76 -61 -143 hvcurveto
          -5 6 -3 7 -2 8 -2 1 rcurveline
          -2 -1 -2 -3 -5 3 -10 7 -13 hvcurveto
          -41 -98 -21 -77 -57 vvcurveto
          -25 24 -30 25 8 28 10 10 1 -5 callgsubr
          -6 -17 -11 -8 hhcurveto
          -13 -5 9 15 48 20 71 44 97 hvcurveto
          -10 16 19 -5 23 hhcurveto
          92 118 150 95 hvcurveto
          -47 5 rmoveto
          -89 -98 -136 -79 -15 -13 1 4 -10 vhcurveto
          1 vlineto
          159 74 83 86 41 hhcurveto
          12 5 -9 -17 hvcurveto
          endchar
        </CharString>
        <CharString name="paragraph">
          141 -145 -21 627 -20 hstem
          471 451 rmoveto
          8 -3 -8 2 -13 hhcurveto
          -22 -22 -11 -20 -20 hvcurveto
          2 -9 -9 1 -12 hhcurveto
          -84 -61 -1 -46 -70 hvcurveto
          -49 -32 -24 -39 -42 vvcurveto
          -50 38 -29 78 -6 vhcurveto
          -264 -95 -46 -73 -72 hhcurveto
          -3 -2 -1 -3 -3 hvcurveto
          -6 1 5 -2 7 hhcurveto
          60 94 119 129 45 hvcurveto
          246 90 49 86 57 hhcurveto
          8 hlineto
          -51 -60 -40 -119 -35 -111 -33 -96 -30 -62 -28 -27 -5 -5 -4 -6 -1 -2 rrcurveto
          -2 2 -1 3 44 80 209 156 62 vhcurveto
          51 117 39 35 41 6 rrcurveto
          endchar
        </CharString>
        <CharString name="parenleft">
          10 -37 -21 603 -20 hstem
          -4 44 vstem
          478 537 rmoveto
          5 -5 3 -10 -147 -226 -151 -137 -63 vhcurveto
          -21 -45 -10 -42 -42 vvcurveto
          -97 63 -79 85 -5 vhcurveto
          4 hlineto
          -16 callsubr
          hhcurveto
          11 6 5 6 8 -49 6 -7 2 hvcurveto
          -49 18 -24 41 63 vvcurveto
          141 146 208 183 64 vhcurveto
          16 5 93 15 8 vvcurveto
          endchar
        </CharString>
        <CharString name="parenright">
          218 -38 -21 604 -20 hstem
          447 42 vstem
          489 365 rmoveto
          96 -62 78 -86 6 vhcurveto
          -4 hlineto
          -13 -7 -3 -7 -8 48 -6 7 -3 hvcurveto
          50 -19 25 -40 -63 vvcurveto
          -175 -199 -231 -222 -26 vhcurveto
          -13 -2 -7 -3 -3 vvcurveto
          -7 6 -3 10 146 228 152 138 62 vhcurveto
          19 44 12 43 42 vvcurveto
          endchar
        </CharString>
        <CharString name="partialdiff">
          -5 -9 -21 341 -20 91 28 hstem
          2 40 153 35 vstem
          3 318 rmoveto
          34 16 21 30 36 hhcurveto
          45 46 -103 -29 hvcurveto
          -50 callgsubr
          46 -15 -35 119 -65 4 callgsubr
          192 -148 -31 callsubr
        </CharString>
        <CharString name="percent">
          257 -98 -21 30 22 321 24 144 24 -24 93 hstemhm
          72 35 116 35 hintmask 11110110
          531 469 rmoveto
          11 -35 25 -7 -1 54 callgsubr
          vhcurveto
          -38 -80 -67 -20 -52 30 callsubr
          hintmask 11101110
          -50 callsubr
          -60 -68 -71 -91 -81 -112 rrcurveto
          -108 -150 -55 -96 -43 vvcurveto
          -19 7 -9 12 10 7 5 7 vhcurveto
          1 -11 7 12 vvcurveto
          36 62 92 123 145 vhcurveto
          231 265 rlineto
          6 5 2 5 3 vvcurveto
          -88 -373 -84 callsubr
          151 -343 rmoveto
          -36 callgsubr
        </CharString>
        <CharString name="period">
          -102 -28 48 hstem
          126 -6 18 callsubr
          -19 -10 -7 -14 -17 11 -10 21 6 callsubr
        </CharString>
        <CharString name="periodcentered">
          -102 154 48 hstem
          126 176 18 callsubr
          -19 -10 -8 -13 -18 11 -9 21 6 callsubr
        </CharString>
        <CharString name="perthousand">
          380 -98 -21 30 22 -22 261 82 24 144 93 hstemhm
          72 46 -30 30 105 35 155 35 -35 211 hintmask 1011110101000000
          633 96 rmoveto
          6 -12 -1 4 vvcurveto
          2 9 1 9 8 vvcurveto
          27 -13 14 -26 -54 -118 -156 -53 -24 16 -28 24 vhcurveto
          12 hlineto
          48 0 callsubr
          12 5 5 5 7 vvcurveto
          -125 396 rmoveto
          10 -6 4 -12 vhcurveto
          -25 -49 -115 -35 -39 30 callsubr
          -50 callsubr
          -105 -116 -227 -321 -22 -57 rrcurveto
          hintmask 1011101110000000
          -11 -26 -4 -27 -19 vvcurveto
          -14 4 -8 9 10 7 5 7 vhcurveto
          -2 2 rlineto
          -5 6 -3 5 8 vvcurveto
          24 16 30 22 36 vhcurveto
          41 62 66 96 83 111 103 124 rlinecurve
          62 75 rlineto
          5 5 2 6 4 vvcurveto
          -65 -396 -84 callsubr
          341 -343 rmoveto
          hintmask 1101110110000000
          -36 -2 -90 -108 -39 hhcurveto
          -12 -7 8 16 38 83 115 37 2 hvcurveto
          11 -18 9 -11 10 -6 rrcurveto
          -190 hmoveto
          -36 callgsubr
        </CharString>
        <CharString name="plus">
          34 39 -21 114 37 hstem
          300 168 rmoveto
          12 callsubr
          -24 -1 -32 hhcurveto
          -54 hlineto
          8 61 3 36 10 vvcurveto
          19 -3 8 -5 vhcurveto
          -17 -60 -11 -44 -10 -30 rrcurveto
          -53 hlineto
          -5 -4 0 -4 -9 -7 0 -7 hhcurveto
          -23 -13 -2 -17 -11 38 -7 76 hvcurveto
          -15 -56 -8 -30 -3 vvcurveto
          -12 4 -8 10 13 16 38 75 20 vhcurveto
          73 10 rlineto
          38 8 21 7 25 callgsubr
        </CharString>
        <CharString name="plusminus">
          58 22 24 -24 183 123 -20 hstem
          163 21 vstem
          305 201 rmoveto
          7 -102 1 -19 2 vhcurveto
          9 0 10 9 vvcurveto
          40 -1 28 -2 17 vhcurveto
          -4 4 rlineto
          -11 -2 -6 -4 -8 vvcurveto
          -13 2 -17 1 -22 vhcurveto
          2 -51 rlineto
          -11 -10 0 -9 hhcurveto
          -41 -29 -2 -2 -16 hvcurveto
          -3 -4 rlineto
          -10 1 5 -5 8 22 69 3 14 hhcurveto
          -2 vlineto
          1 -99 3 -15 3 2 rrcurveto
          12 -1 97 18 1 hvcurveto
          1 55 38 0 20 hhcurveto
          8 5 rlineto
          -64 -163 rmoveto
          8 -7 -26 3 -49 hhcurveto
          -38 -24 -1 -5 -11 hvcurveto
          -1 hlineto
          -12 2 5 -6 9 hhcurveto
          24 116 8 67 callgsubr
        </CharString>
        <CharString name="q">
          4 -283 -21 544 34 hstem
          6 42 23 47 vstem
          309 199 rmoveto
          5 -32 4 -6 -13 -14 -12 -102 -78 vhcurveto
          -68 -53 -36 -34 -19 hhcurveto
          -7 -3 6 7 35 66 111 50 50 hvcurveto
          26 25 25 13 25 hhcurveto
          18 12 -6 -15 7 hvcurveto
          2 -1 rlineto
          3 1 3 4 7 vvcurveto
          30 -18 14 -35 -90 -135 -165 -88 -32 14 -16 28 44 52 49 98 61 vhcurveto
          -47 -94 -87 -240 -33 vvcurveto
          -29 38 -23 25 15 8 4 42 24 vhcurveto
          21 44 rlineto
          27 54 13 52 57 vvcurveto
          43 -11 29 -21 19 vhcurveto
          84 35 49 70 14 hhcurveto
          1 -25 callgsubr
          hvcurveto
          -82 -240 rmoveto
          -60 -20 -76 -52 -65 vhcurveto
          -18 -14 -9 -10 -8 hhcurveto
          -4 -2 4 10 45 29 95 56 146 hvcurveto
          16 -16 8 -24 -31 vvcurveto
          endchar
        </CharString>
        <CharString name="question">
          30 -39 -21 81 41 299 39 hstem
          75 22 228 38 vstem
          363 320 rmoveto
          47 -73 33 -94 -71 -52 -20 -34 -5 16 -43 9 43 callgsubr
          4 vhcurveto
          3 -4 8 5 vvcurveto
          28 41 14 82 70 35 -8 -18 vhcurveto
          -60 -250 -39 -96 vvcurveto
          -34 33 -44 36 13 8 2 5 vhcurveto
          4 -68 25 27 63 266 49 83 vvcurveto
          -238 -311 rmoveto
          -56 callgsubr
        </CharString>
        <CharString name="questiondown">
          30 -193 38 300 41 76 -20 hstem
          -12 38 228 22 vstem
          303 252 rmoveto
          7 -3 3 -6 vhcurveto
          0 -68 -70 6 vvcurveto
          -9 10 -3 23 26 18 31 35 vhcurveto
          -25 -392 rmoveto
          9 -19 40 -5 -41 callgsubr
          -3 vhcurveto
          -5 4 -7 -5 vvcurveto
          -28 -41 -15 -81 -71 -35 9 18 vhcurveto
          59 250 40 96 vvcurveto
          35 -34 43 -35 -13 -7 -3 -4 vhcurveto
          -6 67 -25 -25 -62 -266 -54 -79 vvcurveto
          -48 75 -32 92 70 53 20 33 vhcurveto
          endchar
        </CharString>
        <CharString name="quotedbl">
          -117 236 -1 callgsubr
          155 303 rmoveto
          15 -16 10 -15 -15 1 callsubr
          -10 20 -7 -14 -17 -32 -36 1 vvcurveto
          -2 1 0 3 37 24 56 26 vhcurveto
          -76 hmoveto
          15 -17 10 -15 -14 -56 callsubr
          -16 -33 -36 0 vhcurveto
          -2 1 0 3 38 24 63 callgsubr
        </CharString>
        <CharString name="quotedblbase">
          -154 -46 -21 96 -20 hstem
          118 26 rmoveto
          2 vlineto
          -2 1 -25 callgsubr
          vvcurveto
          -5 -8 -1 -2 -10 hvcurveto
          -6 3 -81 2 8 12 71 16 vhcurveto
          -53 hmoveto
          -31 callgsubr
        </CharString>
        <CharString name="quotedblleft">
          -117 399 -1 callgsubr
          153 489 rmoveto
          1 78 callgsubr
          -37 -25 -57 -27 -13 17 -11 15 14 7 7 15 vhcurveto
          9 -20 5 17 17 33 37 -1 vvcurveto
          -77 -1 rmoveto
          2 78 callgsubr
          -33 -28 -56 -28 -13 16 -11 15 15 7 7 15 vhcurveto
          9 -20 7 14 vvcurveto
          17 32 36 0 vhcurveto
          endchar
        </CharString>
        <CharString name="quotedblright">
          -117 396 -1 callgsubr
          147 463 rmoveto
          14 -18 11 -13 -15 -8 -8 -15 vhcurveto
          -8 20 -9 -14 vvcurveto
          -16 -33 -35 0 vhcurveto
          -2 2 -1 3 34 28 56 27 vhcurveto
          -77 hmoveto
          14 -18 11 -13 -14 -9 -8 -15 vhcurveto
          -8 21 -9 -14 vvcurveto
          -16 -33 -36 0 vhcurveto
          -19 callgsubr
          2 37 26 55 28 vhcurveto
          endchar
        </CharString>
        <CharString name="quoteleft">
          -140 391 -1 callgsubr
          112 481 rmoveto
          1 78 callgsubr
          -35 -26 -56 -27 -13 16 -12 15 15 8 8 15 vhcurveto
          9 -21 7 15 18 32 35 -1 vvcurveto
          endchar
        </CharString>
        <CharString name="quoteright">
          -153 388 -21 114 -20 hstem
          149 456 rmoveto
          15 -17 10 -14 -15 -8 46 callgsubr
          -10 21 -8 -14 -19 -34 -34 1 vvcurveto
          -2 3 -1 2 34 28 55 29 vhcurveto
          endchar
        </CharString>
        <CharString name="quotesinglbase">
          -207 -46 -21 96 -20 hstem
          65 26 rmoveto
          -31 callgsubr
        </CharString>
        <CharString name="quotesingle">
          -123 313 -21 131 -20 hstem
          157 399 rmoveto
          14 -16 10 -15 -15 1 callsubr
          -9 21 -10 -12 vvcurveto
          -15 -42 -55 0 vhcurveto
          -2 3 -1 2 3 5 3 6 7 vhcurveto
          36 28 18 31 34 vvcurveto
          endchar
        </CharString>
        <CharString name="r">
          -12 -16 31 callgsubr
          hintmask 11011000
          -40 callgsubr
          hintmask 10111000
          -65 callgsubr
          hintmask 11011000
          -12 callsubr
          endchar
        </CharString>
        <CharString name="rcommaaccent">
          -12 -177 2 callsubr
          89 31 callgsubr
          hintmask 11110110
          -40 callgsubr
          hintmask 11101110
          -65 callgsubr
          hintmask 11110110
          -12 callsubr
          -217 -382 rmoveto
          15 -16 10 -15 -15 -8 -7 60 callgsubr
          -36 2 2 vhcurveto
          -2 2 0 3 36 25 63 callgsubr
        </CharString>
        <CharString name="registered">
          208 -6 172 137 64 hstemhm
          31 27 -27 98 -7 236 26 54 -29 29 hintmask 11010100
          438 247 rmoveto
          71 -58 49 -71 -52 -54 -23 -43 -56 vhcurveto
          -69 -14 -33 -18 -19 vvcurveto
          -5 2 -3 5 11 33 24 7 17 vhcurveto
          -55 -53 -27 -53 -55 vvcurveto
          -69 62 -49 71 38 41 13 27 45 vhcurveto
          -14 16 13 -6 8 hhcurveto
          hintmask 11101010
          23 10 11 23 5 79 callgsubr
          4 hvcurveto
          -4 -22 rlineto
          -8 -2 -5 -5 -8 hhcurveto
          -8 -10 7 12 -14 hvcurveto
          80 54 56 81 69 vvcurveto
          -29 -5 rmoveto
          -62 -49 -79 -69 -48 vhcurveto
          -22 24 -28 35 -34 46 rrcurveto
          85 104 32 64 37 -56 22 -85 -22 -24 -1 -4 -25 hvcurveto
          29 42 38 15 38 hhcurveto
          64 43 -46 -64 hvcurveto
          hintmask 11101100
          -25 17 rmoveto
          -44 -108 -49 -59 -6 -6 1 1 -5 vhcurveto
          -15 20 19 27 27 30 35 33 rlinecurve
          7 6 rlineto
          7 -4 3 -8 -17 -51 -54 -32 -21 vhcurveto
          5 -3 -2 1 -3 hhcurveto
          -10 -4 -2 -8 -2 3 -5 6 -9 hvcurveto
          -25 -43 -12 -36 -30 vvcurveto
          -20 4 -10 8 vhcurveto
          0 -13 callsubr
          vvcurveto
          hintmask 11010100
          -3 2 -3 6 5 vvcurveto
          22 15 36 28 47 vhcurveto
          37 -53 35 -41 32 -31 rrcurveto
          -22 -35 -34 -12 -33 hhcurveto
          hintmask 11101100
          -63 -53 43 59 61 33 59 65 56 hvcurveto
          9 39 38 6 41 hhcurveto
          74 36 -15 -29 hvcurveto
          endchar
        </CharString>
        <CharString name="ring">
          -100 299 111 hstem
          32 101 vstem
          133 370 rmoveto
          27 -11 13 -21 -27 -42 -39 -43 -19 11 -10 20 38 32 37 34 vhcurveto
          -19 -1 rmoveto
          -26 -19 -30 -23 -8 -4 6 9 21 22 28 3 5 vhcurveto
          -9 4 rlineto
          6 10 7 4 5 hhcurveto
          11 5 -9 -18 hvcurveto
          endchar
        </CharString>
        <CharString name="s">
          -69 -37 -21 298 48 hstem
          35 23 vstem
          231 242 rmoveto
          -73 callsubr
          endchar
        </CharString>
        <CharString name="scaron">
          -69 -37 -21 298 48 -36 -21 102 -20 hstemhm
          35 23 hintmask 10111000
          231 242 rmoveto
          hintmask 11011000
          -73 callsubr
          44 235 -57 callsubr
        </CharString>
        <CharString name="section">
          64 -145 46 591 -20 hstemhm
          30 25 -25 95 73 99 hintmask 11011000
          479 433 rmoveto
          -1 7 -4 10 -12 13 -25 26 rcurveline
          2 -7 -6 1 -7 hhcurveto
          -16 -35 -8 -13 -58 hvcurveto
          -125 -31 -69 -48 -11 -63 rrcurveto
          -48 -31 -25 -36 -45 vvcurveto
          -58 18 -24 106 -109 vhcurveto
          29 -28 15 -21 -11 vvcurveto
          -38 -84 -27 -68 -32 -29 7 13 -27 vhcurveto
          -2 -6 rlineto
          -40 27 45 -20 63 hhcurveto
          26 hlineto
          57 53 33 43 hvcurveto
          42 10 28 37 43 vvcurveto
          30 -28 45 -58 62 vhcurveto
          -57 61 -29 43 23 vvcurveto
          43 39 44 93 35 vhcurveto
          23 60 51 13 44 hhcurveto
          10 hlineto
          7 18 -2 -7 -7 -10 -16 -25 -16 hvcurveto
          -51 -35 rlineto
          -5 vlineto
          10 108 47 31 hvcurveto
          -221 -438 rmoveto
          -9 -20 -15 -9 -11 -11 -8 24 -30 42 -56 60 rrcurveto
          hintmask 11101000
          -50 54 -24 39 24 vvcurveto
          28 17 26 34 26 vhcurveto
          8 -36 30 -45 52 -53 38 -39 33 -29 2 -40 rrcurveto
          -12 -4 -14 46 callgsubr
          endchar
        </CharString>
        <CharString name="semicolon">
          -102 -72 -21 113 99 0 48 hstemhm
          96 30 hintmask 10110000
          -36 callsubr
          hintmask 11010000
          -77 callgsubr
        </CharString>
        <CharString name="seven">
          54 -56 -21 418 42 hstem
          13 21 vstem
          387 310 rmoveto
          13 -6 10 -11 6 vhcurveto
          1 3 5 3 2 vvcurveto
          24 -37 12 -70 -84 -77 -12 -25 -69 vhcurveto
          -10 -17 -5 -19 -22 vvcurveto
          -12 3 -7 7 3 7 32 9 13 vhcurveto
          20 33 61 11 88 hhcurveto
          23 22 -1 -2 19 hvcurveto
          -106 -50 -184 -206 -88 vvcurveto
          -25 8 -41 19 3 2 1 3 vhcurveto
          4 -11 7 10 vvcurveto
          17 8 21 18 29 vhcurveto
          82 130 108 95 137 65 rrcurveto
          endchar
        </CharString>
        <CharString name="six">
          99 -47 29 204 28 -28 244 hstemhm
          10 25 62 264 -47 47 hintmask 10111000
          403 389 rmoveto
          21 -34 20 -23 -58 -71 -48 -97 -83 vhcurveto
          -83 -95 -41 -75 -59 vvcurveto
          -69 33 -34 65 104 149 101 86 vhcurveto
          hintmask 11011000
          43 -45 31 -50 -70 -99 -72 -64 -7 1 -3 3 2 2 3 8 3 vhcurveto
          43 14 112 64 42 hhcurveto
          hintmask 11010100
          26 12 -11 -20 -69 -162 -104 -72 -30 -15 16 30 93 241 276 100 12 9 -13 -2 4 hvcurveto
          2 0 3 25 callsubr
        </CharString>
        <CharString name="slash">
          183 -89 -21 609 -20 hstem
          18 26 vstem
          468 480 rmoveto
          13 -15 6 -30 -20 -107 -135 -66 callsubr
          7 -10 12 11 7 3 9 vhcurveto
          0 -11 -55 callsubr
          3 5 4 vvcurveto
          endchar
        </CharString>
        <CharString name="space">
          -87 endchar
        </CharString>
        <CharString name="sterling">
          235 -87 34 6 103 -103 214 -17 246 -26 26 hstemhm
          hintmask 11010000
          498 -6 rmoveto
          14 -18 30 -13 -41 callgsubr
          -2 vhcurveto
          -3 22 -18 -14 vvcurveto
          -36 -36 -17 -68 -48 -80 23 19 -33 vhcurveto
          30 28 7 17 50 116 rrcurveto
          121 hlineto
          12 4 4 8 hvcurveto
          hintmask 10101000
          4 34 callsubr
          -126 hlineto
          172 70 37 31 37 hhcurveto
          14 6 -10 -19 -41 -56 -53 2 3 hvcurveto
          -2 0 -1 3 2 2 36 callgsubr
          41 20 20 29 38 vvcurveto
          33 -20 27 -28 -73 -63 -119 -110 -37 vhcurveto
          -104 hlineto
          -8 -6 -5 -8 hvcurveto
          hintmask 11010000
          -3 3 -1 5 vhcurveto
          103 hlineto
          -24 -71 -25 -51 -25 -34 rrcurveto
          42 -82 -52 20 -24 hhcurveto
          -16 -8 -6 -15 -48 54 -34 44 35 33 8 19 31 hvcurveto
          -44 86 69 -23 50 hhcurveto
          47 38 34 47 hvcurveto
          -325 -9 rmoveto
          -13 -19 -22 -6 -25 hhcurveto
          -29 -45 31 27 7 3 3 7 20 88 -31 -18 22 hvcurveto
          endchar
        </CharString>
        <CharString name="t">
          -99 -33 -21 444 -20 hstem
          5 36 vstem
          265 270 rmoveto
          4 38 callgsubr
          56 callsubr
          -2 -2 vhcurveto
          -8 -21 -28 -5 -37 hhcurveto
          -8 -6 2 2 -2 hvcurveto
          12 31 6 26 19 vvcurveto
          34 -15 16 -29 -4 -26 -5 -12 -2 2 -1 1 vhcurveto
          4 12 5 4 hhcurveto
          5 3 -5 -11 -15 -10 -34 -23 -51 hvcurveto
          -22 2 -15 4 -9 4 rrcurveto
          -3 -2 -1 -4 -5 vvcurveto
          -18 12 -12 22 -9 vhcurveto
          -31 -74 -16 -36 0 vvcurveto
          -19 -48 -9 -38 -25 vvcurveto
          -31 15 -16 29 23 10 6 15 0 0 1 -1 vhcurveto
          -3 -18 -6 -7 hhcurveto
          -8 -4 5 11 30 25 68 53 106 hvcurveto
          13 26 rlineto
          2 5 4 1 5 hhcurveto
          44 6 39 16 32 27 rrcurveto
          2 76 callsubr
          vvcurveto
          endchar
        </CharString>
        <CharString name="thorn">
          61 callgsubr
          3 -21 292 250 -213 -14 callgsubr
          -26 39 51 47 hintmask 1101011101111011
          -80 -69 rmoveto
          -25 -65 -4 -36 -42 vvcurveto
          -25 23 -30 25 vhcurveto
          hintmask 1101011110011011
          9 27 10 10 -26 callsubr
          -2 hvcurveto
          1 callgsubr
          41 21 70 26 70 hvcurveto
          hintmask 1110011101111011
          -9 14 15 -4 17 hhcurveto
          hintmask 1101011101111101
          90 123 161 100 45 -23 22 -47 -26 -24 -7 -15 -22 hvcurveto
          61 callsubr
          hintmask 1101011101111011
          -47 callsubr
          -44 -106 26 callgsubr
          -5 1 vhcurveto
          hintmask 1101100001111011
          223 261 rmoveto
          hintmask 1101011101111101
          15 6 -11 -20 hvcurveto
          hintmask 1110011101111011
          47 callgsubr
          vhcurveto
          62 callgsubr
          hintmask 1101100001111011
          70 callsubr
        </CharString>
        <CharString name="three">
          -93 callgsubr
        </CharString>
        <CharString name="threequarters">
          533 48 callsubr
          -113 49 142 168 -58 -20 48 30 hstemhm
          136 26 107 25 20 27 hintmask 1110101111100000
          341 501 rmoveto
          36 -55 20 -68 -61 -44 -19 -27 -6 9 -29 4 2 1 2 3 vhcurveto
          2 -1 5 1 vvcurveto
          23 42 15 62 55 27 -6 -13 -32 -149 -51 -23 -3 vhcurveto
          -15 -2 -10 0 -8 -1 10 -21 rcurveline
          -11 4 5 -4 5 hhcurveto
          hintmask 1110110011100000
          5 40 6 8 hhcurveto
          56 27 -12 -24 -43 -88 -63 -89 -46 -24 15 32 hvcurveto
          9 10 25 6 vvcurveto
          3 0 2 -3 -12 -5 -14 -29 -60 37 -38 58 81 106 65 71 25 -18 27 -34 24 vhcurveto
          67 33 32 20 38 vvcurveto
          244 -21 rmoveto
          hintmask 1101001111100000
          -74 callsubr
          0 -10 6 13 vvcurveto
          37 120 160 190 -28 callsubr
          2 5 4 vvcurveto
          183 -198 rmoveto
          -11 callgsubr
          -18 -40 vhcurveto
          hintmask 1110110011100000
          -34 0 callgsubr
          70 52 11 vvcurveto
          12 -8 -40 callsubr
          39 109 16 17 hhcurveto
          4 4 0 -1 3 hvcurveto
          -11 -39 callsubr
          18 10 -49 callgsubr
        </CharString>
        <CharString name="threesuperior">
          -93 callgsubr
        </CharString>
        <CharString name="tilde">
          -67 319 -21 45 -20 hstem
          189 340 18 callgsubr
          -10 -10 -10 -6 -12 12 callgsubr
          -5 35 callgsubr
          4 21 10 callgsubr
        </CharString>
        <CharString name="trademark">
          222 220 231 -231 238 -226 -21 54 186 -25 25 hstemhm
          hintmask 00110000
          477 422 rmoveto
          14 -2 7 -6 -1 -19 -27 -55 -35 vhcurveto
          -53 -34 -25 -28 -15 hhcurveto
          -34 -5 71 82 -15 hvcurveto
          12 -4 -3 5 -3 hhcurveto
          -23 11 -45 -105 -44 hvcurveto
          -19 -46 -9 -25 -3 vvcurveto
          hintmask 10000000
          -5 3 -1 5 33 11 104 43 21 vhcurveto
          hintmask 00110000
          -69 19 22 -33 27 hhcurveto
          23 39 33 69 52 hvcurveto
          -12 -60 -7 -43 -5 -28 rrcurveto
          -4 3 -3 5 40 -4 104 36 1 vhcurveto
          6 27 rlineto
          2 11 1 9 6 vvcurveto
          -223 29 rmoveto
          hintmask 01000000
          5 -6 2 -10 -66 -147 -16 -7 -5 vhcurveto
          hintmask 00101000
          -7 2 7 -2 11 11 30 3 12 hhcurveto
          15 6 -2 -5 hvcurveto
          -3 -74 -189 -4 vvcurveto
          -7 5 -3 8 18 5 7 91 27 vhcurveto
          29 98 -14 16 84 8 rrcurveto
          34 4 18 7 4 vvcurveto
          endchar
        </CharString>
        <CharString name="two">
          142 -90 callgsubr
        </CharString>
        <CharString name="twosuperior">
          96 -90 callgsubr
        </CharString>
        <CharString name="u">
          39 -27 -21 329 -102 callsubr
          hvcurveto
          57 78 2 callgsubr
          endchar
        </CharString>
        <CharString name="uacute">
          -3 callsubr
          49 -21 107 -92 callsubr
          -5 129 rmoveto
          8 -4 4 -5 -7 -117 -87 -9 53 callsubr
          5 107 63 7 6 vhcurveto
          55 callsubr
          6 8 vvcurveto
          endchar
        </CharString>
        <CharString name="ucircumflex">
          -3 callsubr
          70 -21 101 -102 callsubr
          hvcurveto
          -1 57 79 2 callgsubr
          2 66 rmoveto
          -3 7 -44 32 -31 27 -19 23 rlinecurve
          -6 1 rlineto
          -9 -1 -92 -73 -11 36 callsubr
          3 7 28 20 43 51 vhcurveto
          -17 18 71 -50 21 hhcurveto
          endchar
        </CharString>
        <CharString name="udieresis">
          -3 callsubr
          68 -21 71 -92 callsubr
          -3 121 rmoveto
          3 40 callgsubr
          8 -14 7 7 8 8 13 5 hvcurveto
          13 30 55 callsubr
          27 callsubr
          rlinecurve
          -91 hmoveto
          3 vlineto
          -2 vlineto
          -3 2 rlineto
          -15 -42 -29 -14 -9 10 -14 6 7 8 8 13 5 hvcurveto
          12 30 5 5 5 27 callsubr
          rlinecurve
          endchar
        </CharString>
        <CharString name="ugrave">
          -3 callsubr
          73 -21 113 -102 callsubr
          hvcurveto
          57 78 2 callgsubr
          -21 69 rmoveto
          10 -125 92 -6 -7 -3 -6 -7 -19 -4 4 76 -46 vhcurveto
          -23 38 20 -10 4 72 callsubr
        </CharString>
        <CharString name="underscore">
          336 -79 33 -21 -21 hstemhm
          hintmask 01000000
          597 -67 rmoveto
          hintmask 10000000
          14 -1 -6 7 -13 hhcurveto
          -558 hlineto
          -8 -5 -5 -9 -14 5 -8 8 hvcurveto
          222 147 10 205 hhcurveto
          endchar
        </CharString>
        <CharString name="uni00AD">
          -81 callsubr
        </CharString>
        <CharString name="v">
          -45 -26 -21 356 -20 hstem
          60 48 vstem
          338 298 rmoveto
          8 -3 3 -9 -39 -84 -91 -127 -91 vhcurveto
          -6 -4 37 callgsubr
          hhcurveto
          -2 -2 1 3 hvcurveto
          -1 -3 8 41 27 vvcurveto
          75 -21 36 -42 -21 -12 -6 -14 -10 3 -4 6 6 3 14 3 5 vhcurveto
          17 -1 8 -28 -55 -39 -15 -154 3 vvcurveto
          -10 10 -4 20 16 6 41 7 3 vhcurveto
          55 148 125 103 55 33 rrcurveto
          76 callsubr
          4 vvcurveto
          endchar
        </CharString>
        <CharString name="w">
          181 -37 24 -24 249 50 -20 hstemhm
          -1 49 186 53 114 54 hintmask 10111100
          455 171 rmoveto
          61 -21 30 -41 -20 -11 -2 -8 -4 vhcurveto
          28 -9 15 -28 -48 vvcurveto
          -71 -46 -109 -37 -22 -9 43 84 38 2 52 1 vhcurveto
          -25 callgsubr
          -1 vvcurveto
          hintmask 01111100
          5 -12 4 -24 -12 -7 0 -3 -3 vhcurveto
          -39 -18 -135 -178 -22 hhcurveto
          -6 -3 5 8 36 72 153 31 39 hvcurveto
          2 3 rlineto
          4 -3 2 -6 -10 -26 -37 -2 -1 vhcurveto
          -73 -89 -35 -64 -40 vvcurveto
          -24 15 -23 23 51 35 41 182 115 vhcurveto
          -3 -12 -1 -14 -17 vvcurveto
          -99 28 -70 53 77 63 103 94 vhcurveto
          endchar
        </CharString>
        <CharString name="x">
          12 -88 -21 396 -20 hstem
          333 267 rmoveto
          13 -6 7 -12 -4 -132 -125 -27 -24 vhcurveto
          -8 73 -6 41 -4 5 rrcurveto
          7 -3 -10 3 -16 hhcurveto
          -30 -16 -3 -7 -7 27 10 15 -71 hvcurveto
          10 -81 3 2 -121 -133 -40 -66 rlinecurve
          -1 0 -2 -1 -6 3 -3 6 8 48 75 22 20 hvcurveto
          17 20 25 27 38 39 rrcurveto
          -92 19 14 -36 37 hhcurveto
          18 56 21 15 2 -1 1 -2 hvcurveto
          -3 -18 -11 -12 hhcurveto
          -35 -23 43 86 -11 hvcurveto
          169 160 5 -17 16 vvcurveto
          endchar
        </CharString>
        <CharString name="y">
          20 -460 -21 775 -97 callsubr
          endchar
        </CharString>
        <CharString name="yacute">
          20 -460 -21 775 -20 80 -21 105 -97 callsubr
          23 196 rmoveto
          8 -3 3 -6 -7 -116 -87 -8 53 callsubr
          4 109 65 4 5 vhcurveto
          5 6 3 6 8 vvcurveto
          endchar
        </CharString>
        <CharString name="ydieresis">
          20 -460 -21 728 -21 68 -20 22 -20 63 -21 70 -20 hstemhm
          -183 22 418 48 hintmask 11101111
          -100 callgsubr
          -127 64 rmoveto
          hintmask 11011111
          -80 callgsubr
          211 92 rmoveto
          -67 callgsubr
          -13 -44 37 callsubr
          9 -14 7 33 callgsubr
          31 6 6 4 21 callgsubr
          -92 hmoveto
          1 -11 callsubr
          6 hvcurveto
          12 31 5 6 3 21 callgsubr
          endchar
        </CharString>
        <CharString name="yen">
          229 -48 -21 40 -21 182 74 callsubr
          24 54 96 -20 65 23 hstem
          15 44 246 37 vstem
          393 146 rmoveto
          3 callgsubr
          2 vhcurveto
          -3 -15 -25 0 -32 hhcurveto
          -58 -1 4 13 5 11 5 12 rlinecurve
          14 22 rlineto
          82 12 44 11 10 vvcurveto
          2 vlineto
          -1 -15 -24 0 -32 hhcurveto
          -34 hlineto
          102 71 182 170 65 hhcurveto
          11 9 -4 -9 7 hvcurveto
          8 -13 rlineto
          2 0 3 2 18 -21 14 -31 -53 -69 -40 -77 -76 hvcurveto
          -40 -40 -45 -44 -57 -83 rrcurveto
          -5 hlineto
          12 38 rlineto
          23 66 11 46 38 vvcurveto
          68 -29 22 -55 -72 -58 -79 -50 -35 vhcurveto
          -3 -4 -1 -3 -2 vvcurveto
          -2 0 -6 4 vhcurveto
          10 94 129 62 hhcurveto
          28 22 -17 -44 -47 -13 -51 -30 -102 hvcurveto
          -88 hlineto
          -13 -5 -6 -12 -11 31 -5 63 -1 hvcurveto
          -20 -56 rlineto
          -81 hlineto
          -13 -6 -5 -13 -9 30 -7 59 -1 hvcurveto
          -11 -40 -5 -33 -28 vvcurveto
          -37 13 -18 25 15 55 28 17 2 -2 2 -2 vhcurveto
          1 -37 -31 -12 hhcurveto
          -8 -4 9 16 26 8 39 17 49 hvcurveto
          73 4 71 24 6 vvcurveto
          endchar
        </CharString>
        <CharString name="z">
          68 callgsubr
          hstem
          86 239 vstem
          48 callgsubr
          -24 callgsubr
          -89 callsubr
          endchar
        </CharString>
        <CharString name="zcaron">
          68 callgsubr
          -15 -21 102 -20 hstemhm
          86 239 hintmask 11101100
          48 callgsubr
          hintmask 11011100
          -24 callgsubr
          hintmask 11101100
          -89 callsubr
          26 290 -19 callsubr
          -51 -29 21 -6 13 callgsubr
          10 -3 hvcurveto
          4 -3 callgsubr
        </CharString>
        <CharString name="zero">
          175 -43 44 360 31 hstem
          15 32 360 37 vstem
          444 267 rmoveto
          79 -101 46 -53 -73 -98 -17 -42 -22 vhcurveto
          -2 23 callsubr
          1 76 callsubr
          vhcurveto
          18 47 56 9 64 hhcurveto
          90 45 -21 -45 -110 -203 -184 -98 -39 -20 18 35 62 116 169 47 hvcurveto
          7 hlineto
          8 4 0 4 9 -33 21 -11 -65 -105 -191 -73 -57 47 -41 61 123 198 184 126 hvcurveto
          endchar
        </CharString>
      <CharString index="0">
        rrcurveto
        0 -112 -12 -7 vhcurveto
        104 110 rlineto
        -105 callsubr
        -27 -83 -14 -54 -29 vvcurveto
        -48 17 -38 28 -43 callsubr
        vhcurveto
        9 -16 25 24 vvcurveto
        77 61 144 116 194 vhcurveto
        40 69 23 33 77 callsubr
        return
      </CharString>
      <CharString index="1">
        -20 hstem
        57 36 171 33 vstem
        585 441 rmoveto
        13 -7 7 -15 -67 -87 -97 -159 -77 vhcurveto
        -78 -39 -154 -129 -32 hhcurveto
        -9 -5 5 12 63 20 38 107 169 hvcurveto
        29 46 15 28 11 vvcurveto
        20 -22 20 -21 -40 -135 -96 -49 -39 vhcurveto
        -2 -4 52 callsubr
        -1 vvcurveto
        1 24 callsubr
        3 hvcurveto
        100 70 40 27 38 19 32 10 rlinecurve
        -103 -167 rlineto
        -43 -73 -21 -58 -45 vvcurveto
        -34 36 -52 38 36 51 39 76 62 vhcurveto
        -10 -31 -6 -38 -43 vvcurveto
        -55 37 -138 36 vhcurveto
        2 -43 callsubr
        vvcurveto
        3 callgsubr
        vhcurveto
        -28 30 -14 55 81 vvcurveto
        44 29 123 22 36 vhcurveto
        156 178 81 65 54 vvcurveto
        -17 hmoveto
        -21 -111 -129 -96 -93 vhcurveto
        -1 2 53 callgsubr
        2 vlineto
        115 56 108 128 38 hhcurveto
        4 2 -1 -4 hvcurveto
        return
      </CharString>
      <CharString index="2">
        -20 hstem
        22 55 vstem
        627 350 rmoveto
        -78 callgsubr
        -89 65 -66 88 128 89 34 97 110 vhcurveto
        73 65 35 65 63 vvcurveto
        12 -1 12 -3 9 vhcurveto
        15 31 6 23 14 66 callgsubr
        -98 callsubr
        -94 callsubr
        -160 -17 -198 -116 -129 -82 callgsubr
        return
      </CharString>
      <CharString index="3">
        -20 hstem
        103 29 vstem
        459 448 rmoveto
        2 -6 0 -12 1 vhcurveto
        5 6 2 64 callsubr
        10 -31 9 -16 -17 -13 -24 -7 -3 vhcurveto
        -176 -7 -89 -42 -78 vvcurveto
        38 callgsubr
        2 14 1 26 9 3 vhcurveto
        23 36 74 25 129 11 rrcurveto
        -163 -221 -81 -144 -69 vvcurveto
        -8 -57 vlineto
        2 -39 -12 3 -8 hhcurveto
        -4 -1 -2 -3 -32 5 -9 21 17 34 4 9 51 hvcurveto
        -16 8 14 -8 17 hhcurveto
        13 38 11 10 5 hvcurveto
        1 -3 -15 callgsubr
        -5 -24 -7 -9 hhcurveto
        -13 -11 4 7 -5 hvcurveto
        146 28 rlineto
        17 3 8 1 7 vvcurveto
        3 -2 1 -5 -1 -3 0 24 callgsubr
        -38 -10 -54 -5 -68 -1 4 65 106 177 181 203 rrcurveto
        18 hlineto
        6 12 12 6 hvcurveto
        return
      </CharString>
      <CharString index="4">
        -105 callgsubr
        79 51 80 callgsubr
        return
      </CharString>
      <CharString index="5">
        -20 hstem
        241 30 239 40 vstem
        579 323 rmoveto
        3 -4 2 -9 -6 -9 -2 -3 -9 vhcurveto
        6 20 2 16 15 vvcurveto
        28 -13 28 -26 26 vhcurveto
        5 4 1 2 0 vvcurveto
        9 -11 4 -20 -21 -52 -56 -112 -83 vhcurveto
        -151 -211 rlineto
        61 139 31 105 70 vvcurveto
        61 -25 31 -48 -49 -77 -66 -77 -53 vhcurveto
        -2 -3 -1 -2 -2 vvcurveto
        -3 23 callsubr
        vhcurveto
        0 -51 callsubr
        vhcurveto
        10 142 135 42 26 13 -20 -41 vhcurveto
        -1 -22 -16 -96 -52 -122 -70 -165 rcurveline
        -3 vlineto
        -13 9 -7 17 20 8 21 6 3 vhcurveto
        49 68 rlineto
        230 165 97 115 26 hhcurveto
        10 4 -11 -21 -27 -23 -108 -11 -10 hvcurveto
        -144 -138 -65 -48 -51 -57 rrcurveto
        -79 -86 -61 -112 -34 vvcurveto
        -30 16 -14 31 45 66 60 224 152 vhcurveto
        76 106 58 106 16 50 rrcurveto
        -1 -1 44 21 8 vvcurveto
        -119 -94 rmoveto
        -75 -156 -142 -200 -102 -85 -14 -12 -8 -6 -6 1 rrcurveto
        -3 -2 2 5 7 4 8 7 15 hvcurveto
        52 119 111 141 178 161 rrcurveto
        return
      </CharString>
      <CharString index="6">
        263 223 rmoveto
        9 -15 7 -32 6 vhcurveto
        46 -15 -29 22 -44 -91 callgsubr
        87 60 103 107 58 callsubr
        -1 10 vhcurveto
        -71 callsubr
        hvcurveto
        -96 27 -93 callsubr
        17 -11 -24 9 vhcurveto
        return
      </CharString>
      <CharString index="7">
        301 231 rmoveto
        -2 11 -18 6 -28 3 rrcurveto
        7 6 1 5 5 vvcurveto
        -26 -124 -144 -47 -35 hvcurveto
        40 98 20 57 15 vvcurveto
        32 -22 16 -42 -11 -5 -3 -6 -4 2 -1 4 21 -1 -1 -14 vhcurveto
        -4 vlineto
        -1 -24 -4 -26 -10 -30 -28 -77 rcurveline
        -26 -69 -15 -40 1 -10 rrcurveto
        -11 10 -6 20 14 18 47 -5 -2 vhcurveto
        34 61 62 79 90 94 rrcurveto
        9 -10 3 -16 -22 vvcurveto
        -188 -243 -474 -137 -26 -12 16 32 83 114 137 224 186 vhcurveto
        8 9 4 5 3 vvcurveto
        -1 1 -51 callsubr
        vvcurveto
        -7 -4 rlineto
        -178 -106 -185 -200 -107 vvcurveto
        -43 19 -22 47 101 156 181 229 99 vhcurveto
        43 103 23 85 66 vvcurveto
        16 -2 14 -2 13 vhcurveto
        return
      </CharString>
      <CharString index="8">
        256 120 rmoveto
        -26 callgsubr
        -76 -84 -22 -26 vhcurveto
        -25 -30 -27 -12 -22 hhcurveto
        -20 -11 12 27 57 56 93 65 53 -32 callgsubr
        9 hhcurveto
        5 3 -4 -8 return
      </CharString>
      <CharString index="9">
        -52 -21 549 21 hstemhm
        160 40 -22 55 hintmask 11010000
        277 255 rmoveto
        10 -12 4 -24 vhcurveto
        -5 hlineto
        -8 -63 -109 -83 -95 hvcurveto
        59 136 59 121 rlineto
        30 61 15 37 14 vvcurveto
        30 -26 21 -44 -29 -15 -5 -10 -4 57 callsubr
        vhcurveto
        9 18 7 8 hhcurveto
        13 6 -7 -15 hvcurveto
        -1 -20 -11 -43 -28 -64 -57 -131 rcurveline
        -31 -72 -18 -55 -11 -41 -16 -13 -15 -9 -14 -8 rrcurveto
        -51 callsubr
        -1 hhcurveto
        38 callsubr
        -4 -4 18 -20 35 -36 hvcurveto
        -4 4 3 -1 4 hhcurveto
        8 4 3 6 4 -3 2 -6 4 hvcurveto
        5 vlineto
        14 7 27 13 36 vhcurveto
        45 35 41 38 38 38 rrcurveto
        hintmask 11100000
        -12 -33 -7 -29 -28 vvcurveto
        -52 26 -46 38 19 10 45 callgsubr
        -2 -72 callsubr
        -13 -33 callgsubr
        -262 -249 rmoveto
        -2 -12 -1 -9 -8 vvcurveto
        -4 0 -4 1 -5 vhcurveto
        -9 8 -8 8 -8 13 8 1 8 6 11 6 rrcurveto
        return
      </CharString>
      <CharString index="10">
        312 220 64 callgsubr
        20 -47 vhcurveto
        -95 callgsubr
        return
      </CharString>
      <CharString index="11">
        -20 hstem
        -12 29 vstem
        195 87 rmoveto
        4 -5 callgsubr
        14 -143 -112 -27 hhcurveto
        -12 -8 8 16 20 19 35 38 49 hvcurveto
        38 50 20 25 -1 vvcurveto
        9 -18 9 -9 -38 -79 -141 -44 -35 16 -16 29 32 130 96 27 vhcurveto
        return
      </CharString>
      <CharString index="12">
        -10 hlineto
        -77 -3 -130 -173 -76 vvcurveto
        -71 callgsubr
        vhcurveto
        19 27 8 13 1 vvcurveto
        return
      </CharString>
      <CharString index="13">
        -10 -41 -6 -33 -26 vvcurveto
        -58 22 -40 41 20 9 45 callgsubr
        -1 -72 callsubr
        -14 42 callsubr
        return
      </CharString>
      <CharString index="14">
        140 -56 61 178 211 -38 38 hstemhm
        336 32 24 35 hintmask 10111000
        427 322 rmoveto
        45 -70 27 -84 -77 -55 -25 -33 -9 11 -35 6 66 callsubr
        4 vhcurveto
        2 -2 6 2 vvcurveto
        29 52 19 78 68 34 -9 -16 -39 -183 -65 -31 -3 vhcurveto
        -19 -2 -13 -1 -10 -1 13 -27 rcurveline
        -12 5 5 -6 7 hhcurveto
        hintmask 11011000
        6 49 8 12 hhcurveto
        69 34 -15 -30 -58 -118 -75 -102 -58 -30 19 40 hvcurveto
        12 13 32 5 vvcurveto
        4 -1 3 -4 -15 -6 -18 -35 -75 46 -48 73 104 130 81 88 32 -22 33 -44 30 vhcurveto
        84 42 41 26 46 vvcurveto
        endchar
      </CharString>
      <CharString index="15">
        -20 hstem
        85 54 54 39 vstem
        309 255 rmoveto
        10 -12 4 -23 vhcurveto
        -5 hlineto
        -34 -42 -150 -64 -58 21 -40 42 19 10 45 callgsubr
        -1 3 -2 hvcurveto
        3 -24 -19 -7 hhcurveto
        -14 -33 callgsubr
        -77 -15 rmoveto
        3 0 65 callsubr
        vhcurveto
        -19 -64 -80 -89 -57 hvcurveto
        32 95 16 56 12 vvcurveto
        -45 callgsubr
        -13 28 21 -32 -80 callsubr
        6 4 4 7 4 vhcurveto
        9 26 29 64 51 75 70 85 rlinecurve
        5 6 3 64 callsubr
        return
      </CharString>
      <CharString index="16">
        hhcurveto
        -46 -37 -35 -46 -14 -82 callsubr
        -56 46 callsubr
        return
      </CharString>
      <CharString index="17">
        -24 -21 33 53 324 25 hstem
        440 330 rmoveto
        40 -27 20 -53 -86 -158 -51 -46 -13 24 -32 13 2 36 callgsubr
        3 -7 5 5 vvcurveto
        41 172 59 49 17 9 -6 -9 -5 -2 -6 -5 -8 vhcurveto
        -62 -112 -124 -108 -184 -105 rrcurveto
        -24 5 5 -12 8 hhcurveto
        -1 26 2 5 52 hvcurveto
        8 71 54 3 37 93 -37 -28 10 hhcurveto
        8 4 10 20 34 -39 17 -81 -41 -41 -4 -8 -41 hvcurveto
        208 110 121 140 51 vvcurveto
        endchar
      </CharString>
      <CharString index="18">
        2 -7 -6 1 -6 hhcurveto
        -17 -36 -8 -13 -57 hvcurveto
        -138 -36 -69 -54 -75 vvcurveto
        -59 16 -20 108 -113 vhcurveto
        28 -30 15 -19 -12 vvcurveto
        -37 -84 -27 -66 -33 -29 8 12 -26 vhcurveto
        -2 -6 rlineto
        -40 26 45 -19 63 hhcurveto
        25 hlineto
        60 52 33 44 29 -29 47 -58 61 hvcurveto
        -59 62 -28 41 24 vvcurveto
        83 178 75 119 7 18 -2 -7 -7 -11 -15 -25 -17 vhcurveto
        -51 -35 1 -5 rlineto
        6 113 45 33 hvcurveto
        return
      </CharString>
      <CharString index="19">
        10 -12 4 -24 -11 -11 -7 -17 -10 vhcurveto
        -84 -136 rlineto
        -56 -34 -48 -64 -23 hhcurveto
        return
      </CharString>
      <CharString index="20">
        24 hstem
        86 24 542 34 vstem
        686 269 rmoveto
        126 -116 79 -154 -99 -110 -18 -36 -119 vhcurveto
        -64 -19 -3 -1 -13 vvcurveto
        -20 8 -11 13 vhcurveto
        30 11 156 55 118 26 81 2 rlinecurve
        7 hlineto
        126 92 -64 -104 -129 -181 -186 -278 -5 -6 0 1 -7 hvcurveto
        -16 hlineto
        -10 -5 -4 -5 -11 31 -5 65 268 178 174 152 hvcurveto
        return
      </CharString>
      <CharString index="21">
        -20 hstem
        20 38 205 24 vstem
        287 481 rmoveto
        23 -38 23 -28 -84 -117 -385 -101 -62 callsubr
        34 5 42 12 52 hvcurveto
        14 callgsubr
        -24 3 -61 callgsubr
        return
      </CharString>
      <CharString index="22">
        -27 -7 -24 -23 vvcurveto
        -25 5 -12 10 -16 callsubr
        vhcurveto
        3 return
      </CharString>
      <CharString index="23">
        5 -42 callsubr
        -3 38 callsubr
        hhcurveto
        -18 -8 return
      </CharString>
      <CharString index="24">
        -8 -5 9 18 23 16 45 34 69 hvcurveto
        33 68 16 34 -1 vvcurveto
        return
      </CharString>
      <CharString index="25">
        hhcurveto
        -91 -55 50 88 179 215 168 181 return
      </CharString>
      <CharString index="26">
        rmoveto
        3 -1 2 -17 callgsubr
        -9 10 12 -4 15 hhcurveto
        21 15 21 41 10 hvcurveto
        3 20 rlineto
        1 6 1 3 1 vvcurveto
        -41 -151 rmoveto
        11 -4 -30 13 -14 hhcurveto
        -4 -3 -2 -5 hvcurveto
        -51 callsubr
        -1 vvcurveto
        2 -14 rlineto
        -7 1 -11 -9 vvcurveto
        -211 return
      </CharString>
      <CharString index="27">
        1 45 callsubr
        -2 1 rlineto
        -15 -41 20 callgsubr
        8 6 9 6 14 5 hvcurveto
        12 30 5 6 -38 callgsubr
        -42 20 callgsubr
        7 7 6 6 14 7 hvcurveto
        13 30 5 6 3 21 callgsubr
        return
      </CharString>
      <CharString index="28">
        10 -48 17 -13 -41 callgsubr
        -2 vhcurveto
        -6 9 -7 -5 vvcurveto
        return
      </CharString>
      <CharString index="29">
        64 -62 38 -92 -203 -248 -188 -184 return
      </CharString>
      <CharString index="30">
        15 -16 11 -58 callgsubr
        -19 -34 -35 33 callsubr
        37 24 56 25 vhcurveto
        endchar
      </CharString>
      <CharString index="31">
        rmoveto
        -75 -56 -113 -56 -27 -14 18 34 return
      </CharString>
      <CharString index="32">
        -40 -77 -24 hvcurveto
        -2 -3 -1 -1 79 callsubr
        3 -1 return
      </CharString>
      <CharString index="33">
        -32 306 -20 hstem
        172 301 rmoveto
        -87 callsubr
      </CharString>
      <CharString index="34">
        54 -57 27 -57 -60 -10 -5 -25 -5 vvcurveto
        -5 3 -2 5 12 10 55 37 52 -14 48 -26 42 vhcurveto
        68 14 67 69 73 vvcurveto
        -55 -22 rmoveto
        -38 -54 -70 -33 -11 -8 3 6 -3 vhcurveto
        9 7 98 93 3 hhcurveto
        1 0 -2 -1 hvcurveto
        return
      </CharString>
      <CharString index="35">
        4 -23 -19 -5 -24 -18 -5 vhcurveto
        5 -9 -17 3 return
      </CharString>
      <CharString index="36">
        -37 callgsubr
        32 43 43 84 54 return
      </CharString>
      <CharString index="37">
        5 -5 15 8 vvcurveto
        54 73 171 52 69 vhcurveto
        75 callsubr
        vvcurveto
        299 -61 rmoveto
        -74 callsubr
        return
      </CharString>
      <CharString index="38">
        -51 callsubr
        -1 hhcurveto
        -5 -1 -3 -6 -6 25 -33 49 -62 hvcurveto
        -50 -69 -25 -39 -7 vvcurveto
        -4 1 -1 3 11 return
      </CharString>
      <CharString index="39">
        7 233 -21 101 -20 hstem
        254 222 rmoveto
        -5 8 -42 32 -33 -46 callsubr
        5 5 29 22 41 51 -4 callsubr
      </CharString>
      <CharString index="40">
        1 vlineto
        -54 callgsubr
        return
      </CharString>
      <CharString index="41">
        -60 callsubr
        -22 21 -10 3 19 callgsubr
        return
      </CharString>
      <CharString index="42">
        -77 callsubr
        32 -42 114 141 176 vhcurveto
        -4 -11 -1 -11 -8 vvcurveto
        return
      </CharString>
      <CharString index="43">
        8 8 -2 9 hhcurveto
        8 5 2 return
      </CharString>
      <CharString index="44">
        rmoveto
        28 callsubr
        -1 hhcurveto
        -18 -32 return
      </CharString>
      <CharString index="45">
        669 -44 rmoveto
        60 -74 35 -102 -110 -136 -14 -28 -165 vhcurveto
        107 65 119 74 111 63 104 49 rlinecurve
        63 27 rlineto
        35 14 17 9 4 vvcurveto
        15 -3 12 -7 8 vhcurveto
        return
      </CharString>
      <CharString index="46">
        rmoveto
        -41 -61 -99 -120 -157 vhcurveto
        114 36 95 195 43 hhcurveto
        5 2 -3 -9 hvcurveto
        return
      </CharString>
      <CharString index="47">
        20 callsubr
        3 callsubr
        6 6 -24 34 -49 61 vhcurveto
        50 return
      </CharString>
      <CharString index="48">
        hintmask 001000011001010110000000
        return
      </CharString>
      <CharString index="49">
        -15 -15 -56 callsubr
        return
      </CharString>
      <CharString index="50">
        0 -25 callgsubr
        vhcurveto
        return
      </CharString>
      <CharString index="51">
        9 -11 3 -21 -26 -19 -27 callgsubr
        69 -5 vvcurveto
        endchar
      </CharString>
      <CharString index="52">
        2 242 28 28 -5 callsubr
        return
      </CharString>
      <CharString index="53">
        -1 vlineto
        7 callsubr
        return
      </CharString>
      <CharString index="54">
        -194 -1 rlineto
        -13 -6 -6 -12 -11 39 -7 79 39 129 23 13 hvcurveto
        return
      </CharString>
      <CharString index="55">
        -48 callgsubr
        333 -20 return
      </CharString>
      <CharString index="56">
        6 -11 3 -14 -17 vvcurveto
        return
      </CharString>
      <CharString index="57">
        -63 -102 -90 -105 26 callsubr
        hvcurveto
        -71 callsubr
        9 -15 7 -32 6 hvcurveto
        return
      </CharString>
      <CharString index="58">
        -3 -5 hvcurveto
        -6 -11 -19 -5 vvcurveto
        -3 0 -2 4 9 13 18 11 18 -27 16 -16 3 vhcurveto
        36 76 rlineto
        17 36 8 23 12 vvcurveto
        endchar
      </CharString>
      <CharString index="59">
        -98 -21 91 22 115 39 return
      </CharString>
      <CharString index="60">
        rmoveto
        -22 callgsubr
        -53 callgsubr
        return
      </CharString>
      <CharString index="61">
        rmoveto
        9 -66 callgsubr
        25 callsubr
      </CharString>
      <CharString index="62">
        37 -23 18 -44 -10 -5 -3 -6 vhcurveto
        return
      </CharString>
      <CharString index="63">
        90 130 43 87 77 return
      </CharString>
      <CharString index="64">
        2 rlineto
        -51 callsubr
        -1 return
      </CharString>
      <CharString index="65">
        hlineto
        -78 callsubr
        return
      </CharString>
      <CharString index="66">
        -3 -1 -1 return
      </CharString>
      <CharString index="67">
        305 272 rmoveto
        3 -12 3 -22 -20 -15 -13 -23 -10 vhcurveto
        -44 -22 -40 -40 -36 -59 rrcurveto
        21 65 12 41 12 vvcurveto
        return
      </CharString>
      <CharString index="68">
        -1 -42 callsubr
        17 14 15 14 12 13 rrcurveto
        -46 -97 -24 -70 -46 vvcurveto
        -32 12 -32 15 2 1 0 3 vhcurveto
        return
      </CharString>
      <CharString index="69">
        3 -35 callsubr
        return
      </CharString>
      <CharString index="70">
        -29 26 -30 27 return
      </CharString>
      <CharString index="71">
        -34 -2 -90 -110 -40 hhcurveto
        -13 -5 8 16 38 82 115 38 2 hvcurveto
        10 -18 11 -11 9 -6 rrcurveto
        endchar
      </CharString>
      <CharString index="72">
        -16 -4 -10 -9 -15 hhcurveto
        -39 -60 65 127 -79 hvcurveto
        -2 15 17 -1 17 hhcurveto
        156 181 88 101 hvcurveto
        return
      </CharString>
      <CharString index="73">
        -20 5 -11 12 8 4 3 6 2 -1 2 -2 2 vhcurveto
        return
      </CharString>
      <CharString index="74">
        42 callsubr
        hvcurveto
        57 77 2 callgsubr
        return
      </CharString>
      <CharString index="75">
        hvcurveto
        15 18 13 8 return
      </CharString>
      <CharString index="76">
        2 vlineto
        -1 1 -51 callsubr
        vvcurveto
        -4 -8 -1 -2 -10 hvcurveto
        -6 5 -81 1 8 10 70 17 vhcurveto
        endchar
      </CharString>
      <CharString index="77">
        rlinecurve
        -4 2 rlineto
        -9 67 callsubr
        5 5 29 21 42 49 callsubr
        return
      </CharString>
      <CharString index="78">
        9 -12 4 -22 -21 -20 -46 -8 -3 vhcurveto
        16 -27 -34 9 -43 hhcurveto
        -216 -207 -208 -169 return
      </CharString>
      <CharString index="79">
        -8 -18 hvcurveto
        -4 1 3 -1 6 hhcurveto
        22 10 16 31 return
      </CharString>
      <CharString index="80">
        -31 -35 -7 3 -3 7 vhcurveto
        0 67 return
      </CharString>
      <CharString index="81">
        -4 callgsubr
        -2 return
      </CharString>
      <CharString index="82">
        0 0 0 return
      </CharString>
      <CharString index="83">
        -29 -98 -15 -29 hhcurveto
        -1 -2 1 4 -5 hvcurveto
        -8 -7 -4 -12 -17 vvcurveto
        -10 4 -6 8 vhcurveto
        return
      </CharString>
      <CharString index="84">
        hstem
        172 211 74 callgsubr
        1 vhcurveto
        return
      </CharString>
      <CharString index="85">
        12 callsubr
        -25 -1 -32 hhcurveto
        return
      </CharString>
      <CharString index="86">
        -39 -14 -21 320 28 return
      </CharString>
      <CharString index="87">
        40 272 24 34 -20 return
      </CharString>
      <CharString index="88">
        -1 1 -1 return
      </CharString>
      <CharString index="89">
        1 -4 -13 -90 -126 -14 -3 return
      </CharString>
      <CharString index="90">
        -2 vhcurveto
        0 -41 -53 -44 -31 vhcurveto
        return
      </CharString>
      <CharString index="91">
        37 callgsubr
        -2 return
      </CharString>
      <CharString index="92">
        1 -2 vhcurveto
        return
      </CharString>
      <CharString index="93">
        -20 184 -20 48 21 hstemhm
        -25 34 -30 22 5 45 39 29 4 56 4 47 return
      </CharString>
      <CharString index="94">
        -1 -1 -1 return
      </CharString>
      <CharString index="95">
        15 -16 10 -58 callgsubr
        -18 -34 -36 2 return
      </CharString>
      <CharString index="96">
        16 -26 13 -18 -9 -7 -2 -4 -1 vhcurveto
        -1 13 -8 -5 vvcurveto
        -10 -7 -23 return
      </CharString>
      <CharString index="97">
        rmoveto
        7 -6 -27 4 -48 hhcurveto
        -39 -23 -2 -3 -12 hvcurveto
        -1 -1 rlineto
        -12 2 return
      </CharString>
      <CharString index="98">
        2 2 vvcurveto
        -59 callgsubr
        4 -2 3 return
      </CharString>
      <CharString index="99">
        33 callgsubr
        30 6 5 return
      </CharString>
      <CharString index="100">
        2 vhcurveto
        -2 1 0 3 return
      </CharString>
      <CharString index="101">
        hintmask 100001001001010110000000
        return
      </CharString>
      <CharString index="102">
        0 -15 callgsubr
        return
      </CharString>
      <CharString index="103">
        44 callgsubr
        -4 return
      </CharString>
      <CharString index="104">
        3 19 22 32 26 43 32 rlinecurve
        endchar
      </CharString>
      <CharString index="105">
        22 callgsubr
        -9 -2 -94 return
      </CharString>
      <CharString index="106">
        2 callsubr
        hstem
        return
      </CharString>
      <CharString index="107">
        -78 rlineto
        -6 -8 0 -6 hhcurveto
        -46 -49 -7 -11 -51 hvcurveto
        130 102 return
      </CharString>
      <CharString index="108">
        -5 -17 -11 -9 hhcurveto
        -13 -5 9 15 return
      </CharString>
      <CharString index="109">
        183 -18 vvcurveto
        return
      </CharString>
      <CharString index="110">
        -26 callsubr
        -1 return
      </CharString>
      <CharString index="111">
        hhcurveto
        -48 -64 -36 -48 -8 4 -7 4 66 callsubr
        5 2 hvcurveto
        return
      </CharString>
      <CharString index="112">
        -29 vhcurveto
        -53 -73 rlineto
        56 callsubr
        0 -1 vvcurveto
        -1 0 -1 1 return
      </CharString>
      <CharString index="113">
        5 3 6 8 vvcurveto
        endchar
      </CharString>
      <CharString index="114">
        1 2 vhcurveto
        return
      </CharString>
      <CharString index="115">
        rmoveto
        9 -30 8 -9 -5 -16 -15 -32 -23 vhcurveto
        -41 -58 rlineto
        return
      </CharString>
      <CharString index="116">
        468 433 rmoveto
        -1 7 -5 10 -12 13 -25 26 rcurveline
        return
      </CharString>
      <CharString index="117">
        15 callsubr
        18 33 25 callsubr
      </CharString>
      <CharString index="118">
        -2 -6 vhcurveto
        -78 callsubr
        -5 return
      </CharString>
      <CharString index="119">
        -7 callsubr
        -25 -33 return
      </CharString>
      <CharString index="120">
        hhcurveto
        -4 81 callgsubr
        -11 92 -72 return
      </CharString>
      <CharString index="121">
        141 165 71 107 48 vvcurveto
        return
      </CharString>
      <CharString index="122">
        268 -235 -21 701 30 return
      </CharString>
      <CharString index="123">
        -42 callgsubr
        2 return
      </CharString>
      <CharString index="124">
        -213 -21 695 -20 return
      </CharString>
      <CharString index="125">
        rmoveto
        2 -2 -15 callgsubr
        return
      </CharString>
      <CharString index="126">
        -1 rrcurveto
        27 callsubr
        return
      </CharString>
      <CharString index="127">
        37 callsubr
        8 -13 return
      </CharString>
      <CharString index="128">
        3 callsubr
        rlinecurve
        return
      </CharString>
      <CharString index="129">
        rlinecurve
        -4 2 rlineto
        return
      </CharString>
      <CharString index="130">
        492 rmoveto
        9 return
      </CharString>
      <CharString index="131">
        -1 -4 vhcurveto
        return
      </CharString>
      <CharString index="132">
        7 vvcurveto
        endchar
      </CharString>
      <CharString index="133">
        -42 -107 -4 3 rcurveline
        -1 54 callsubr
        vvcurveto
        -2 3 return
      </CharString>
      <CharString index="134">
        7 3 5 return
      </CharString>
      <CharString index="135">
        1 2 2 return
      </CharString>
      <CharString index="136">
        rmoveto
        -17 callsubr
        -3 -9 75 callgsubr
        hlineto
        return
      </CharString>
      <CharString index="137">
        5 2 3 7 vhcurveto
        -10 hmoveto
        -4 1 -3 2 3 return
      </CharString>
      <CharString index="138">
        -21 176 139 16 -20 hstemhm
        85 54 73 41 return
      </CharString>
      <CharString index="139">
        -92 -26 -21 441 -20 hstem
        19 30 vstem
        207 return
      </CharString>
      <CharString index="140">
        51 callgsubr
        11 return
      </CharString>
      <CharString index="141">
        46 callsubr
        87 60 103 107 return
      </CharString>
      <CharString index="142">
        hvcurveto
        1 -2 rlineto
        return
      </CharString>
      <CharString index="143">
        58 callgsubr
        vhcurveto
        return
      </CharString>
      <CharString index="144">
        -2 -2 -1 return
      </CharString>
      <CharString index="145">
        -2 1 -2 return
      </CharString>
      <CharString index="146">
        -29 -21 315 54 96 -20 hstem
        15 44 vstem
        return
      </CharString>
      <CharString index="147">
        vlineto
        -2 vlineto
        -3 2 rlineto
        -13 -43 -27 -16 -9 return
      </CharString>
      <CharString index="148">
        -6 -117 -88 -7 return
      </CharString>
      <CharString index="149">
        -4 2 -2 return
      </CharString>
      <CharString index="150">
        3 0 1 return
      </CharString>
      <CharString index="151">
        3 -2 2 return
      </CharString>
      <CharString index="152">
        9 17 5 return
      </CharString>
      <CharString index="153">
        -7 -15 vhcurveto
        return
      </CharString>
      <CharString index="154">
        -103 -94 -140 -91 -5 -7 1 1 -6 return
      </CharString>
      <CharString index="155">
        331 187 rmoveto
        52 -32 28 -37 vhcurveto
        return
      </CharString>
      <CharString index="156">
        rmoveto
        9 -3 3 -6 -7 -116 -88 -7 return
      </CharString>
      <CharString index="157">
        220 -66 66 -25 25 return
      </CharString>
      <CharString index="158">
        7 8 21 callsubr
        return
      </CharString>
      <CharString index="159">
        81 callgsubr
        vhcurveto
        return
      </CharString>
      <CharString index="160">
        -15 callsubr
        vvcurveto
        return
      </CharString>
      <CharString index="161">
        -1 0 -1 -1 return
      </CharString>
      <CharString index="162">
        30 6 5 3 return
      </CharString>
      <CharString index="163">
        2 0 2 return
      </CharString>
      <CharString index="164">
        22 16 -13 return
      </CharString>
      <CharString index="165">
        1 1 3 return
      </CharString>
      <CharString index="166">
        -1 1 -4 return
      </CharString>
      <CharString index="167">
        -15 vhcurveto
        -9 21 -7 -15 vvcurveto
        -18 -35 return
      </CharString>
      <CharString index="168">
        -107 -251 -21 184 -21 45 34 return
      </CharString>
      <CharString index="169">
        27 73 33 69 19 39 7 15 rcurveline
        return
      </CharString>
      <CharString index="170">
        56 26 vhcurveto
        endchar
      </CharString>
      <CharString index="171">
        rmoveto
        33 -42 return
      </CharString>
      <CharString index="172">
        110 hvcurveto
        return
      </CharString>
      <CharString index="173">
        vvcurveto
        -24 -8 return
      </CharString>
      <CharString index="174">
        5 hvcurveto
        endchar
      </CharString>
      <CharString index="175">
        62 -60 -21 82 32 205 29 return
      </CharString>
      <CharString index="176">
        -20 62 17 hstemhm
        15 25 -25 26 return
      </CharString>
      <CharString index="177">
        55 callgsubr
        21 callgsubr
        return
      </CharString>
      <CharString index="178">
        -51 callgsubr
        endchar
      </CharString>
      <CharString index="179">
        44 2 84 -2 6 vvcurveto
        endchar
      </CharString>
      <CharString index="180">
        9 -13 6 8 6 return
      </CharString>
      <CharString index="181">
        rmoveto
        2 0 1 -2 return
      </CharString>
      <CharString index="182">
        -3 -7 vvcurveto
        13 return
      </CharString>
      <CharString index="183">
        65 callsubr
        -2 return
      </CharString>
      <CharString index="184">
        -92 -36 236 return
      </CharString>
      <CharString index="185">
        -1 1 -3 return
      </CharString>
      <CharString index="186">
        -2 2 -3 return
      </CharString>
      <CharString index="187">
        -37 -57 hvcurveto
        return
      </CharString>
      <CharString index="188">
        -1 -2 -5 return
      </CharString>
</ttFont>
